<svg version="1.1" xmlns="http://www.w3.org/2000/svg" viewBox="0 0 1138.1818181818182 2134.545454545454" width="2276.3636363636365" height="4269.090909090908">
  <!-- svg-source:excalidraw -->
  
  <defs>
    <style>
      @font-face {
        font-family: "Virgil";
        src: url("https://unpkg.com/@zsviczian/excalidraw@0.12.0-obsidian-8/dist/excalidraw-assets/Virgil.woff2");
      }
      @font-face {
        font-family: "Cascadia";
        src: url("https://unpkg.com/@zsviczian/excalidraw@0.12.0-obsidian-8/dist/excalidraw-assets/Cascadia.woff2");
      }
    </style>
  </defs>
  <rect x="0" y="0" width="1138.1818181818182" height="2134.545454545454" fill="#ffffff"/><g transform="translate(129.85108045685251 178.94452688125125) rotate(0 200.5 28)"><text x="200.5" y="21" font-family="Helvetica, Segoe UI Emoji" font-size="20px" fill="#000000" text-anchor="middle" style="white-space: pre;" direction="ltr">计算所有covered用户到curr_position的距离</text><text x="200.5" y="49" font-family="Helvetica, Segoe UI Emoji" font-size="20px" fill="#000000" text-anchor="middle" style="white-space: pre;" direction="ltr">并划分Near/Far用户组</text></g><g transform="translate(225.25848567015964 464.4682177007894) rotate(0 99.5 28)"><text x="99.5" y="21" font-family="Helvetica, Segoe UI Emoji" font-size="20px" fill="#000000" text-anchor="middle" style="white-space: pre;" direction="ltr">把该质心作为悬停点</text><text x="99.5" y="49" font-family="Helvetica, Segoe UI Emoji" font-size="20px" fill="#000000" text-anchor="middle" style="white-space: pre;" direction="ltr">更新covered用户集合</text></g><g transform="translate(284.70640954562646 600.9135517707421) rotate(0 31 30)"><text x="0" y="16" font-family="Helvetica, Segoe UI Emoji" font-size="16px" fill="#000000" text-anchor="start" style="white-space: pre;" direction="ltr">initial </text><text x="0" y="36" font-family="Helvetica, Segoe UI Emoji" font-size="16px" fill="#000000" text-anchor="start" style="white-space: pre;" direction="ltr">属于？</text><text x="0" y="56" font-family="Helvetica, Segoe UI Emoji" font-size="16px" fill="#000000" text-anchor="start" style="white-space: pre;" direction="ltr">covered</text></g><g stroke-linecap="round" transform="translate(234.65562829562646 584.7885517707421) rotate(0 72.52734375 49.34765625)"><path d="M73 0 C91.83 13.07, 110.66 26.13, 145.05 50 M73 0 C88.97 11.08, 104.93 22.16, 145.05 50 M145.05 50 C124.77 63.71, 104.49 77.41, 73 98.7 M145.05 50 C119.39 67.34, 93.73 84.68, 73 98.7 M73 98.7 C46.12 80.77, 19.25 62.84, 0 50 M73 98.7 C57.62 88.44, 42.24 78.18, 0 50 M0 50 C26.93 31.56, 53.86 13.11, 73 0 M0 50 C19.77 36.46, 39.54 22.92, 73 0" stroke="#000000" stroke-width="2" fill="none"/></g><g transform="translate(345.87888884298786 694.7075995828529) rotate(0 7.5 11.5)"><text x="0" y="19" font-family="Helvetica, Segoe UI Emoji" font-size="20px" fill="#000000" text-anchor="start" style="white-space: pre;" direction="ltr">Y</text></g><g stroke-linecap="round"><g transform="translate(237.3685728737321 633.0541767707421) rotate(0 -70.79597862203883 0)"><path d="M0 0 C-23.6 0, -117.99 0, -141.59 0 M0 0 C-23.6 0, -117.99 0, -141.59 0" stroke="#000000" stroke-width="2" fill="none"/></g></g><g stroke-linecap="round"><g transform="translate(97.41884043840969 631.5783936655766) rotate(0 0 -149.3564627165547)"><path d="M0 0 C0 -49.79, 0 -248.93, 0 -298.71 M0 0 C0 -49.79, 0 -248.93, 0 -298.71" stroke="#000000" stroke-width="2" fill="none"/></g></g><g stroke-linecap="round"><g transform="translate(98.28433729707854 333.292668605015) rotate(0 45.11124972969691 0)"><path d="M0 0 C15.04 0, 75.19 0, 90.22 0 M0 0 C15.04 0, 75.19 0, 90.22 0" stroke="#000000" stroke-width="2" fill="none"/></g><g transform="translate(98.28433729707854 333.292668605015) rotate(0 45.11124972969691 0)"><path d="M62.03 10.26 C71.99 6.63, 81.96 3.01, 90.22 0 M62.03 10.26 C70.57 7.15, 79.12 4.04, 90.22 0" stroke="#000000" stroke-width="2" fill="none"/></g><g transform="translate(98.28433729707854 333.292668605015) rotate(0 45.11124972969691 0)"><path d="M62.03 -10.26 C71.99 -6.63, 81.96 -3.01, 90.22 0 M62.03 -10.26 C70.57 -7.15, 79.12 -4.04, 90.22 0" stroke="#000000" stroke-width="2" fill="none"/></g></g><g transform="translate(208.16018198289305 604.365705614842) rotate(0 8 11.5)"><text x="0" y="19" font-family="Helvetica, Segoe UI Emoji" font-size="20px" fill="#000000" text-anchor="start" style="white-space: pre;" direction="ltr">N</text></g><g transform="translate(217.37459410804877 316.83706699030904) rotate(0 110.5 14)"><text x="0" y="21" font-family="Helvetica, Segoe UI Emoji" font-size="20px" fill="#000000" text-anchor="start" style="white-space: pre;" direction="ltr">计算k个Near用户的质心</text></g><g transform="translate(234.257341785295 347.5829791735523) rotate(0 90.5 11.5)"><text x="0" y="17" font-family="Helvetica, Segoe UI Emoji" font-size="16px" fill="#364fc7" text-anchor="start" style="white-space: pre;" direction="ltr">k=1:1:Near/Far用户对数</text></g><g stroke-linecap="round" transform="translate(205.33922204562646 310.49828073246726) rotate(0 117.60563060931668 34.02713872255413)"><path d="M0 0 C76.27 0, 152.54 0, 235.21 0 M0 0 C57.87 0, 115.73 0, 235.21 0 M235.21 0 C235.21 21.38, 235.21 42.76, 235.21 68.05 M235.21 0 C235.21 26.61, 235.21 53.21, 235.21 68.05 M235.21 68.05 C143.15 68.05, 51.08 68.05, 0 68.05 M235.21 68.05 C175.64 68.05, 116.07 68.05, 0 68.05 M0 68.05 C0 49.77, 0 31.49, 0 0 M0 68.05 C0 45.91, 0 23.76, 0 0" stroke="#000000" stroke-width="2" fill="none"/></g><g transform="translate(656.5457569044763 463.1378266139084) rotate(0 120.5 28)"><text x="0" y="21" font-family="Helvetica, Segoe UI Emoji" font-size="20px" fill="#000000" text-anchor="start" style="white-space: pre;" direction="ltr">将质心与initial连线距离r处</text><text x="0" y="49" font-family="Helvetica, Segoe UI Emoji" font-size="20px" fill="#000000" text-anchor="start" style="white-space: pre;" direction="ltr">作为悬停点，更新covered</text></g><g transform="translate(121.44037855622946 753.9150820513505) rotate(0 191 28)"><text x="191" y="21" font-family="Helvetica, Segoe UI Emoji" font-size="20px" fill="#000000" text-anchor="middle" style="white-space: pre;" direction="ltr">计算更新后的covered到当前悬停点的距离</text><text x="191" y="49" font-family="Helvetica, Segoe UI Emoji" font-size="20px" fill="#000000" text-anchor="middle" style="white-space: pre;" direction="ltr">重新划分Near/Far并计算最小NF距离差</text></g><g stroke-linecap="round" transform="translate(107.82658033327675 747.8723790226717) rotate(0 200.70487702192952 33.92400568181819)"><path d="M0 0 C142.45 0, 284.9 0, 401.41 0 M0 0 C105.12 0, 210.24 0, 401.41 0 M401.41 0 C401.41 21.77, 401.41 43.55, 401.41 67.85 M401.41 0 C401.41 19.42, 401.41 38.84, 401.41 67.85 M401.41 67.85 C299.01 67.85, 196.6 67.85, 0 67.85 M401.41 67.85 C309.51 67.85, 217.62 67.85, 0 67.85 M0 67.85 C0 45.77, 0 23.69, 0 0 M0 67.85 C0 41.43, 0 15.01, 0 0" stroke="#000000" stroke-width="2" fill="none"/></g><g stroke-linecap="round" transform="translate(114.90705272900345 168.03915706539829) rotate(0 205.08414617786877 37.83637990982072)"><path d="M0 0 C136.87 0, 273.73 0, 410.17 0 M0 0 C85.96 0, 171.92 0, 410.17 0 M410.17 0 C410.17 20, 410.17 40, 410.17 75.67 M410.17 0 C410.17 26.9, 410.17 53.8, 410.17 75.67 M410.17 75.67 C327.76 75.67, 245.35 75.67, 0 75.67 M410.17 75.67 C301.93 75.67, 193.69 75.67, 0 75.67 M0 75.67 C0 49.5, 0 23.33, 0 0 M0 75.67 C0 46.33, 0 16.99, 0 0" stroke="#000000" stroke-width="2" fill="none"/></g><g stroke-linecap="round" transform="translate(204.83699918133095 459.76312970343633) rotate(0 114.60584639351492 31.804493257530453)"><path d="M0 0 C81.16 0, 162.33 0, 229.21 0 M0 0 C50.46 0, 100.92 0, 229.21 0 M229.21 0 C229.21 17.34, 229.21 34.68, 229.21 63.61 M229.21 0 C229.21 22.1, 229.21 44.19, 229.21 63.61 M229.21 63.61 C179.95 63.61, 130.68 63.61, 0 63.61 M229.21 63.61 C182.07 63.61, 134.93 63.61, 0 63.61 M0 63.61 C0 38.34, 0 13.07, 0 0 M0 63.61 C0 49.34, 0 35.07, 0 0" stroke="#000000" stroke-width="2" fill="none"/></g><g transform="translate(97.27741270547835 303.8044367203645) rotate(0 29 11.5)"><text x="29" y="19" font-family="Helvetica, Segoe UI Emoji" font-size="20px" fill="#000000" text-anchor="middle" style="white-space: pre;" direction="ltr">k=k+1</text></g><g transform="translate(139.92406588705944 956.9631625335687) rotate(0 164.5 14)"><text x="0" y="21" font-family="Helvetica, Segoe UI Emoji" font-size="20px" fill="#000000" text-anchor="start" style="white-space: pre;" direction="ltr">取该值最大时的质心作为最终悬停点</text></g><g stroke-linecap="round" transform="translate(123.68070604142565 947.7975952069207) rotate(0 177.66647957654942 23.030839945108255)"><path d="M0 0 C77.89 0, 155.78 0, 355.33 0 M0 0 C121.59 0, 243.18 0, 355.33 0 M355.33 0 C355.33 12.14, 355.33 24.29, 355.33 46.06 M355.33 0 C355.33 11.78, 355.33 23.55, 355.33 46.06 M355.33 46.06 C235.49 46.06, 115.65 46.06, 0 46.06 M355.33 46.06 C269.47 46.06, 183.6 46.06, 0 46.06 M0 46.06 C0 31.8, 0 17.55, 0 0 M0 46.06 C0 35.4, 0 24.74, 0 0" stroke="#000000" stroke-width="2" fill="none"/></g><g stroke-linecap="round" transform="translate(640.229544810282 456.4730097112779) rotate(0 131.05644635430656 34.54625991766238)"><path d="M0 0 C85.83 0, 171.66 0, 262.11 0 M0 0 C72.03 0, 144.07 0, 262.11 0 M262.11 0 C262.11 20.13, 262.11 40.25, 262.11 69.09 M262.11 0 C262.11 19.49, 262.11 38.98, 262.11 69.09 M262.11 69.09 C188.12 69.09, 114.12 69.09, 0 69.09 M262.11 69.09 C163.53 69.09, 64.94 69.09, 0 69.09 M0 69.09 C0 49.13, 0 29.17, 0 0 M0 69.09 C0 42.64, 0 16.19, 0 0" stroke="#000000" stroke-width="2" fill="none"/></g><g transform="translate(659.6838459654043 318.0172841772353) rotate(0 110.5 14)"><text x="0" y="21" font-family="Helvetica, Segoe UI Emoji" font-size="20px" fill="#000000" text-anchor="start" style="white-space: pre;" direction="ltr">计算k个Near用户的质心</text></g><g transform="translate(676.5665936426506 348.76319636047856) rotate(0 90.5 11.5)"><text x="0" y="17" font-family="Helvetica, Segoe UI Emoji" font-size="16px" fill="#364fc7" text-anchor="start" style="white-space: pre;" direction="ltr">k=1:1:Near/Far用户对数</text></g><g stroke-linecap="round" transform="translate(647.6484739029818 311.6784979193935) rotate(0 117.60563060931668 34.02713872255413)"><path d="M0 0 C67.26 0, 134.52 0, 235.21 0 M0 0 C92.05 0, 184.1 0, 235.21 0 M235.21 0 C235.21 22.81, 235.21 45.61, 235.21 68.05 M235.21 0 C235.21 25.98, 235.21 51.95, 235.21 68.05 M235.21 68.05 C175.16 68.05, 115.11 68.05, 0 68.05 M235.21 68.05 C160.77 68.05, 86.32 68.05, 0 68.05 M0 68.05 C0 48.69, 0 29.32, 0 0 M0 68.05 C0 42.29, 0 16.52, 0 0" stroke="#000000" stroke-width="2" fill="none"/></g><g transform="translate(286.5475697663446 871.8033790588627) rotate(0 25.5 11.5)"><text x="0" y="17" font-family="Helvetica, Segoe UI Emoji" font-size="16px" fill="#000000" text-anchor="start" style="white-space: pre;" direction="ltr">存在？</text></g><g stroke-linecap="round" transform="translate(245.2704418287667 852.3882590667044) rotate(0 58.27015711731394 31.251996293129196)"><path d="M59 0 C81.46 12.49, 103.91 24.98, 116.54 32 M59 0 C75.93 9.41, 92.86 18.83, 116.54 32 M116.54 32 C96.81 42.46, 77.07 52.92, 59 62.5 M116.54 32 C97.81 41.93, 79.07 51.86, 59 62.5 M59 62.5 C43.67 54.58, 28.33 46.65, 0 32 M59 62.5 C46.01 55.79, 33.02 49.07, 0 32 M0 32 C16.35 23.13, 32.69 14.27, 59 0 M0 32 C15.87 23.39, 31.75 14.78, 59 0" stroke="#000000" stroke-width="2" fill="none"/></g><g stroke-linecap="round"><g transform="translate(315.6043722506611 247.00203687719818) rotate(0 0 30.15943326145134)"><path d="M0 0 C0 10.05, 0 50.27, 0 60.32 M0 0 C0 10.05, 0 50.27, 0 60.32" stroke="#000000" stroke-width="2" fill="none"/></g><g transform="translate(315.6043722506611 247.00203687719818) rotate(0 0 30.15943326145134)"><path d="M-10.26 32.13 C-6.71 41.89, -3.16 51.65, 0 60.32 M-10.26 32.13 C-8.19 37.8, -6.13 43.48, 0 60.32" stroke="#000000" stroke-width="2" fill="none"/></g><g transform="translate(315.6043722506611 247.00203687719818) rotate(0 0 30.15943326145134)"><path d="M10.26 32.13 C6.71 41.89, 3.16 51.65, 0 60.32 M10.26 32.13 C8.19 37.8, 6.13 43.48, 0 60.32" stroke="#000000" stroke-width="2" fill="none"/></g></g><g stroke-linecap="round"><g transform="translate(313.41095892255566 378.60683656353103) rotate(0 0 40.02979323792624)"><path d="M0 0 C0 13.34, 0 66.72, 0 80.06 M0 0 C0 13.34, 0 66.72, 0 80.06" stroke="#000000" stroke-width="2" fill="none"/></g><g transform="translate(313.41095892255566 378.60683656353103) rotate(0 0 40.02979323792624)"><path d="M-10.26 51.87 C-7.88 58.4, -5.5 64.94, 0 80.06 M-10.26 51.87 C-6.79 61.42, -3.31 70.97, 0 80.06" stroke="#000000" stroke-width="2" fill="none"/></g><g transform="translate(313.41095892255566 378.60683656353103) rotate(0 0 40.02979323792624)"><path d="M10.26 51.87 C7.88 58.4, 5.5 64.94, 0 80.06 M10.26 51.87 C6.79 61.42, 3.31 70.97, 0 80.06" stroke="#000000" stroke-width="2" fill="none"/></g></g><g stroke-linecap="round"><g transform="translate(308.1208389303972 524.6622362106555) rotate(0 0 30.707786593477692)"><path d="M0 0 C0 10.24, 0 51.18, 0 61.42 M0 0 C0 10.24, 0 51.18, 0 61.42" stroke="#000000" stroke-width="2" fill="none"/></g><g transform="translate(308.1208389303972 524.6622362106555) rotate(0 0 30.707786593477692)"><path d="M-10.26 33.22 C-6.86 42.58, -3.45 51.93, 0 61.42 M-10.26 33.22 C-6.35 43.98, -2.43 54.73, 0 61.42" stroke="#000000" stroke-width="2" fill="none"/></g><g transform="translate(308.1208389303972 524.6622362106555) rotate(0 0 30.707786593477692)"><path d="M10.26 33.22 C6.86 42.58, 3.45 51.93, 0 61.42 M10.26 33.22 C6.35 43.98, 2.43 54.73, 0 61.42" stroke="#000000" stroke-width="2" fill="none"/></g></g><g stroke-linecap="round"><g transform="translate(306.830718938239 686.7814091623604) rotate(0 0 28.514373265372114)"><path d="M0 0 C0 9.5, 0 47.52, 0 57.03 M0 0 C0 9.5, 0 47.52, 0 57.03" stroke="#000000" stroke-width="2" fill="none"/></g><g transform="translate(306.830718938239 686.7814091623604) rotate(0 0 28.514373265372114)"><path d="M-9.75 30.23 C-6.85 38.22, -3.94 46.2, 0 57.03 M-9.75 30.23 C-7.04 37.7, -4.32 45.16, 0 57.03" stroke="#000000" stroke-width="2" fill="none"/></g><g transform="translate(306.830718938239 686.7814091623604) rotate(0 0 28.514373265372114)"><path d="M9.75 30.23 C6.85 38.22, 3.94 46.2, 0 57.03 M9.75 30.23 C7.04 37.7, 4.32 45.16, 0 57.03" stroke="#000000" stroke-width="2" fill="none"/></g></g><g stroke-linecap="round"><g transform="translate(305.73401227418617 817.2895021846407) rotate(0 0 15.902246628765226)"><path d="M0 0 C0 5.3, 0 26.5, 0 31.8 M0 0 C0 5.3, 0 26.5, 0 31.8" stroke="#000000" stroke-width="2" fill="none"/></g><g transform="translate(305.73401227418617 817.2895021846407) rotate(0 0 15.902246628765226)"><path d="M-5.44 16.86 C-3.4 22.47, -1.35 28.09, 0 31.8 M-5.44 16.86 C-3.35 22.6, -1.26 28.33, 0 31.8" stroke="#000000" stroke-width="2" fill="none"/></g><g transform="translate(305.73401227418617 817.2895021846407) rotate(0 0 15.902246628765226)"><path d="M5.44 16.86 C3.4 22.47, 1.35 28.09, 0 31.8 M5.44 16.86 C3.35 22.6, 1.26 28.33, 0 31.8" stroke="#000000" stroke-width="2" fill="none"/></g></g><g stroke-linecap="round"><g transform="translate(303.54059894608054 914.8963952853376) rotate(0 0 16.45059996079158)"><path d="M0 0 C0 5.48, 0 27.42, 0 32.9 M0 0 C0 5.48, 0 27.42, 0 32.9" stroke="#000000" stroke-width="2" fill="none"/></g><g transform="translate(303.54059894608054 914.8963952853376) rotate(0 0 16.45059996079158)"><path d="M-5.63 17.44 C-3.77 22.54, -1.92 27.63, 0 32.9 M-5.63 17.44 C-3.54 23.17, -1.46 28.89, 0 32.9" stroke="#000000" stroke-width="2" fill="none"/></g><g transform="translate(303.54059894608054 914.8963952853376) rotate(0 0 16.45059996079158)"><path d="M5.63 17.44 C3.77 22.54, 1.92 27.63, 0 32.9 M5.63 17.44 C3.54 23.17, 1.46 28.89, 0 32.9" stroke="#000000" stroke-width="2" fill="none"/></g></g><g transform="translate(263.6393990244974 920.943701910182) rotate(0 7.5 11.5)"><text x="0" y="19" font-family="Helvetica, Segoe UI Emoji" font-size="20px" fill="#000000" text-anchor="start" style="white-space: pre;" direction="ltr">Y</text></g><g transform="translate(396.93761203893587 848.5610620826988) rotate(0 8 11.5)"><text x="0" y="19" font-family="Helvetica, Segoe UI Emoji" font-size="20px" fill="#000000" text-anchor="start" style="white-space: pre;" direction="ltr">N</text></g><g stroke-linecap="round"><g transform="translate(360.569345476825 884.1886086918598) rotate(0 95.96183310461777 0)"><path d="M0 0 C31.99 0, 159.94 0, 191.92 0 M0 0 C31.99 0, 159.94 0, 191.92 0" stroke="#000000" stroke-width="2" fill="none"/></g></g><g stroke-linecap="round"><g transform="translate(553.6864250141659 883.091902027807) rotate(0 0 -269.2414860249561)"><path d="M0 0 C0 -89.75, 0 -448.74, 0 -538.48 M0 0 C0 -89.75, 0 -448.74, 0 -538.48" stroke="#000000" stroke-width="2" fill="none"/></g></g><g stroke-linecap="round"><g transform="translate(553.5897183501131 343.51222331384224) rotate(0 45.5133265581901 0)"><path d="M0 0 C15.17 0, 75.86 0, 91.03 0 M0 0 C15.17 0, 75.86 0, 91.03 0" stroke="#000000" stroke-width="2" fill="none"/></g><g transform="translate(553.5897183501131 343.51222331384224) rotate(0 45.5133265581901 0)"><path d="M62.84 10.26 C72.88 6.6, 82.93 2.95, 91.03 0 M62.84 10.26 C69.05 8, 75.27 5.74, 91.03 0" stroke="#000000" stroke-width="2" fill="none"/></g><g transform="translate(553.5897183501131 343.51222331384224) rotate(0 45.5133265581901 0)"><path d="M62.84 -10.26 C72.88 -6.6, 82.93 -2.95, 91.03 0 M62.84 -10.26 C69.05 -8, 75.27 -5.74, 91.03 0" stroke="#000000" stroke-width="2" fill="none"/></g></g><g transform="translate(602.2905723224828 627.0956132516907) rotate(0 191 28)"><text x="191" y="21" font-family="Helvetica, Segoe UI Emoji" font-size="20px" fill="#000000" text-anchor="middle" style="white-space: pre;" direction="ltr">计算更新后的covered到当前悬停点的距离</text><text x="191" y="49" font-family="Helvetica, Segoe UI Emoji" font-size="20px" fill="#000000" text-anchor="middle" style="white-space: pre;" direction="ltr">重新划分Near/Far并计算最小NF距离差</text></g><g stroke-linecap="round" transform="translate(588.6767740995299 621.0529102230118) rotate(0 200.70487702192952 33.92400568181819)"><path d="M0 0 C85.47 0, 170.94 0, 401.41 0 M0 0 C147.39 0, 294.78 0, 401.41 0 M401.41 0 C401.41 15.2, 401.41 30.39, 401.41 67.85 M401.41 0 C401.41 16.45, 401.41 32.9, 401.41 67.85 M401.41 67.85 C303.84 67.85, 206.27 67.85, 0 67.85 M401.41 67.85 C303.19 67.85, 204.96 67.85, 0 67.85 M0 67.85 C0 52.31, 0 36.77, 0 0 M0 67.85 C0 53.97, 0 40.1, 0 0" stroke="#000000" stroke-width="2" fill="none"/></g><g stroke-linecap="round"><g transform="translate(991.17567730717 653.8802092407773) rotate(0 38.93308657387354 0)"><path d="M0 0 C12.98 0, 64.89 0, 77.87 0 M0 0 C12.98 0, 64.89 0, 77.87 0" stroke="#000000" stroke-width="2" fill="none"/></g></g><g stroke-linecap="round"><g transform="translate(1071.2352637830224 653.8802092407773) rotate(0 0 -157.92575962359945)"><path d="M0 0 C0 -52.64, 0 -263.21, 0 -315.85 M0 0 C0 -52.64, 0 -263.21, 0 -315.85" stroke="#000000" stroke-width="2" fill="none"/></g></g><g stroke-linecap="round"><g transform="translate(1071.2352637830224 338.0286899935784) rotate(0 -86.63982646016916 0)"><path d="M0 0 C-28.88 0, -144.4 0, -173.28 0 M0 0 C-28.88 0, -144.4 0, -173.28 0" stroke="#000000" stroke-width="2" fill="none"/></g><g transform="translate(1071.2352637830224 338.0286899935784) rotate(0 -86.63982646016916 0)"><path d="M-145.09 -10.26 C-155.92 -6.32, -166.74 -2.38, -173.28 0 M-145.09 -10.26 C-152.09 -7.71, -159.1 -5.16, -173.28 0" stroke="#000000" stroke-width="2" fill="none"/></g><g transform="translate(1071.2352637830224 338.0286899935784) rotate(0 -86.63982646016916 0)"><path d="M-145.09 10.26 C-155.92 6.32, -166.74 2.38, -173.28 0 M-145.09 10.26 C-152.09 7.71, -159.1 5.16, -173.28 0" stroke="#000000" stroke-width="2" fill="none"/></g></g><g transform="translate(969.1592106274336 307.88467670468117) rotate(0 29 11.5)"><text x="29" y="19" font-family="Helvetica, Segoe UI Emoji" font-size="20px" fill="#000000" text-anchor="middle" style="white-space: pre;" direction="ltr">k=k+1</text></g><g stroke-linecap="round"><g transform="translate(757.577157863929 384.0903698837949) rotate(0 0 34.54625991766238)"><path d="M0 0 C0 11.52, 0 57.58, 0 69.09 M0 0 C0 11.52, 0 57.58, 0 69.09" stroke="#000000" stroke-width="2" fill="none"/></g><g transform="translate(757.577157863929 384.0903698837949) rotate(0 0 34.54625991766238)"><path d="M-10.26 40.9 C-8.19 46.6, -6.11 52.29, 0 69.09 M-10.26 40.9 C-7.31 49.01, -4.36 57.12, 0 69.09" stroke="#000000" stroke-width="2" fill="none"/></g><g transform="translate(757.577157863929 384.0903698837949) rotate(0 0 34.54625991766238)"><path d="M10.26 40.9 C8.19 46.6, 6.11 52.29, 0 69.09 M10.26 40.9 C7.31 49.01, 4.36 57.12, 0 69.09" stroke="#000000" stroke-width="2" fill="none"/></g></g><g stroke-linecap="round"><g transform="translate(759.7705711920346 524.4688228825498) rotate(0 0 46.61003322224292)"><path d="M0 0 C0 15.54, 0 77.68, 0 93.22 M0 0 C0 15.54, 0 77.68, 0 93.22" stroke="#000000" stroke-width="2" fill="none"/></g><g transform="translate(759.7705711920346 524.4688228825498) rotate(0 0 46.61003322224292)"><path d="M-10.26 65.03 C-7.76 71.89, -5.26 78.76, 0 93.22 M-10.26 65.03 C-7.36 73, -4.46 80.97, 0 93.22" stroke="#000000" stroke-width="2" fill="none"/></g><g transform="translate(759.7705711920346 524.4688228825498) rotate(0 0 46.61003322224292)"><path d="M10.26 65.03 C7.76 71.89, 5.26 78.76, 0 93.22 M10.26 65.03 C7.36 73, 4.46 80.97, 0 93.22" stroke="#000000" stroke-width="2" fill="none"/></g></g><g stroke-linecap="round"><g transform="translate(760.8672778560874 691.1682358185715) rotate(0 0 137.63668633862318)"><path d="M0 0 C0 45.88, 0 229.39, 0 275.27 M0 0 C0 45.88, 0 229.39, 0 275.27" stroke="#000000" stroke-width="2" fill="none"/></g></g><g stroke-linecap="round"><g transform="translate(760.8672778560874 965.3449018317651) rotate(0 -136.5399796745703 0)"><path d="M0 0 C-45.51 0, -227.57 0, -273.08 0 M0 0 C-45.51 0, -227.57 0, -273.08 0" stroke="#000000" stroke-width="2" fill="none"/></g><g transform="translate(760.8672778560874 965.3449018317651) rotate(0 -136.5399796745703 0)"><path d="M-244.89 -10.26 C-251.27 -7.94, -257.64 -5.62, -273.08 0 M-244.89 -10.26 C-254.48 -6.77, -264.08 -3.28, -273.08 0" stroke="#000000" stroke-width="2" fill="none"/></g><g transform="translate(760.8672778560874 965.3449018317651) rotate(0 -136.5399796745703 0)"><path d="M-244.89 10.26 C-251.27 7.94, -257.64 5.62, -273.08 0 M-244.89 10.26 C-254.48 6.77, -264.08 3.28, -273.08 0" stroke="#000000" stroke-width="2" fill="none"/></g></g><g transform="translate(80.23582505337424 41.93435737906543) rotate(0 462.99999999999994 50)"><text x="0" y="38" font-family="Helvetica, Segoe UI Emoji" font-size="36px" fill="#d9480f" text-anchor="start" style="white-space: pre;" direction="ltr">方案一：优先initial在覆盖范围内的情况，</text><text x="0" y="88" font-family="Helvetica, Segoe UI Emoji" font-size="36px" fill="#d9480f" text-anchor="start" style="white-space: pre;" direction="ltr">遍历之后都不存在再考虑initial不在覆盖范围内的解决方法</text></g><g transform="translate(65.12837258061427 1137.0902781564735) rotate(0 499.5 50)"><text x="0" y="38" font-family="Helvetica, Segoe UI Emoji" font-size="36px" fill="#d9480f" text-anchor="start" style="white-space: pre;" direction="ltr">方案二：遍历的同时优先initial在覆盖范围内的情况，</text><text x="0" y="88" font-family="Helvetica, Segoe UI Emoji" font-size="36px" fill="#d9480f" text-anchor="start" style="white-space: pre;" direction="ltr">不存在再考虑initial不在覆盖范围内的解决方法（只遍历一次）</text></g><g transform="translate(161.4857931821366 1279.6014943658415) rotate(0 200.5 28)"><text x="200.5" y="21" font-family="Helvetica, Segoe UI Emoji" font-size="20px" fill="#000000" text-anchor="middle" style="white-space: pre;" direction="ltr">计算所有covered用户到curr_position的距离</text><text x="200.5" y="49" font-family="Helvetica, Segoe UI Emoji" font-size="20px" fill="#000000" text-anchor="middle" style="white-space: pre;" direction="ltr">并划分Near/Far用户组</text></g><g transform="translate(256.89319839544396 1565.1251851853783) rotate(0 99.5 28)"><text x="99.5" y="21" font-family="Helvetica, Segoe UI Emoji" font-size="20px" fill="#000000" text-anchor="middle" style="white-space: pre;" direction="ltr">把该质心作为悬停点</text><text x="99.5" y="49" font-family="Helvetica, Segoe UI Emoji" font-size="20px" fill="#000000" text-anchor="middle" style="white-space: pre;" direction="ltr">更新covered用户集合</text></g><g transform="translate(316.34112227091055 1701.5705192553312) rotate(0 31 30)"><text x="0" y="16" font-family="Helvetica, Segoe UI Emoji" font-size="16px" fill="#000000" text-anchor="start" style="white-space: pre;" direction="ltr">initial </text><text x="0" y="36" font-family="Helvetica, Segoe UI Emoji" font-size="16px" fill="#000000" text-anchor="start" style="white-space: pre;" direction="ltr">属于？</text><text x="0" y="56" font-family="Helvetica, Segoe UI Emoji" font-size="16px" fill="#000000" text-anchor="start" style="white-space: pre;" direction="ltr">covered</text></g><g stroke-linecap="round" transform="translate(266.29034102091055 1685.4455192553312) rotate(0 72.52734375 49.34765625)"><path d="M73 0 C100.45 19.05, 127.9 38.1, 145.05 50 M73 0 C95.08 15.32, 117.15 30.64, 145.05 50 M145.05 50 C126.54 62.51, 108.03 75.02, 73 98.7 M145.05 50 C127.96 61.56, 110.86 73.11, 73 98.7 M73 98.7 C51.77 84.53, 30.54 70.37, 0 50 M73 98.7 C50.16 83.46, 27.32 68.23, 0 50 M0 50 C25.42 32.59, 50.84 15.18, 73 0 M0 50 C26.29 31.99, 52.59 13.98, 73 0" stroke="#000000" stroke-width="2" fill="none"/></g><g transform="translate(377.51360156827195 1795.364567067442) rotate(0 7.5 11.5)"><text x="0" y="19" font-family="Helvetica, Segoe UI Emoji" font-size="20px" fill="#000000" text-anchor="start" style="white-space: pre;" direction="ltr">Y</text></g><g transform="translate(430.62185425335974 1696.249019787009) rotate(0 8 11.5)"><text x="0" y="19" font-family="Helvetica, Segoe UI Emoji" font-size="20px" fill="#000000" text-anchor="start" style="white-space: pre;" direction="ltr">N</text></g><g transform="translate(249.00930683333308 1417.4940344748982) rotate(0 110.5 14)"><text x="0" y="21" font-family="Helvetica, Segoe UI Emoji" font-size="20px" fill="#000000" text-anchor="start" style="white-space: pre;" direction="ltr">计算k个Near用户的质心</text></g><g transform="translate(265.8920545105793 1448.2399466581412) rotate(0 90.5 11.5)"><text x="0" y="17" font-family="Helvetica, Segoe UI Emoji" font-size="16px" fill="#364fc7" text-anchor="start" style="white-space: pre;" direction="ltr">k=1:1:Near/Far用户对数</text></g><g stroke-linecap="round" transform="translate(236.97393477091055 1411.1552482170562) rotate(0 117.60563060931668 34.0271387225541)"><path d="M0 0 C86.33 0, 172.66 0, 235.21 0 M0 0 C67.09 0, 134.18 0, 235.21 0 M235.21 0 C235.21 17.99, 235.21 35.98, 235.21 68.05 M235.21 0 C235.21 16.08, 235.21 32.17, 235.21 68.05 M235.21 68.05 C167.28 68.05, 99.35 68.05, 0 68.05 M235.21 68.05 C166.74 68.05, 98.27 68.05, 0 68.05 M0 68.05 C0 43.64, 0 19.22, 0 0 M0 68.05 C0 50.69, 0 33.32, 0 0" stroke="#000000" stroke-width="2" fill="none"/></g><g transform="translate(587.2834565369053 1564.8915007625503) rotate(0 120.5 28)"><text x="0" y="21" font-family="Helvetica, Segoe UI Emoji" font-size="20px" fill="#000000" text-anchor="start" style="white-space: pre;" direction="ltr">将质心与initial连线距离r处</text><text x="0" y="49" font-family="Helvetica, Segoe UI Emoji" font-size="20px" fill="#000000" text-anchor="start" style="white-space: pre;" direction="ltr">作为悬停点，更新covered</text></g><g transform="translate(153.07509128151378 1854.5720495359394) rotate(0 191 28)"><text x="191" y="21" font-family="Helvetica, Segoe UI Emoji" font-size="20px" fill="#000000" text-anchor="middle" style="white-space: pre;" direction="ltr">计算更新后的covered到当前悬停点的距离</text><text x="191" y="49" font-family="Helvetica, Segoe UI Emoji" font-size="20px" fill="#000000" text-anchor="middle" style="white-space: pre;" direction="ltr">重新划分Near/Far并计算最小NF距离差</text></g><g stroke-linecap="round" transform="translate(139.46129305856084 1848.5293465072607) rotate(0 200.70487702192952 33.92400568181819)"><path d="M0 0 C122.98 0, 245.97 0, 401.41 0 M0 0 C103.14 0, 206.28 0, 401.41 0 M401.41 0 C401.41 16.1, 401.41 32.2, 401.41 67.85 M401.41 0 C401.41 19.73, 401.41 39.47, 401.41 67.85 M401.41 67.85 C275.82 67.85, 150.24 67.85, 0 67.85 M401.41 67.85 C261.63 67.85, 121.85 67.85, 0 67.85 M0 67.85 C0 43.41, 0 18.97, 0 0 M0 67.85 C0 42.58, 0 17.31, 0 0" stroke="#000000" stroke-width="2" fill="none"/></g><g stroke-linecap="round" transform="translate(146.54176545428754 1268.6961245499886) rotate(0 205.08414617786877 37.83637990982069)"><path d="M0 0 C90.34 0, 180.69 0, 410.17 0 M0 0 C103.76 0, 207.51 0, 410.17 0 M410.17 0 C410.17 27.28, 410.17 54.57, 410.17 75.67 M410.17 0 C410.17 20.68, 410.17 41.37, 410.17 75.67 M410.17 75.67 C247.39 75.67, 84.61 75.67, 0 75.67 M410.17 75.67 C252.95 75.67, 95.73 75.67, 0 75.67 M0 75.67 C0 57.32, 0 38.96, 0 0 M0 75.67 C0 59.85, 0 44.03, 0 0" stroke="#000000" stroke-width="2" fill="none"/></g><g stroke-linecap="round" transform="translate(236.47171190661538 1560.4200971880252) rotate(0 114.60584639351487 31.804493257530453)"><path d="M0 0 C81.07 0, 162.14 0, 229.21 0 M0 0 C77.64 0, 155.29 0, 229.21 0 M229.21 0 C229.21 18.67, 229.21 37.34, 229.21 63.61 M229.21 0 C229.21 17.69, 229.21 35.37, 229.21 63.61 M229.21 63.61 C144.95 63.61, 60.69 63.61, 0 63.61 M229.21 63.61 C170.42 63.61, 111.63 63.61, 0 63.61 M0 63.61 C0 49.93, 0 36.25, 0 0 M0 63.61 C0 47.84, 0 32.07, 0 0" stroke="#000000" stroke-width="2" fill="none"/></g><g transform="translate(178.1390185966602 2041.1695300573658) rotate(0 164.5 14)"><text x="0" y="21" font-family="Helvetica, Segoe UI Emoji" font-size="20px" fill="#000000" text-anchor="start" style="white-space: pre;" direction="ltr">取该值最大时的质心作为最终悬停点</text></g><g stroke-linecap="round" transform="translate(161.89565875102653 2032.003962730718) rotate(0 177.66647957654936 23.030839945108255)"><path d="M0 0 C75.75 0, 151.5 0, 355.33 0 M0 0 C81.02 0, 162.04 0, 355.33 0 M355.33 0 C355.33 12.3, 355.33 24.6, 355.33 46.06 M355.33 0 C355.33 18.03, 355.33 36.06, 355.33 46.06 M355.33 46.06 C257.59 46.06, 159.84 46.06, 0 46.06 M355.33 46.06 C236.39 46.06, 117.45 46.06, 0 46.06 M0 46.06 C0 34.16, 0 22.25, 0 0 M0 46.06 C0 28, 0 9.94, 0 0" stroke="#000000" stroke-width="2" fill="none"/></g><g stroke-linecap="round" transform="translate(570.967244442711 1558.2266838599196) rotate(0 131.05644635430656 34.54625991766238)"><path d="M0 0 C58.26 0, 116.53 0, 262.11 0 M0 0 C67.49 0, 134.97 0, 262.11 0 M262.11 0 C262.11 16.75, 262.11 33.49, 262.11 69.09 M262.11 0 C262.11 15, 262.11 30.01, 262.11 69.09 M262.11 69.09 C167.57 69.09, 73.03 69.09, 0 69.09 M262.11 69.09 C159.2 69.09, 56.29 69.09, 0 69.09 M0 69.09 C0 54.9, 0 40.7, 0 0 M0 69.09 C0 55.08, 0 41.07, 0 0" stroke="#000000" stroke-width="2" fill="none"/></g><g stroke-linecap="round"><g transform="translate(347.2390849759454 1347.6590043617869) rotate(0 0 30.159433261451284)"><path d="M0 0 C0 10.05, 0 50.27, 0 60.32 M0 0 C0 10.05, 0 50.27, 0 60.32" stroke="#000000" stroke-width="2" fill="none"/></g><g transform="translate(347.2390849759454 1347.6590043617869) rotate(0 0 30.159433261451284)"><path d="M-10.26 32.13 C-7.67 39.26, -5.07 46.39, 0 60.32 M-10.26 32.13 C-6.56 42.29, -2.86 52.46, 0 60.32" stroke="#000000" stroke-width="2" fill="none"/></g><g transform="translate(347.2390849759454 1347.6590043617869) rotate(0 0 30.159433261451284)"><path d="M10.26 32.13 C7.67 39.26, 5.07 46.39, 0 60.32 M10.26 32.13 C6.56 42.29, 2.86 52.46, 0 60.32" stroke="#000000" stroke-width="2" fill="none"/></g></g><g stroke-linecap="round"><g transform="translate(345.04567164783975 1479.26380404812) rotate(0 0 40.02979323792624)"><path d="M0 0 C0 13.34, 0 66.72, 0 80.06 M0 0 C0 13.34, 0 66.72, 0 80.06" stroke="#000000" stroke-width="2" fill="none"/></g><g transform="translate(345.04567164783975 1479.26380404812) rotate(0 0 40.02979323792624)"><path d="M-10.26 51.87 C-6.78 61.42, -3.31 70.97, 0 80.06 M-10.26 51.87 C-7.25 60.14, -4.24 68.42, 0 80.06" stroke="#000000" stroke-width="2" fill="none"/></g><g transform="translate(345.04567164783975 1479.26380404812) rotate(0 0 40.02979323792624)"><path d="M10.26 51.87 C6.78 61.42, 3.31 70.97, 0 80.06 M10.26 51.87 C7.25 60.14, 4.24 68.42, 0 80.06" stroke="#000000" stroke-width="2" fill="none"/></g></g><g stroke-linecap="round"><g transform="translate(339.7555516556813 1625.3192036952444) rotate(0 0 30.707786593477692)"><path d="M0 0 C0 10.24, 0 51.18, 0 61.42 M0 0 C0 10.24, 0 51.18, 0 61.42" stroke="#000000" stroke-width="2" fill="none"/></g><g transform="translate(339.7555516556813 1625.3192036952444) rotate(0 0 30.707786593477692)"><path d="M-10.26 33.22 C-8.16 38.98, -6.07 44.74, 0 61.42 M-10.26 33.22 C-6.16 44.48, -2.07 55.74, 0 61.42" stroke="#000000" stroke-width="2" fill="none"/></g><g transform="translate(339.7555516556813 1625.3192036952444) rotate(0 0 30.707786593477692)"><path d="M10.26 33.22 C8.16 38.98, 6.07 44.74, 0 61.42 M10.26 33.22 C6.16 44.48, 2.07 55.74, 0 61.42" stroke="#000000" stroke-width="2" fill="none"/></g></g><g stroke-linecap="round"><g transform="translate(338.4654316635233 1787.4383766469493) rotate(0 0 28.514373265372114)"><path d="M0 0 C0 9.5, 0 47.52, 0 57.03 M0 0 C0 9.5, 0 47.52, 0 57.03" stroke="#000000" stroke-width="2" fill="none"/></g><g transform="translate(338.4654316635233 1787.4383766469493) rotate(0 0 28.514373265372114)"><path d="M-9.75 30.23 C-6.22 39.93, -2.69 49.63, 0 57.03 M-9.75 30.23 C-7.32 36.92, -4.88 43.62, 0 57.03" stroke="#000000" stroke-width="2" fill="none"/></g><g transform="translate(338.4654316635233 1787.4383766469493) rotate(0 0 28.514373265372114)"><path d="M9.75 30.23 C6.22 39.93, 2.69 49.63, 0 57.03 M9.75 30.23 C7.32 36.92, 4.88 43.62, 0 57.03" stroke="#000000" stroke-width="2" fill="none"/></g></g><g transform="translate(99.30104550133774 1419.5087108297978) rotate(0 29 11.5)"><text x="29" y="19" font-family="Helvetica, Segoe UI Emoji" font-size="20px" fill="#000000" text-anchor="middle" style="white-space: pre;" direction="ltr">k=k+1</text></g><g stroke-linecap="round"><g transform="translate(410.05650625375347 1735.3448101044435) rotate(0 47.158386554269214 0)"><path d="M0 0 C15.72 0, 78.6 0, 94.32 0 M0 0 C15.72 0, 78.6 0, 94.32 0" stroke="#000000" stroke-width="2" fill="none"/></g></g><g stroke-linecap="round"><g transform="translate(505.46998602634494 1735.3448101044435) rotate(0 0 -70.73757983140388)"><path d="M0 0 C0 -23.58, 0 -117.9, 0 -141.48 M0 0 C0 -23.58, 0 -117.9, 0 -141.48" stroke="#000000" stroke-width="2" fill="none"/></g></g><g stroke-linecap="round"><g transform="translate(505.46998602634494 1593.9663571056888) rotate(0 28.514373265372114 0)"><path d="M0 0 C9.5 0, 47.52 0, 57.03 0 M0 0 C9.5 0, 47.52 0, 57.03 0" stroke="#000000" stroke-width="2" fill="none"/></g><g transform="translate(505.46998602634494 1593.9663571056888) rotate(0 28.514373265372114 0)"><path d="M30.23 9.75 C40.25 6.11, 50.27 2.46, 57.03 0 M30.23 9.75 C39.13 6.51, 48.02 3.28, 57.03 0" stroke="#000000" stroke-width="2" fill="none"/></g><g transform="translate(505.46998602634494 1593.9663571056888) rotate(0 28.514373265372114 0)"><path d="M30.23 -9.75 C40.25 -6.11, 50.27 -2.46, 57.03 0 M30.23 -9.75 C39.13 -6.51, 48.02 -3.28, 57.03 0" stroke="#000000" stroke-width="2" fill="none"/></g></g><g stroke-linecap="round"><g transform="translate(693.1035322434223 1629.1576770194301) rotate(0 0 126.12126636606911)"><path d="M0 0 C0 42.04, 0 210.2, 0 252.24 M0 0 C0 42.04, 0 210.2, 0 252.24" stroke="#000000" stroke-width="2" fill="none"/></g></g><g stroke-linecap="round"><g transform="translate(691.9101189153166 1880.1100897594101) rotate(0 -73.47934649153592 0)"><path d="M0 0 C-24.49 0, -122.47 0, -146.96 0 M0 0 C-24.49 0, -122.47 0, -146.96 0" stroke="#000000" stroke-width="2" fill="none"/></g><g transform="translate(691.9101189153166 1880.1100897594101) rotate(0 -73.47934649153592 0)"><path d="M-118.77 -10.26 C-126.9 -7.3, -135.04 -4.34, -146.96 0 M-118.77 -10.26 C-128.09 -6.87, -137.41 -3.48, -146.96 0" stroke="#000000" stroke-width="2" fill="none"/></g><g transform="translate(691.9101189153166 1880.1100897594101) rotate(0 -73.47934649153592 0)"><path d="M-118.77 10.26 C-126.9 7.3, -135.04 4.34, -146.96 0 M-118.77 10.26 C-128.09 6.87, -137.41 3.48, -146.96 0" stroke="#000000" stroke-width="2" fill="none"/></g></g><g stroke-linecap="round"><g transform="translate(336.5771597622179 1916.3014096731513) rotate(0 0 55.383686534665)"><path d="M0 0 C0 18.46, 0 92.31, 0 110.77 M0 0 C0 18.46, 0 92.31, 0 110.77" stroke="#000000" stroke-width="2" fill="none"/></g><g transform="translate(336.5771597622179 1916.3014096731513) rotate(0 0 55.383686534665)"><path d="M-10.26 82.58 C-6.48 92.96, -2.7 103.34, 0 110.77 M-10.26 82.58 C-6.18 93.79, -2.1 105.01, 0 110.77" stroke="#000000" stroke-width="2" fill="none"/></g><g transform="translate(336.5771597622179 1916.3014096731513) rotate(0 0 55.383686534665)"><path d="M10.26 82.58 C6.48 92.96, 2.7 103.34, 0 110.77 M10.26 82.58 C6.18 93.79, 2.1 105.01, 0 110.77" stroke="#000000" stroke-width="2" fill="none"/></g></g><g stroke-linecap="round"><g transform="translate(336.5771597622179 1966.749916219579) rotate(0 -123.92785303796347 0)"><path d="M0 0 C-41.31 0, -206.55 0, -247.86 0 M0 0 C-41.31 0, -206.55 0, -247.86 0" stroke="#000000" stroke-width="2" fill="none"/></g></g><g stroke-linecap="round"><g transform="translate(88.72145368629072 1965.6532095555262) rotate(0 0 -259.3711260484811)"><path d="M0 0 C0 -86.46, 0 -432.29, 0 -518.74 M0 0 C0 -86.46, 0 -432.29, 0 -518.74" stroke="#000000" stroke-width="2" fill="none"/></g></g><g stroke-linecap="round"><g transform="translate(88.6247470222379 1446.910957458564) rotate(0 71.8342864954567 0)"><path d="M0 0 C23.94 0, 119.72 0, 143.67 0 M0 0 C23.94 0, 119.72 0, 143.67 0" stroke="#000000" stroke-width="2" fill="none"/></g><g transform="translate(88.6247470222379 1446.910957458564) rotate(0 71.8342864954567 0)"><path d="M115.48 10.26 C124.28 7.06, 133.09 3.85, 143.67 0 M115.48 10.26 C124.74 6.89, 134.01 3.52, 143.67 0" stroke="#000000" stroke-width="2" fill="none"/></g><g transform="translate(88.6247470222379 1446.910957458564) rotate(0 71.8342864954567 0)"><path d="M115.48 -10.26 C124.28 -7.06, 133.09 -3.85, 143.67 0 M115.48 -10.26 C124.74 -6.89, 134.01 -3.52, 143.67 0" stroke="#000000" stroke-width="2" fill="none"/></g></g><g stroke-linecap="round" transform="translate(10 1104.5454545454545) rotate(0 557.2727272727271 509.9999999999999)"><path d="M0 0 C288.9 0, 577.8 0, 1114.55 0 M0 0 C372.44 0, 744.88 0, 1114.55 0 M1114.55 0 C1114.55 241.93, 1114.55 483.85, 1114.55 1020 M1114.55 0 C1114.55 210.54, 1114.55 421.07, 1114.55 1020 M1114.55 1020 C830.47 1020, 546.39 1020, 0 1020 M1114.55 1020 C745.26 1020, 375.98 1020, 0 1020 M0 1020 C0 684.1, 0 348.21, 0 0 M0 1020 C0 650.21, 0 280.43, 0 0" stroke="#000000" stroke-width="2" fill="none"/></g><g stroke-linecap="round" transform="translate(11.818181818181756 10) rotate(0 558.1818181818182 510)"><path d="M0 0 C267.82 0, 535.65 0, 1116.36 0 M0 0 C291.8 0, 583.61 0, 1116.36 0 M1116.36 0 C1116.36 360.08, 1116.36 720.16, 1116.36 1020 M1116.36 0 C1116.36 303.08, 1116.36 606.17, 1116.36 1020 M1116.36 1020 C887.08 1020, 657.79 1020, 0 1020 M1116.36 1020 C778.61 1020, 440.86 1020, 0 1020 M0 1020 C0 766.84, 0 513.69, 0 0 M0 1020 C0 624.59, 0 229.19, 0 0" stroke="#000000" stroke-width="2" fill="none"/></g></svg>