<svg version="1.1" xmlns="http://www.w3.org/2000/svg" viewBox="0 0 1031.3499069046268 503.8176697776316" width="2062.6998138092536" height="1007.6353395552632">
  <!-- svg-source:excalidraw -->
  
  <defs>
    <style>
      @font-face {
        font-family: "Virgil";
        src: url("https://unpkg.com/@zsviczian/excalidraw@0.12.0-obsidian-8/dist/excalidraw-assets/Virgil.woff2");
      }
      @font-face {
        font-family: "Cascadia";
        src: url("https://unpkg.com/@zsviczian/excalidraw@0.12.0-obsidian-8/dist/excalidraw-assets/Cascadia.woff2");
      }
    </style>
  </defs>
  <rect x="0" y="0" width="1031.3499069046268" height="503.8176697776316" fill="#ffffff"/><g stroke-opacity="0.6" fill-opacity="0.6" stroke-linecap="round" transform="translate(10 35.931932742447685) rotate(0 221.9655305080907 224.86278541816347)"><path d="M443.93 224.86 C443.93 229.77, 443.77 234.68, 443.46 239.57 C443.14 244.46, 442.66 249.35, 442.03 254.21 C441.4 259.07, 440.61 263.92, 439.67 268.73 C438.72 273.54, 437.62 278.33, 436.37 283.06 C435.12 287.8, 433.71 292.5, 432.15 297.14 C430.6 301.78, 428.89 306.38, 427.03 310.91 C425.18 315.44, 423.18 319.92, 421.04 324.32 C418.9 328.71, 416.61 333.05, 414.19 337.29 C411.77 341.54, 409.21 345.71, 406.52 349.79 C403.83 353.87, 401.01 357.86, 398.06 361.75 C395.12 365.64, 392.04 369.44, 388.85 373.13 C385.66 376.81, 382.34 380.4, 378.92 383.86 C375.5 387.33, 371.96 390.69, 368.32 393.92 C364.68 397.16, 360.93 400.27, 357.09 403.26 C353.25 406.24, 349.31 409.11, 345.28 411.83 C341.26 414.55, 337.14 417.15, 332.95 419.6 C328.76 422.05, 324.48 424.37, 320.14 426.54 C315.8 428.7, 311.38 430.73, 306.91 432.61 C302.44 434.48, 297.9 436.22, 293.31 437.79 C288.73 439.37, 284.09 440.79, 279.41 442.06 C274.74 443.33, 270.01 444.45, 265.27 445.4 C260.52 446.36, 255.74 447.16, 250.94 447.8 C246.14 448.44, 241.31 448.92, 236.48 449.24 C231.65 449.56, 226.8 449.73, 221.97 449.73 C217.13 449.73, 212.28 449.56, 207.45 449.24 C202.62 448.92, 197.79 448.44, 192.99 447.8 C188.2 447.16, 183.41 446.36, 178.66 445.4 C173.92 444.45, 169.19 443.33, 164.52 442.06 C159.84 440.79, 155.2 439.37, 150.62 437.79 C146.03 436.22, 141.49 434.48, 137.02 432.61 C132.55 430.73, 128.13 428.7, 123.79 426.54 C119.45 424.37, 115.17 422.05, 110.98 419.6 C106.79 417.15, 102.67 414.55, 98.65 411.83 C94.62 409.11, 90.68 406.24, 86.84 403.26 C83 400.27, 79.25 397.16, 75.61 393.92 C71.98 390.69, 68.43 387.33, 65.01 383.86 C61.59 380.4, 58.27 376.81, 55.08 373.13 C51.89 369.44, 48.81 365.64, 45.87 361.75 C42.92 357.86, 40.1 353.87, 37.41 349.79 C34.72 345.71, 32.16 341.54, 29.74 337.29 C27.32 333.05, 25.03 328.71, 22.89 324.32 C20.75 319.92, 18.75 315.44, 16.9 310.91 C15.04 306.38, 13.34 301.78, 11.78 297.14 C10.22 292.5, 8.82 287.8, 7.56 283.06 C6.31 278.33, 5.21 273.54, 4.27 268.73 C3.32 263.92, 2.53 259.07, 1.9 254.21 C1.27 249.35, 0.79 244.46, 0.48 239.57 C0.16 234.68, 0 229.77, 0 224.86 C0 219.96, 0.16 215.05, 0.48 210.16 C0.79 205.26, 1.27 200.37, 1.9 195.51 C2.53 190.65, 3.32 185.8, 4.27 180.99 C5.21 176.19, 6.31 171.4, 7.56 166.66 C8.82 161.93, 10.22 157.23, 11.78 152.58 C13.34 147.94, 15.04 143.34, 16.9 138.81 C18.75 134.28, 20.75 129.81, 22.89 125.41 C25.03 121.01, 27.32 116.68, 29.74 112.43 C32.16 108.19, 34.72 104.01, 37.41 99.94 C40.1 95.86, 42.92 91.86, 45.87 87.97 C48.81 84.09, 51.89 80.29, 55.08 76.6 C58.27 72.91, 61.59 69.33, 65.01 65.86 C68.43 62.39, 71.98 59.03, 75.61 55.8 C79.25 52.57, 83 49.45, 86.84 46.47 C90.68 43.48, 94.62 40.62, 98.65 37.9 C102.67 35.17, 106.79 32.58, 110.98 30.13 C115.17 27.67, 119.45 25.36, 123.79 23.19 C128.13 21.02, 132.55 18.99, 137.02 17.12 C141.49 15.24, 146.03 13.51, 150.62 11.93 C155.2 10.36, 159.84 8.93, 164.52 7.66 C169.19 6.39, 173.92 5.28, 178.66 4.32 C183.41 3.36, 188.2 2.56, 192.99 1.92 C197.79 1.28, 202.62 0.8, 207.45 0.48 C212.28 0.16, 217.13 0, 221.97 0 C226.8 0, 231.65 0.16, 236.48 0.48 C241.31 0.8, 246.14 1.28, 250.94 1.92 C255.74 2.56, 260.52 3.36, 265.27 4.32 C270.01 5.28, 274.74 6.39, 279.41 7.66 C284.09 8.93, 288.73 10.36, 293.31 11.93 C297.9 13.51, 302.44 15.24, 306.91 17.12 C311.38 18.99, 315.8 21.02, 320.14 23.19 C324.48 25.36, 328.76 27.67, 332.95 30.13 C337.14 32.58, 341.26 35.17, 345.28 37.9 C349.31 40.62, 353.25 43.48, 357.09 46.47 C360.93 49.45, 364.68 52.57, 368.32 55.8 C371.96 59.03, 375.5 62.39, 378.92 65.86 C382.34 69.33, 385.66 72.91, 388.85 76.6 C392.04 80.29, 395.12 84.09, 398.06 87.97 C401.01 91.86, 403.83 95.86, 406.52 99.94 C409.21 104.01, 411.77 108.19, 414.19 112.43 C416.61 116.68, 418.9 121.01, 421.04 125.41 C423.18 129.81, 425.18 134.28, 427.03 138.81 C428.89 143.34, 430.6 147.94, 432.15 152.58 C433.71 157.23, 435.12 161.93, 436.37 166.66 C437.62 171.4, 438.72 176.19, 439.67 180.99 C440.61 185.8, 441.4 190.65, 442.03 195.51 C442.66 200.37, 443.14 205.26, 443.46 210.16 C443.77 215.05, 443.93 219.96, 443.93 224.86" stroke="none" stroke-width="0" fill="#ced4da"/><path d="M443.93 224.86 C443.93 229.77, 443.77 234.68, 443.46 239.57 C443.14 244.46, 442.66 249.35, 442.03 254.21 C441.4 259.07, 440.61 263.92, 439.67 268.73 C438.72 273.54, 437.62 278.33, 436.37 283.06 C435.12 287.8, 433.71 292.5, 432.15 297.14 C430.6 301.78, 428.89 306.38, 427.03 310.91 C425.18 315.44, 423.18 319.92, 421.04 324.32 C418.9 328.71, 416.61 333.05, 414.19 337.29 C411.77 341.54, 409.21 345.71, 406.52 349.79 C403.83 353.87, 401.01 357.86, 398.06 361.75 C395.12 365.64, 392.04 369.44, 388.85 373.13 C385.66 376.81, 382.34 380.4, 378.92 383.86 C375.5 387.33, 371.96 390.69, 368.32 393.92 C364.68 397.16, 360.93 400.27, 357.09 403.26 C353.25 406.24, 349.31 409.11, 345.28 411.83 C341.26 414.55, 337.14 417.15, 332.95 419.6 C328.76 422.05, 324.48 424.37, 320.14 426.54 C315.8 428.7, 311.38 430.73, 306.91 432.61 C302.44 434.48, 297.9 436.22, 293.31 437.79 C288.73 439.37, 284.09 440.79, 279.41 442.06 C274.74 443.33, 270.01 444.45, 265.27 445.4 C260.52 446.36, 255.74 447.16, 250.94 447.8 C246.14 448.44, 241.31 448.92, 236.48 449.24 C231.65 449.56, 226.8 449.73, 221.97 449.73 C217.13 449.73, 212.28 449.56, 207.45 449.24 C202.62 448.92, 197.79 448.44, 192.99 447.8 C188.2 447.16, 183.41 446.36, 178.66 445.4 C173.92 444.45, 169.19 443.33, 164.52 442.06 C159.84 440.79, 155.2 439.37, 150.62 437.79 C146.03 436.22, 141.49 434.48, 137.02 432.61 C132.55 430.73, 128.13 428.7, 123.79 426.54 C119.45 424.37, 115.17 422.05, 110.98 419.6 C106.79 417.15, 102.67 414.55, 98.65 411.83 C94.62 409.11, 90.68 406.24, 86.84 403.26 C83 400.27, 79.25 397.16, 75.61 393.92 C71.98 390.69, 68.43 387.33, 65.01 383.86 C61.59 380.4, 58.27 376.81, 55.08 373.13 C51.89 369.44, 48.81 365.64, 45.87 361.75 C42.92 357.86, 40.1 353.87, 37.41 349.79 C34.72 345.71, 32.16 341.54, 29.74 337.29 C27.32 333.05, 25.03 328.71, 22.89 324.32 C20.75 319.92, 18.75 315.44, 16.9 310.91 C15.04 306.38, 13.34 301.78, 11.78 297.14 C10.22 292.5, 8.82 287.8, 7.56 283.06 C6.31 278.33, 5.21 273.54, 4.27 268.73 C3.32 263.92, 2.53 259.07, 1.9 254.21 C1.27 249.35, 0.79 244.46, 0.48 239.57 C0.16 234.68, 0 229.77, 0 224.86 C0 219.96, 0.16 215.05, 0.48 210.16 C0.79 205.26, 1.27 200.37, 1.9 195.51 C2.53 190.65, 3.32 185.8, 4.27 180.99 C5.21 176.19, 6.31 171.4, 7.56 166.66 C8.82 161.93, 10.22 157.23, 11.78 152.58 C13.34 147.94, 15.04 143.34, 16.9 138.81 C18.75 134.28, 20.75 129.81, 22.89 125.41 C25.03 121.01, 27.32 116.68, 29.74 112.43 C32.16 108.19, 34.72 104.01, 37.41 99.94 C40.1 95.86, 42.92 91.86, 45.87 87.97 C48.81 84.09, 51.89 80.29, 55.08 76.6 C58.27 72.91, 61.59 69.33, 65.01 65.86 C68.43 62.39, 71.98 59.03, 75.61 55.8 C79.25 52.57, 83 49.45, 86.84 46.47 C90.68 43.48, 94.62 40.62, 98.65 37.9 C102.67 35.17, 106.79 32.58, 110.98 30.13 C115.17 27.67, 119.45 25.36, 123.79 23.19 C128.13 21.02, 132.55 18.99, 137.02 17.12 C141.49 15.24, 146.03 13.51, 150.62 11.93 C155.2 10.36, 159.84 8.93, 164.52 7.66 C169.19 6.39, 173.92 5.28, 178.66 4.32 C183.41 3.36, 188.2 2.56, 192.99 1.92 C197.79 1.28, 202.62 0.8, 207.45 0.48 C212.28 0.16, 217.13 0, 221.97 0 C226.8 0, 231.65 0.16, 236.48 0.48 C241.31 0.8, 246.14 1.28, 250.94 1.92 C255.74 2.56, 260.52 3.36, 265.27 4.32 C270.01 5.28, 274.74 6.39, 279.41 7.66 C284.09 8.93, 288.73 10.36, 293.31 11.93 C297.9 13.51, 302.44 15.24, 306.91 17.12 C311.38 18.99, 315.8 21.02, 320.14 23.19 C324.48 25.36, 328.76 27.67, 332.95 30.13 C337.14 32.58, 341.26 35.17, 345.28 37.9 C349.31 40.62, 353.25 43.48, 357.09 46.47 C360.93 49.45, 364.68 52.57, 368.32 55.8 C371.96 59.03, 375.5 62.39, 378.92 65.86 C382.34 69.33, 385.66 72.91, 388.85 76.6 C392.04 80.29, 395.12 84.09, 398.06 87.97 C401.01 91.86, 403.83 95.86, 406.52 99.94 C409.21 104.01, 411.77 108.19, 414.19 112.43 C416.61 116.68, 418.9 121.01, 421.04 125.41 C423.18 129.81, 425.18 134.28, 427.03 138.81 C428.89 143.34, 430.6 147.94, 432.15 152.58 C433.71 157.23, 435.12 161.93, 436.37 166.66 C437.62 171.4, 438.72 176.19, 439.67 180.99 C440.61 185.8, 441.4 190.65, 442.03 195.51 C442.66 200.37, 443.14 205.26, 443.46 210.16 C443.77 215.05, 443.93 219.96, 443.93 224.86" stroke="#ced4da" stroke-width="0.5" fill="none"/></g><g stroke-linecap="round" transform="translate(162.0332963650562 245.56289241684442) rotate(0 8.146484375 8.24609375)"><path d="M0 0 L16.29 0 L16.29 16.49 L0 16.49" stroke="none" stroke-width="0" fill="#d9480f"/><path d="M0 0 C5.85 0, 11.7 0, 16.29 0 M0 0 C3.65 0, 7.3 0, 16.29 0 M16.29 0 C16.29 3.47, 16.29 6.93, 16.29 16.49 M16.29 0 C16.29 4.2, 16.29 8.4, 16.29 16.49 M16.29 16.49 C12.26 16.49, 8.22 16.49, 0 16.49 M16.29 16.49 C10.08 16.49, 3.87 16.49, 0 16.49 M0 16.49 C0 10.89, 0 5.28, 0 0 M0 16.49 C0 12.47, 0 8.44, 0 0" stroke="#d9480f" stroke-width="2" fill="none"/></g><g stroke-linecap="round" transform="translate(232.86871064301621 198.12312613006452) rotate(0 8.044921875 8.640625)"><path d="M0 0 L16.09 0 L16.09 17.28 L0 17.28" stroke="none" stroke-width="0" fill="#d9480f"/><path d="M0 0 C4.04 0, 8.07 0, 16.09 0 M0 0 C6.13 0, 12.27 0, 16.09 0 M16.09 0 C16.09 4.83, 16.09 9.66, 16.09 17.28 M16.09 0 C16.09 6.63, 16.09 13.27, 16.09 17.28 M16.09 17.28 C12.35 17.28, 8.62 17.28, 0 17.28 M16.09 17.28 C12.72 17.28, 9.34 17.28, 0 17.28 M0 17.28 C0 13.69, 0 10.1, 0 0 M0 17.28 C0 13.18, 0 9.09, 0 0" stroke="#d9480f" stroke-width="2" fill="none"/></g><g stroke-linecap="round" transform="translate(136.05562957317846 357.91497449606106) rotate(0 7.83984375 7.630859375)"><path d="M0 0 C4.5 0, 9 0, 15.68 0 M0 0 C5.14 0, 10.28 0, 15.68 0 M15.68 0 C15.68 4.16, 15.68 8.31, 15.68 15.26 M15.68 0 C15.68 5.86, 15.68 11.72, 15.68 15.26 M15.68 15.26 C10.94 15.26, 6.21 15.26, 0 15.26 M15.68 15.26 C9.86 15.26, 4.03 15.26, 0 15.26 M0 15.26 C0 10.92, 0 6.57, 0 0 M0 15.26 C0 9.91, 0 4.57, 0 0" stroke="#000000" stroke-width="2" fill="none"/></g><g stroke-linecap="round" transform="translate(293.4854677679577 412.1075477174305) rotate(0 9.28125 14.259765625)"><path d="M10 0 L18.56 15 L10 28.52 L0 15" stroke="none" stroke-width="0" fill="#364fc7" fill-rule="evenodd"/><path d="M10 0 C12.46 4.31, 14.92 8.62, 18.56 15 M10 0 C11.79 3.14, 13.59 6.28, 18.56 15 M18.56 15 C16.01 19.03, 13.45 23.07, 10 28.52 M18.56 15 C15.31 20.14, 12.05 25.28, 10 28.52 M10 28.52 C6.71 24.07, 3.41 19.61, 0 15 M10 28.52 C7.85 25.62, 5.7 22.71, 0 15 M0 15 C2.07 11.89, 4.14 8.79, 10 0 M0 15 C2.36 11.46, 4.72 7.92, 10 0" stroke="#364fc7" stroke-width="2" fill="none"/></g><g stroke-linecap="round" transform="translate(187.2375348339661 68.91532614622332) rotate(0 9.28125 14.259765625)"><path d="M10 0 L18.56 15 L10 28.52 L0 15" stroke="none" stroke-width="0" fill="#364fc7" fill-rule="evenodd"/><path d="M10 0 C12.98 5.22, 15.95 10.43, 18.56 15 M10 0 C12.2 3.86, 14.4 7.71, 18.56 15 M18.56 15 C16.67 17.98, 14.79 20.96, 10 28.52 M18.56 15 C16.47 18.3, 14.38 21.61, 10 28.52 M10 28.52 C6.01 23.12, 2.02 17.73, 0 15 M10 28.52 C6.9 24.32, 3.79 20.12, 0 15 M0 15 C2.25 11.62, 4.51 8.24, 10 0 M0 15 C2.54 11.19, 5.08 7.38, 10 0" stroke="#364fc7" stroke-width="2" fill="none"/></g><g stroke-linecap="round" transform="translate(234.5109723339661 260.1789980212233) rotate(0 1.1023962186966418 1.154296875)"><path d="M2.2 1.15 C2.2 1.22, 2.2 1.29, 2.19 1.35 C2.18 1.42, 2.16 1.49, 2.14 1.55 C2.12 1.61, 2.09 1.67, 2.06 1.73 C2.03 1.79, 1.99 1.85, 1.95 1.9 C1.91 1.95, 1.86 2, 1.81 2.04 C1.76 2.08, 1.71 2.12, 1.65 2.15 C1.6 2.19, 1.54 2.22, 1.48 2.24 C1.42 2.26, 1.36 2.28, 1.29 2.29 C1.23 2.3, 1.17 2.31, 1.1 2.31 C1.04 2.31, 0.97 2.3, 0.91 2.29 C0.85 2.28, 0.79 2.26, 0.73 2.24 C0.67 2.22, 0.61 2.19, 0.55 2.15 C0.5 2.12, 0.44 2.08, 0.39 2.04 C0.34 2, 0.3 1.95, 0.26 1.9 C0.22 1.85, 0.18 1.79, 0.15 1.73 C0.12 1.67, 0.09 1.61, 0.07 1.55 C0.04 1.49, 0.03 1.42, 0.02 1.35 C0.01 1.29, 0 1.22, 0 1.15 C0 1.09, 0.01 1.02, 0.02 0.95 C0.03 0.89, 0.04 0.82, 0.07 0.76 C0.09 0.7, 0.12 0.64, 0.15 0.58 C0.18 0.52, 0.22 0.46, 0.26 0.41 C0.3 0.36, 0.34 0.31, 0.39 0.27 C0.44 0.23, 0.5 0.19, 0.55 0.15 C0.61 0.12, 0.67 0.09, 0.73 0.07 C0.79 0.05, 0.85 0.03, 0.91 0.02 C0.97 0.01, 1.04 0, 1.1 0 C1.17 0, 1.23 0.01, 1.29 0.02 C1.36 0.03, 1.42 0.05, 1.48 0.07 C1.54 0.09, 1.6 0.12, 1.65 0.15 C1.71 0.19, 1.76 0.23, 1.81 0.27 C1.86 0.31, 1.91 0.36, 1.95 0.41 C1.99 0.46, 2.03 0.52, 2.06 0.58 C2.09 0.64, 2.12 0.7, 2.14 0.76 C2.16 0.82, 2.18 0.89, 2.19 0.95 C2.2 1.02, 2.2 1.12, 2.2 1.15 C2.21 1.19, 2.21 1.12, 2.2 1.15" stroke="none" stroke-width="0" fill="#000000"/><path d="M2.2 1.15 C2.2 1.22, 2.2 1.29, 2.19 1.35 C2.18 1.42, 2.16 1.49, 2.14 1.55 C2.12 1.61, 2.09 1.67, 2.06 1.73 C2.03 1.79, 1.99 1.85, 1.95 1.9 C1.91 1.95, 1.86 2, 1.81 2.04 C1.76 2.08, 1.71 2.12, 1.65 2.15 C1.6 2.19, 1.54 2.22, 1.48 2.24 C1.42 2.26, 1.36 2.28, 1.29 2.29 C1.23 2.3, 1.17 2.31, 1.1 2.31 C1.04 2.31, 0.97 2.3, 0.91 2.29 C0.85 2.28, 0.79 2.26, 0.73 2.24 C0.67 2.22, 0.61 2.19, 0.55 2.15 C0.5 2.12, 0.44 2.08, 0.39 2.04 C0.34 2, 0.3 1.95, 0.26 1.9 C0.22 1.85, 0.18 1.79, 0.15 1.73 C0.12 1.67, 0.09 1.61, 0.07 1.55 C0.04 1.49, 0.03 1.42, 0.02 1.35 C0.01 1.29, 0 1.22, 0 1.15 C0 1.09, 0.01 1.02, 0.02 0.95 C0.03 0.89, 0.04 0.82, 0.07 0.76 C0.09 0.7, 0.12 0.64, 0.15 0.58 C0.18 0.52, 0.22 0.46, 0.26 0.41 C0.3 0.36, 0.34 0.31, 0.39 0.27 C0.44 0.23, 0.5 0.19, 0.55 0.15 C0.61 0.12, 0.67 0.09, 0.73 0.07 C0.79 0.05, 0.85 0.03, 0.91 0.02 C0.97 0.01, 1.04 0, 1.1 0 C1.17 0, 1.23 0.01, 1.29 0.02 C1.36 0.03, 1.42 0.05, 1.48 0.07 C1.54 0.09, 1.6 0.12, 1.65 0.15 C1.71 0.19, 1.76 0.23, 1.81 0.27 C1.86 0.31, 1.91 0.36, 1.95 0.41 C1.99 0.46, 2.03 0.52, 2.06 0.58 C2.09 0.64, 2.12 0.7, 2.14 0.76 C2.16 0.82, 2.18 0.89, 2.19 0.95 C2.2 1.02, 2.2 1.12, 2.2 1.15 C2.21 1.19, 2.21 1.12, 2.2 1.15" stroke="#000000" stroke-width="2" fill="none"/></g><g stroke-linecap="round" transform="translate(158.9875348339661 184.38212302122332) rotate(0 75.083984375 76.59375)"><path d="M150.17 76.59 C150.17 79.45, 150.01 82.33, 149.7 85.17 C149.38 88.01, 148.91 90.85, 148.29 93.64 C147.66 96.42, 146.88 99.19, 145.95 101.89 C145.03 104.59, 143.95 107.25, 142.73 109.83 C141.52 112.4, 140.15 114.92, 138.66 117.34 C137.17 119.76, 135.53 122.11, 133.79 124.35 C132.04 126.58, 130.16 128.73, 128.18 130.75 C126.19 132.78, 124.09 134.69, 121.9 136.48 C119.71 138.26, 117.4 139.93, 115.03 141.45 C112.66 142.97, 110.19 144.36, 107.66 145.6 C105.14 146.84, 102.53 147.95, 99.88 148.89 C97.24 149.83, 94.52 150.63, 91.79 151.27 C89.06 151.9, 86.28 152.39, 83.49 152.71 C80.71 153.03, 77.89 153.19, 75.08 153.19 C72.28 153.19, 69.46 153.03, 66.68 152.71 C63.89 152.39, 61.11 151.9, 58.38 151.27 C55.64 150.63, 52.93 149.83, 50.29 148.89 C47.64 147.95, 45.03 146.84, 42.51 145.6 C39.98 144.36, 37.51 142.97, 35.14 141.45 C32.76 139.93, 30.46 138.26, 28.27 136.48 C26.08 134.69, 23.97 132.78, 21.99 130.75 C20.01 128.73, 18.13 126.58, 16.38 124.35 C14.63 122.11, 13 119.76, 11.51 117.34 C10.02 114.92, 8.65 112.4, 7.44 109.83 C6.22 107.25, 5.14 104.59, 4.21 101.89 C3.29 99.19, 2.51 96.42, 1.88 93.64 C1.26 90.85, 0.79 88.01, 0.47 85.17 C0.16 82.33, 0 79.45, 0 76.59 C0 73.74, 0.16 70.86, 0.47 68.02 C0.79 65.18, 1.26 62.34, 1.88 59.55 C2.51 56.76, 3.29 53.99, 4.21 51.3 C5.14 48.6, 6.22 45.94, 7.44 43.36 C8.65 40.79, 10.02 38.26, 11.51 35.84 C13 33.42, 14.63 31.07, 16.38 28.84 C18.13 26.6, 20.01 24.46, 21.99 22.43 C23.97 20.41, 26.08 18.49, 28.27 16.71 C30.46 14.93, 32.76 13.26, 35.14 11.74 C37.51 10.22, 39.98 8.83, 42.51 7.59 C45.03 6.34, 47.64 5.24, 50.29 4.3 C52.93 3.35, 55.64 2.56, 58.38 1.92 C61.11 1.28, 63.89 0.8, 66.68 0.48 C69.46 0.16, 72.28 0, 75.08 0 C77.89 0, 80.71 0.16, 83.49 0.48 C86.28 0.8, 89.06 1.28, 91.79 1.92 C94.52 2.56, 97.24 3.35, 99.88 4.3 C102.53 5.24, 105.14 6.34, 107.66 7.59 C110.19 8.83, 112.66 10.22, 115.03 11.74 C117.4 13.26, 119.71 14.93, 121.9 16.71 C124.09 18.49, 126.19 20.41, 128.18 22.43 C130.16 24.46, 132.04 26.6, 133.79 28.84 C135.53 31.07, 137.17 33.42, 138.66 35.84 C140.15 38.26, 141.52 40.79, 142.73 43.36 C143.95 45.94, 145.03 48.6, 145.95 51.3 C146.88 53.99, 147.66 56.76, 148.29 59.55 C148.91 62.34, 149.38 65.18, 149.7 68.02 C150.01 70.86, 150.09 75.16, 150.17 76.59 C150.25 78.02, 150.25 75.16, 150.17 76.59" stroke="#d9480f" stroke-width="2.5" fill="none" stroke-dasharray="1.5 8"/></g><g stroke-linecap="round" transform="translate(21.466333378110164 47.99863421255304) rotate(0 210.49222969389584 214.72474259750328)"><path d="M420.98 214.72 C420.98 219.41, 420.83 224.1, 420.53 228.77 C420.23 233.44, 419.78 238.11, 419.18 242.75 C418.58 247.39, 417.84 252.02, 416.94 256.62 C416.04 261.21, 415 265.78, 413.81 270.3 C412.62 274.82, 411.29 279.31, 409.81 283.75 C408.34 288.18, 406.72 292.57, 404.96 296.9 C403.21 301.22, 401.31 305.5, 399.28 309.7 C397.25 313.89, 395.08 318.03, 392.78 322.09 C390.49 326.14, 388.06 330.13, 385.51 334.02 C382.96 337.91, 380.28 341.73, 377.49 345.44 C374.69 349.15, 371.77 352.78, 368.75 356.3 C365.72 359.82, 362.58 363.25, 359.33 366.56 C356.09 369.87, 352.73 373.08, 349.28 376.16 C345.83 379.25, 342.27 382.23, 338.63 385.08 C334.99 387.93, 331.25 390.66, 327.44 393.26 C323.62 395.86, 319.71 398.34, 315.74 400.68 C311.76 403.02, 307.71 405.24, 303.59 407.31 C299.47 409.38, 295.28 411.31, 291.04 413.1 C286.8 414.9, 282.5 416.55, 278.15 418.05 C273.81 419.56, 269.4 420.92, 264.97 422.13 C260.54 423.34, 256.06 424.41, 251.56 425.32 C247.06 426.24, 242.52 427, 237.97 427.61 C233.42 428.22, 228.84 428.68, 224.26 428.99 C219.68 429.3, 215.08 429.45, 210.49 429.45 C205.9 429.45, 201.3 429.3, 196.73 428.99 C192.15 428.68, 187.57 428.22, 183.02 427.61 C178.47 427, 173.93 426.24, 169.43 425.32 C164.93 424.41, 160.45 423.34, 156.01 422.13 C151.58 420.92, 147.18 419.56, 142.83 418.05 C138.49 416.55, 134.18 414.9, 129.94 413.1 C125.7 411.31, 121.51 409.38, 117.39 407.31 C113.28 405.24, 109.22 403.02, 105.25 400.68 C101.27 398.34, 97.36 395.86, 93.55 393.26 C89.73 390.66, 85.99 387.93, 82.35 385.08 C78.71 382.23, 75.16 379.25, 71.71 376.16 C68.25 373.08, 64.9 369.87, 61.65 366.56 C58.41 363.25, 55.26 359.82, 52.24 356.3 C49.21 352.78, 46.29 349.15, 43.5 345.44 C40.7 341.73, 38.02 337.91, 35.47 334.02 C32.92 330.13, 30.5 326.14, 28.2 322.09 C25.91 318.03, 23.74 313.89, 21.71 309.7 C19.68 305.5, 17.78 301.22, 16.02 296.9 C14.27 292.57, 12.65 288.18, 11.17 283.75 C9.7 279.31, 8.36 274.82, 7.17 270.3 C5.98 265.78, 4.94 261.21, 4.04 256.62 C3.15 252.02, 2.4 247.39, 1.8 242.75 C1.2 238.11, 0.75 233.44, 0.45 228.77 C0.15 224.1, 0 219.41, 0 214.72 C0 210.04, 0.15 205.35, 0.45 200.68 C0.75 196.01, 1.2 191.34, 1.8 186.7 C2.4 182.06, 3.15 177.43, 4.04 172.83 C4.94 168.24, 5.98 163.67, 7.17 159.15 C8.36 154.63, 9.7 150.14, 11.17 145.7 C12.65 141.27, 14.27 136.88, 16.02 132.55 C17.78 128.23, 19.68 123.95, 21.71 119.75 C23.74 115.56, 25.91 111.42, 28.2 107.36 C30.5 103.31, 32.92 99.32, 35.47 95.43 C38.02 91.54, 40.7 87.72, 43.5 84.01 C46.29 80.29, 49.21 76.67, 52.24 73.15 C55.26 69.63, 58.41 66.2, 61.65 62.89 C64.9 59.58, 68.25 56.37, 71.71 53.29 C75.16 50.2, 78.71 47.22, 82.35 44.37 C85.99 41.52, 89.73 38.79, 93.55 36.19 C97.36 33.59, 101.27 31.11, 105.25 28.77 C109.22 26.43, 113.28 24.21, 117.39 22.14 C121.51 20.07, 125.7 18.14, 129.94 16.34 C134.18 14.55, 138.49 12.9, 142.83 11.4 C147.18 9.89, 151.58 8.53, 156.01 7.32 C160.45 6.1, 164.93 5.04, 169.43 4.13 C173.93 3.21, 178.47 2.45, 183.02 1.84 C187.57 1.23, 192.15 0.77, 196.73 0.46 C201.3 0.15, 205.9 0, 210.49 0 C215.08 0, 219.68 0.15, 224.26 0.46 C228.84 0.77, 233.42 1.23, 237.97 1.84 C242.52 2.45, 247.06 3.21, 251.56 4.13 C256.06 5.04, 260.54 6.1, 264.97 7.32 C269.4 8.53, 273.81 9.89, 278.15 11.4 C282.5 12.9, 286.8 14.55, 291.04 16.34 C295.28 18.14, 299.47 20.07, 303.59 22.14 C307.71 24.21, 311.76 26.43, 315.74 28.77 C319.71 31.11, 323.62 33.59, 327.44 36.19 C331.25 38.79, 334.99 41.52, 338.63 44.37 C342.27 47.22, 345.83 50.2, 349.28 53.29 C352.73 56.37, 356.09 59.58, 359.33 62.89 C362.58 66.2, 365.72 69.63, 368.75 73.15 C371.77 76.67, 374.69 80.29, 377.49 84.01 C380.28 87.72, 382.96 91.54, 385.51 95.43 C388.06 99.32, 390.49 103.31, 392.78 107.36 C395.08 111.42, 397.25 115.56, 399.28 119.75 C401.31 123.95, 403.21 128.23, 404.96 132.55 C406.72 136.88, 408.34 141.27, 409.81 145.7 C411.29 150.14, 412.62 154.63, 413.81 159.15 C415 163.67, 416.04 168.24, 416.94 172.83 C417.84 177.43, 418.58 182.06, 419.18 186.7 C419.78 191.34, 420.23 196.01, 420.53 200.68 C420.83 205.35, 420.98 210.04, 420.98 214.72" stroke="#364fc7" stroke-width="2.5" fill="none" stroke-dasharray="1.5 8"/></g><g transform="translate(258.2335174069643 274.0900464244989) rotate(0 23.5 11.5)"><text x="0" y="19" font-family="Helvetica, Segoe UI Emoji" font-size="20px" fill="#d9480f" text-anchor="start" style="white-space: pre;" direction="ltr">Near</text></g><g transform="translate(253.71168964250705 64.42588200989218) rotate(0 16.5 11.5)"><text x="0" y="19" font-family="Helvetica, Segoe UI Emoji" font-size="20px" fill="#364fc7" text-anchor="start" style="white-space: pre;" direction="ltr">Far</text></g><g stroke-linecap="round"><g transform="translate(232.6289673451463 260.33830908071536) rotate(0 -25.127630609923187 -7.989590187921653)"><path d="M0 0 C-8.38 -2.66, -41.88 -13.32, -50.26 -15.98 M0 0 C-8.38 -2.66, -41.88 -13.32, -50.26 -15.98" stroke="#000000" stroke-width="1" fill="none"/></g><g transform="translate(232.6289673451463 260.33830908071536) rotate(0 -25.127630609923187 -7.989590187921653)"><path d="M-23.91 -17.07 C-29.22 -16.85, -34.52 -16.63, -50.26 -15.98 M-23.91 -17.07 C-33.09 -16.69, -42.27 -16.31, -50.26 -15.98" stroke="#000000" stroke-width="1" fill="none"/></g><g transform="translate(232.6289673451463 260.33830908071536) rotate(0 -25.127630609923187 -7.989590187921653)"><path d="M-29.38 0.12 C-33.58 -3.12, -37.79 -6.36, -50.26 -15.98 M-29.38 0.12 C-36.65 -5.49, -43.93 -11.1, -50.26 -15.98" stroke="#000000" stroke-width="1" fill="none"/></g></g><g stroke-linecap="round"><g transform="translate(232.92455338353918 263.94321228129354) rotate(0 -38.896882000475586 47.14488254764612)"><path d="M0 0 C-12.97 15.71, -64.83 78.57, -77.79 94.29 M0 0 C-12.97 15.71, -64.83 78.57, -77.79 94.29" stroke="#000000" stroke-width="1" fill="none"/></g><g transform="translate(232.92455338353918 263.94321228129354) rotate(0 -38.896882000475586 47.14488254764612)"><path d="M-67.77 66.01 C-70.88 74.81, -74 83.6, -77.79 94.29 M-67.77 66.01 C-70.42 73.5, -73.07 80.98, -77.79 94.29" stroke="#000000" stroke-width="1" fill="none"/></g><g transform="translate(232.92455338353918 263.94321228129354) rotate(0 -38.896882000475586 47.14488254764612)"><path d="M-51.94 79.07 C-59.98 83.81, -68.02 88.54, -77.79 94.29 M-51.94 79.07 C-58.78 83.1, -65.62 87.13, -77.79 94.29" stroke="#000000" stroke-width="1" fill="none"/></g></g><g stroke-linecap="round"><g transform="translate(235.59514710524235 263.5366975404288) rotate(1.0554946922298438 30.2978171226628 75.89134682818333)"><path d="M0 0 C10.1 25.3, 50.5 126.49, 60.6 151.78 M0 0 C10.1 25.3, 50.5 126.49, 60.6 151.78" stroke="#000000" stroke-width="1" fill="none"/></g><g transform="translate(235.59514710524235 263.5366975404288) rotate(1.0554946922298438 30.2978171226628 75.89134682818333)"><path d="M40.61 129.41 C46.74 136.26, 52.86 143.12, 60.6 151.78 M40.61 129.41 C45.11 134.44, 49.61 139.47, 60.6 151.78" stroke="#000000" stroke-width="1" fill="none"/></g><g transform="translate(235.59514710524235 263.5366975404288) rotate(1.0554946922298438 30.2978171226628 75.89134682818333)"><path d="M59.67 121.8 C59.96 130.98, 60.24 140.17, 60.6 151.78 M59.67 121.8 C59.88 128.54, 60.09 135.29, 60.6 151.78" stroke="#000000" stroke-width="1" fill="none"/></g></g><g stroke-linecap="round"><g transform="translate(234.03288512604843 257.84158052070256) rotate(0 -17.56625390506954 -79.1796722747688)"><path d="M0 0 C-5.86 -26.39, -29.28 -131.97, -35.13 -158.36 M0 0 C-5.86 -26.39, -29.28 -131.97, -35.13 -158.36" stroke="#000000" stroke-width="1" fill="none"/></g><g transform="translate(234.03288512604843 257.84158052070256) rotate(0 -17.56625390506954 -79.1796722747688)"><path d="M-19.01 -133.06 C-24.54 -141.74, -30.07 -150.42, -35.13 -158.36 M-19.01 -133.06 C-23.88 -140.7, -28.74 -148.33, -35.13 -158.36" stroke="#000000" stroke-width="1" fill="none"/></g><g transform="translate(234.03288512604843 257.84158052070256) rotate(0 -17.56625390506954 -79.1796722747688)"><path d="M-39.04 -128.62 C-37.7 -138.82, -36.36 -149.02, -35.13 -158.36 M-39.04 -128.62 C-37.86 -137.59, -36.68 -146.57, -35.13 -158.36" stroke="#000000" stroke-width="1" fill="none"/></g></g><g stroke-linecap="round"><g transform="translate(236.90453199042028 258.0868755591646) rotate(0 2.3168532908456427 -20.381243505489053)"><path d="M0 0 C0.77 -6.79, 3.86 -33.97, 4.63 -40.76 M0 0 C0.77 -6.79, 3.86 -33.97, 4.63 -40.76" stroke="#000000" stroke-width="1" fill="none"/></g><g transform="translate(236.90453199042028 258.0868755591646) rotate(0 2.3168532908456427 -20.381243505489053)"><path d="M9.43 -20.82 C8.36 -25.27, 7.29 -29.71, 4.63 -40.76 M9.43 -20.82 C7.62 -28.36, 5.8 -35.9, 4.63 -40.76" stroke="#000000" stroke-width="1" fill="none"/></g><g transform="translate(236.90453199042028 258.0868755591646) rotate(0 2.3168532908456427 -20.381243505489053)"><path d="M-4.51 -22.4 C-2.47 -26.5, -0.43 -30.59, 4.63 -40.76 M-4.51 -22.4 C-1.06 -29.34, 2.4 -36.28, 4.63 -40.76" stroke="#000000" stroke-width="1" fill="none"/></g></g><g stroke-opacity="0.7" fill-opacity="0.7" stroke-linecap="round" transform="translate(570.9774145622742 44.09209894130464) rotate(0 221.96553050809072 224.86278541816347)"><path d="M443.93 224.86 C443.93 229.77, 443.77 234.68, 443.46 239.57 C443.14 244.46, 442.66 249.35, 442.03 254.21 C441.4 259.07, 440.61 263.92, 439.67 268.73 C438.72 273.54, 437.62 278.33, 436.37 283.06 C435.12 287.8, 433.71 292.5, 432.15 297.14 C430.6 301.78, 428.89 306.38, 427.03 310.91 C425.18 315.44, 423.18 319.92, 421.04 324.32 C418.9 328.71, 416.61 333.05, 414.19 337.29 C411.77 341.54, 409.21 345.71, 406.52 349.79 C403.83 353.87, 401.01 357.86, 398.06 361.75 C395.12 365.64, 392.04 369.44, 388.85 373.13 C385.66 376.81, 382.34 380.4, 378.92 383.86 C375.5 387.33, 371.96 390.69, 368.32 393.92 C364.68 397.16, 360.93 400.27, 357.09 403.26 C353.25 406.24, 349.31 409.11, 345.28 411.83 C341.26 414.55, 337.14 417.15, 332.95 419.6 C328.76 422.05, 324.48 424.37, 320.14 426.54 C315.8 428.7, 311.38 430.73, 306.91 432.61 C302.44 434.48, 297.9 436.22, 293.31 437.79 C288.73 439.37, 284.09 440.79, 279.41 442.06 C274.74 443.33, 270.01 444.45, 265.27 445.4 C260.52 446.36, 255.74 447.16, 250.94 447.8 C246.14 448.44, 241.31 448.92, 236.48 449.24 C231.65 449.56, 226.8 449.73, 221.97 449.73 C217.13 449.73, 212.28 449.56, 207.45 449.24 C202.62 448.92, 197.79 448.44, 192.99 447.8 C188.2 447.16, 183.41 446.36, 178.66 445.4 C173.92 444.45, 169.19 443.33, 164.52 442.06 C159.84 440.79, 155.2 439.37, 150.62 437.79 C146.03 436.22, 141.49 434.48, 137.02 432.61 C132.55 430.73, 128.13 428.7, 123.79 426.54 C119.45 424.37, 115.17 422.05, 110.98 419.6 C106.79 417.15, 102.67 414.55, 98.65 411.83 C94.62 409.11, 90.68 406.24, 86.84 403.26 C83 400.27, 79.25 397.16, 75.61 393.92 C71.98 390.69, 68.43 387.33, 65.01 383.86 C61.59 380.4, 58.27 376.81, 55.08 373.13 C51.89 369.44, 48.81 365.64, 45.87 361.75 C42.92 357.86, 40.1 353.87, 37.41 349.79 C34.72 345.71, 32.16 341.54, 29.74 337.29 C27.32 333.05, 25.03 328.71, 22.89 324.32 C20.75 319.92, 18.75 315.44, 16.9 310.91 C15.04 306.38, 13.34 301.78, 11.78 297.14 C10.22 292.5, 8.82 287.8, 7.56 283.06 C6.31 278.33, 5.21 273.54, 4.27 268.73 C3.32 263.92, 2.53 259.07, 1.9 254.21 C1.27 249.35, 0.79 244.46, 0.48 239.57 C0.16 234.68, 0 229.77, 0 224.86 C0 219.96, 0.16 215.05, 0.48 210.16 C0.79 205.26, 1.27 200.37, 1.9 195.51 C2.53 190.65, 3.32 185.8, 4.27 180.99 C5.21 176.19, 6.31 171.4, 7.56 166.66 C8.82 161.93, 10.22 157.23, 11.78 152.58 C13.34 147.94, 15.04 143.34, 16.9 138.81 C18.75 134.28, 20.75 129.81, 22.89 125.41 C25.03 121.01, 27.32 116.68, 29.74 112.43 C32.16 108.19, 34.72 104.01, 37.41 99.94 C40.1 95.86, 42.92 91.86, 45.87 87.97 C48.81 84.09, 51.89 80.29, 55.08 76.6 C58.27 72.91, 61.59 69.33, 65.01 65.86 C68.43 62.39, 71.98 59.03, 75.61 55.8 C79.25 52.57, 83 49.45, 86.84 46.47 C90.68 43.48, 94.62 40.62, 98.65 37.9 C102.67 35.17, 106.79 32.58, 110.98 30.13 C115.17 27.67, 119.45 25.36, 123.79 23.19 C128.13 21.02, 132.55 18.99, 137.02 17.12 C141.49 15.24, 146.03 13.51, 150.62 11.93 C155.2 10.36, 159.84 8.93, 164.52 7.66 C169.19 6.39, 173.92 5.28, 178.66 4.32 C183.41 3.36, 188.2 2.56, 192.99 1.92 C197.79 1.28, 202.62 0.8, 207.45 0.48 C212.28 0.16, 217.13 0, 221.97 0 C226.8 0, 231.65 0.16, 236.48 0.48 C241.31 0.8, 246.14 1.28, 250.94 1.92 C255.74 2.56, 260.52 3.36, 265.27 4.32 C270.01 5.28, 274.74 6.39, 279.41 7.66 C284.09 8.93, 288.73 10.36, 293.31 11.93 C297.9 13.51, 302.44 15.24, 306.91 17.12 C311.38 18.99, 315.8 21.02, 320.14 23.19 C324.48 25.36, 328.76 27.67, 332.95 30.13 C337.14 32.58, 341.26 35.17, 345.28 37.9 C349.31 40.62, 353.25 43.48, 357.09 46.47 C360.93 49.45, 364.68 52.57, 368.32 55.8 C371.96 59.03, 375.5 62.39, 378.92 65.86 C382.34 69.33, 385.66 72.91, 388.85 76.6 C392.04 80.29, 395.12 84.09, 398.06 87.97 C401.01 91.86, 403.83 95.86, 406.52 99.94 C409.21 104.01, 411.77 108.19, 414.19 112.43 C416.61 116.68, 418.9 121.01, 421.04 125.41 C423.18 129.81, 425.18 134.28, 427.03 138.81 C428.89 143.34, 430.6 147.94, 432.15 152.58 C433.71 157.23, 435.12 161.93, 436.37 166.66 C437.62 171.4, 438.72 176.19, 439.67 180.99 C440.61 185.8, 441.4 190.65, 442.03 195.51 C442.66 200.37, 443.14 205.26, 443.46 210.16 C443.77 215.05, 443.93 219.96, 443.93 224.86" stroke="none" stroke-width="0" fill="#ced4da"/><path d="M443.93 224.86 C443.93 229.77, 443.77 234.68, 443.46 239.57 C443.14 244.46, 442.66 249.35, 442.03 254.21 C441.4 259.07, 440.61 263.92, 439.67 268.73 C438.72 273.54, 437.62 278.33, 436.37 283.06 C435.12 287.8, 433.71 292.5, 432.15 297.14 C430.6 301.78, 428.89 306.38, 427.03 310.91 C425.18 315.44, 423.18 319.92, 421.04 324.32 C418.9 328.71, 416.61 333.05, 414.19 337.29 C411.77 341.54, 409.21 345.71, 406.52 349.79 C403.83 353.87, 401.01 357.86, 398.06 361.75 C395.12 365.64, 392.04 369.44, 388.85 373.13 C385.66 376.81, 382.34 380.4, 378.92 383.86 C375.5 387.33, 371.96 390.69, 368.32 393.92 C364.68 397.16, 360.93 400.27, 357.09 403.26 C353.25 406.24, 349.31 409.11, 345.28 411.83 C341.26 414.55, 337.14 417.15, 332.95 419.6 C328.76 422.05, 324.48 424.37, 320.14 426.54 C315.8 428.7, 311.38 430.73, 306.91 432.61 C302.44 434.48, 297.9 436.22, 293.31 437.79 C288.73 439.37, 284.09 440.79, 279.41 442.06 C274.74 443.33, 270.01 444.45, 265.27 445.4 C260.52 446.36, 255.74 447.16, 250.94 447.8 C246.14 448.44, 241.31 448.92, 236.48 449.24 C231.65 449.56, 226.8 449.73, 221.97 449.73 C217.13 449.73, 212.28 449.56, 207.45 449.24 C202.62 448.92, 197.79 448.44, 192.99 447.8 C188.2 447.16, 183.41 446.36, 178.66 445.4 C173.92 444.45, 169.19 443.33, 164.52 442.06 C159.84 440.79, 155.2 439.37, 150.62 437.79 C146.03 436.22, 141.49 434.48, 137.02 432.61 C132.55 430.73, 128.13 428.7, 123.79 426.54 C119.45 424.37, 115.17 422.05, 110.98 419.6 C106.79 417.15, 102.67 414.55, 98.65 411.83 C94.62 409.11, 90.68 406.24, 86.84 403.26 C83 400.27, 79.25 397.16, 75.61 393.92 C71.98 390.69, 68.43 387.33, 65.01 383.86 C61.59 380.4, 58.27 376.81, 55.08 373.13 C51.89 369.44, 48.81 365.64, 45.87 361.75 C42.92 357.86, 40.1 353.87, 37.41 349.79 C34.72 345.71, 32.16 341.54, 29.74 337.29 C27.32 333.05, 25.03 328.71, 22.89 324.32 C20.75 319.92, 18.75 315.44, 16.9 310.91 C15.04 306.38, 13.34 301.78, 11.78 297.14 C10.22 292.5, 8.82 287.8, 7.56 283.06 C6.31 278.33, 5.21 273.54, 4.27 268.73 C3.32 263.92, 2.53 259.07, 1.9 254.21 C1.27 249.35, 0.79 244.46, 0.48 239.57 C0.16 234.68, 0 229.77, 0 224.86 C0 219.96, 0.16 215.05, 0.48 210.16 C0.79 205.26, 1.27 200.37, 1.9 195.51 C2.53 190.65, 3.32 185.8, 4.27 180.99 C5.21 176.19, 6.31 171.4, 7.56 166.66 C8.82 161.93, 10.22 157.23, 11.78 152.58 C13.34 147.94, 15.04 143.34, 16.9 138.81 C18.75 134.28, 20.75 129.81, 22.89 125.41 C25.03 121.01, 27.32 116.68, 29.74 112.43 C32.16 108.19, 34.72 104.01, 37.41 99.94 C40.1 95.86, 42.92 91.86, 45.87 87.97 C48.81 84.09, 51.89 80.29, 55.08 76.6 C58.27 72.91, 61.59 69.33, 65.01 65.86 C68.43 62.39, 71.98 59.03, 75.61 55.8 C79.25 52.57, 83 49.45, 86.84 46.47 C90.68 43.48, 94.62 40.62, 98.65 37.9 C102.67 35.17, 106.79 32.58, 110.98 30.13 C115.17 27.67, 119.45 25.36, 123.79 23.19 C128.13 21.02, 132.55 18.99, 137.02 17.12 C141.49 15.24, 146.03 13.51, 150.62 11.93 C155.2 10.36, 159.84 8.93, 164.52 7.66 C169.19 6.39, 173.92 5.28, 178.66 4.32 C183.41 3.36, 188.2 2.56, 192.99 1.92 C197.79 1.28, 202.62 0.8, 207.45 0.48 C212.28 0.16, 217.13 0, 221.97 0 C226.8 0, 231.65 0.16, 236.48 0.48 C241.31 0.8, 246.14 1.28, 250.94 1.92 C255.74 2.56, 260.52 3.36, 265.27 4.32 C270.01 5.28, 274.74 6.39, 279.41 7.66 C284.09 8.93, 288.73 10.36, 293.31 11.93 C297.9 13.51, 302.44 15.24, 306.91 17.12 C311.38 18.99, 315.8 21.02, 320.14 23.19 C324.48 25.36, 328.76 27.67, 332.95 30.13 C337.14 32.58, 341.26 35.17, 345.28 37.9 C349.31 40.62, 353.25 43.48, 357.09 46.47 C360.93 49.45, 364.68 52.57, 368.32 55.8 C371.96 59.03, 375.5 62.39, 378.92 65.86 C382.34 69.33, 385.66 72.91, 388.85 76.6 C392.04 80.29, 395.12 84.09, 398.06 87.97 C401.01 91.86, 403.83 95.86, 406.52 99.94 C409.21 104.01, 411.77 108.19, 414.19 112.43 C416.61 116.68, 418.9 121.01, 421.04 125.41 C423.18 129.81, 425.18 134.28, 427.03 138.81 C428.89 143.34, 430.6 147.94, 432.15 152.58 C433.71 157.23, 435.12 161.93, 436.37 166.66 C437.62 171.4, 438.72 176.19, 439.67 180.99 C440.61 185.8, 441.4 190.65, 442.03 195.51 C442.66 200.37, 443.14 205.26, 443.46 210.16 C443.77 215.05, 443.93 219.96, 443.93 224.86" stroke="#ced4da" stroke-width="0.5" fill="none"/></g><g stroke-linecap="round" transform="translate(723.0107109273305 253.72305861570138) rotate(0 8.146484375 8.24609375)"><path d="M0 0 L16.29 0 L16.29 16.49 L0 16.49" stroke="none" stroke-width="0" fill="#d9480f"/><path d="M0 0 C4.82 0, 9.64 0, 16.29 0 M0 0 C6.26 0, 12.51 0, 16.29 0 M16.29 0 C16.29 4.78, 16.29 9.56, 16.29 16.49 M16.29 0 C16.29 4.53, 16.29 9.05, 16.29 16.49 M16.29 16.49 C12.1 16.49, 7.91 16.49, 0 16.49 M16.29 16.49 C11.33 16.49, 6.36 16.49, 0 16.49 M0 16.49 C0 10.05, 0 3.61, 0 0 M0 16.49 C0 13.12, 0 9.74, 0 0" stroke="#d9480f" stroke-width="2" fill="none"/></g><g stroke-linecap="round" transform="translate(795.170319128357 208.26958321352132) rotate(0 8.044921875 8.640625)"><path d="M0 0 L16.09 0 L16.09 17.28 L0 17.28" stroke="none" stroke-width="0" fill="#d9480f"/><path d="M0 0 C4.28 0, 8.56 0, 16.09 0 M0 0 C5.92 0, 11.84 0, 16.09 0 M16.09 0 C16.09 6.73, 16.09 13.45, 16.09 17.28 M16.09 0 C16.09 4.01, 16.09 8.03, 16.09 17.28 M16.09 17.28 C12.26 17.28, 8.44 17.28, 0 17.28 M16.09 17.28 C11.82 17.28, 7.54 17.28, 0 17.28 M0 17.28 C0 13.14, 0 9, 0 0 M0 17.28 C0 12.91, 0 8.54, 0 0" stroke="#d9480f" stroke-width="2" fill="none"/></g><g stroke-linecap="round" transform="translate(697.0330441354527 366.075140694918) rotate(0 7.83984375 7.630859375)"><path d="M0 0 C5.04 0, 10.09 0, 15.68 0 M0 0 C5.81 0, 11.61 0, 15.68 0 M15.68 0 C15.68 5.59, 15.68 11.18, 15.68 15.26 M15.68 0 C15.68 4.64, 15.68 9.27, 15.68 15.26 M15.68 15.26 C11.26 15.26, 6.84 15.26, 0 15.26 M15.68 15.26 C10.35 15.26, 5.03 15.26, 0 15.26 M0 15.26 C0 9.34, 0 3.41, 0 0 M0 15.26 C0 11.11, 0 6.95, 0 0" stroke="#000000" stroke-width="2" fill="none"/></g><g stroke-linecap="round" transform="translate(862.4628823302319 415.27262625764297) rotate(0 9.28125 14.259765625)"><path d="M10 0 L18.56 15 L10 28.52 L0 15" stroke="none" stroke-width="0" fill="#364fc7" fill-rule="evenodd"/><path d="M10 0 C12.73 4.78, 15.45 9.55, 18.56 15 M10 0 C11.88 3.29, 13.75 6.58, 18.56 15 M18.56 15 C16.78 17.81, 15 20.62, 10 28.52 M18.56 15 C15.3 20.15, 12.04 25.3, 10 28.52 M10 28.52 C6.33 23.55, 2.65 18.59, 0 15 M10 28.52 C7.87 25.65, 5.75 22.77, 0 15 M0 15 C3.49 9.77, 6.97 4.54, 10 0 M0 15 C2.58 11.13, 5.16 7.26, 10 0" stroke="#364fc7" stroke-width="2" fill="none"/></g><g stroke-linecap="round" transform="translate(748.2149493962404 77.07549234508025) rotate(0 9.28125 14.259765625)"><path d="M10 0 L18.56 15 L10 28.52 L0 15" stroke="none" stroke-width="0" fill="#364fc7" fill-rule="evenodd"/><path d="M10 0 C12.95 5.16, 15.89 10.32, 18.56 15 M10 0 C12.8 4.9, 15.6 9.8, 18.56 15 M18.56 15 C16.47 18.3, 14.38 21.6, 10 28.52 M18.56 15 C15.48 19.87, 12.4 24.73, 10 28.52 M10 28.52 C7.67 25.38, 5.35 22.23, 0 15 M10 28.52 C6.85 24.27, 3.71 20.01, 0 15 M0 15 C2.79 10.82, 5.57 6.64, 10 0 M0 15 C3.78 9.33, 7.56 3.66, 10 0" stroke="#364fc7" stroke-width="2" fill="none"/></g><g stroke-opacity="0.7" fill-opacity="0.7" stroke-linecap="round" transform="translate(795.4883868962404 267.8543289758345) rotate(0 1.10239621869664 1.154296875)"><path d="M2.2 1.15 C2.2 1.22, 2.2 1.29, 2.19 1.35 C2.18 1.42, 2.16 1.49, 2.14 1.55 C2.12 1.61, 2.09 1.67, 2.06 1.73 C2.03 1.79, 1.99 1.85, 1.95 1.9 C1.91 1.95, 1.86 2, 1.81 2.04 C1.76 2.08, 1.71 2.12, 1.65 2.15 C1.6 2.19, 1.54 2.22, 1.48 2.24 C1.42 2.26, 1.36 2.28, 1.29 2.29 C1.23 2.3, 1.17 2.31, 1.1 2.31 C1.04 2.31, 0.97 2.3, 0.91 2.29 C0.85 2.28, 0.79 2.26, 0.73 2.24 C0.67 2.22, 0.61 2.19, 0.55 2.15 C0.5 2.12, 0.44 2.08, 0.39 2.04 C0.34 2, 0.3 1.95, 0.26 1.9 C0.22 1.85, 0.18 1.79, 0.15 1.73 C0.12 1.67, 0.09 1.61, 0.07 1.55 C0.04 1.49, 0.03 1.42, 0.02 1.35 C0.01 1.29, 0 1.22, 0 1.15 C0 1.09, 0.01 1.02, 0.02 0.95 C0.03 0.89, 0.04 0.82, 0.07 0.76 C0.09 0.7, 0.12 0.64, 0.15 0.58 C0.18 0.52, 0.22 0.46, 0.26 0.41 C0.3 0.36, 0.34 0.31, 0.39 0.27 C0.44 0.23, 0.5 0.19, 0.55 0.15 C0.61 0.12, 0.67 0.09, 0.73 0.07 C0.79 0.05, 0.85 0.03, 0.91 0.02 C0.97 0.01, 1.04 0, 1.1 0 C1.17 0, 1.23 0.01, 1.29 0.02 C1.36 0.03, 1.42 0.05, 1.48 0.07 C1.54 0.09, 1.6 0.12, 1.65 0.15 C1.71 0.19, 1.76 0.23, 1.81 0.27 C1.86 0.31, 1.91 0.36, 1.95 0.41 C1.99 0.46, 2.03 0.52, 2.06 0.58 C2.09 0.64, 2.12 0.7, 2.14 0.76 C2.16 0.82, 2.18 0.89, 2.19 0.95 C2.2 1.02, 2.2 1.12, 2.2 1.15 C2.21 1.19, 2.21 1.12, 2.2 1.15" stroke="none" stroke-width="0" fill="#40c057"/><path d="M2.2 1.15 C2.2 1.22, 2.2 1.29, 2.19 1.35 C2.18 1.42, 2.16 1.49, 2.14 1.55 C2.12 1.61, 2.09 1.67, 2.06 1.73 C2.03 1.79, 1.99 1.85, 1.95 1.9 C1.91 1.95, 1.86 2, 1.81 2.04 C1.76 2.08, 1.71 2.12, 1.65 2.15 C1.6 2.19, 1.54 2.22, 1.48 2.24 C1.42 2.26, 1.36 2.28, 1.29 2.29 C1.23 2.3, 1.17 2.31, 1.1 2.31 C1.04 2.31, 0.97 2.3, 0.91 2.29 C0.85 2.28, 0.79 2.26, 0.73 2.24 C0.67 2.22, 0.61 2.19, 0.55 2.15 C0.5 2.12, 0.44 2.08, 0.39 2.04 C0.34 2, 0.3 1.95, 0.26 1.9 C0.22 1.85, 0.18 1.79, 0.15 1.73 C0.12 1.67, 0.09 1.61, 0.07 1.55 C0.04 1.49, 0.03 1.42, 0.02 1.35 C0.01 1.29, 0 1.22, 0 1.15 C0 1.09, 0.01 1.02, 0.02 0.95 C0.03 0.89, 0.04 0.82, 0.07 0.76 C0.09 0.7, 0.12 0.64, 0.15 0.58 C0.18 0.52, 0.22 0.46, 0.26 0.41 C0.3 0.36, 0.34 0.31, 0.39 0.27 C0.44 0.23, 0.5 0.19, 0.55 0.15 C0.61 0.12, 0.67 0.09, 0.73 0.07 C0.79 0.05, 0.85 0.03, 0.91 0.02 C0.97 0.01, 1.04 0, 1.1 0 C1.17 0, 1.23 0.01, 1.29 0.02 C1.36 0.03, 1.42 0.05, 1.48 0.07 C1.54 0.09, 1.6 0.12, 1.65 0.15 C1.71 0.19, 1.76 0.23, 1.81 0.27 C1.86 0.31, 1.91 0.36, 1.95 0.41 C1.99 0.46, 2.03 0.52, 2.06 0.58 C2.09 0.64, 2.12 0.7, 2.14 0.76 C2.16 0.82, 2.18 0.89, 2.19 0.95 C2.2 1.02, 2.2 1.12, 2.2 1.15 C2.21 1.19, 2.21 1.12, 2.2 1.15" stroke="#5c940d" stroke-width="2" fill="none"/></g><g stroke-linecap="round"><g transform="translate(796.53232727304 218.99173626004676) rotate(0 -26.65437403354747 16.861635777433456)"><path d="M0 0 C-8.88 5.62, -44.42 28.1, -53.31 33.72 M0 0 C-8.88 5.62, -44.42 28.1, -53.31 33.72" stroke="#000000" stroke-width="1" fill="none"/></g><g transform="translate(796.53232727304 218.99173626004676) rotate(0 -26.65437403354747 16.861635777433456)"><path d="M-34.97 9.98 C-39.74 16.15, -44.51 22.33, -53.31 33.72 M-34.97 9.98 C-40.96 17.74, -46.96 25.5, -53.31 33.72" stroke="#000000" stroke-width="1" fill="none"/></g><g transform="translate(796.53232727304 218.99173626004676) rotate(0 -26.65437403354747 16.861635777433456)"><path d="M-24 27.32 C-31.62 28.99, -39.24 30.65, -53.31 33.72 M-24 27.32 C-33.58 29.41, -43.16 31.51, -53.31 33.72" stroke="#000000" stroke-width="1" fill="none"/></g></g><g stroke-linecap="round"><g transform="translate(800.6981908610139 221.66699380617214) rotate(0 -42.29499345807588 72.42512001592648)"><path d="M0 0 C-14.1 24.14, -70.49 120.71, -84.59 144.85 M0 0 C-14.1 24.14, -70.49 120.71, -84.59 144.85" stroke="#000000" stroke-width="1" fill="none"/></g><g transform="translate(800.6981908610139 221.66699380617214) rotate(0 -42.29499345807588 72.42512001592648)"><path d="M-79.23 115.33 C-81.29 126.67, -83.35 138, -84.59 144.85 M-79.23 115.33 C-80.79 123.89, -82.34 132.44, -84.59 144.85" stroke="#000000" stroke-width="1" fill="none"/></g><g transform="translate(800.6981908610139 221.66699380617214) rotate(0 -42.29499345807588 72.42512001592648)"><path d="M-61.51 125.68 C-70.37 133.04, -79.24 140.4, -84.59 144.85 M-61.51 125.68 C-68.2 131.24, -74.89 136.79, -84.59 144.85" stroke="#000000" stroke-width="1" fill="none"/></g></g><g stroke-linecap="round"><g transform="translate(808.4114771867032 221.5421259162856) rotate(1.0554946922298438 28.476715746724153 98.66073186039094)"><path d="M0 0 C9.49 32.89, 47.46 164.43, 56.95 197.32 M0 0 C9.49 32.89, 47.46 164.43, 56.95 197.32" stroke="#000000" stroke-width="1" fill="none"/></g><g transform="translate(808.4114771867032 221.5421259162856) rotate(1.0554946922298438 28.476715746724153 98.66073186039094)"><path d="M39.28 173.08 C45.78 182, 52.29 190.92, 56.95 197.32 M39.28 173.08 C46.16 182.52, 53.04 191.95, 56.95 197.32" stroke="#000000" stroke-width="1" fill="none"/></g><g transform="translate(808.4114771867032 221.5421259162856) rotate(1.0554946922298438 28.476715746724153 98.66073186039094)"><path d="M58.99 167.39 C58.24 178.41, 57.49 189.42, 56.95 197.32 M58.99 167.39 C58.2 179.04, 57.41 190.69, 56.95 197.32" stroke="#000000" stroke-width="1" fill="none"/></g></g><g stroke-linecap="round"><g transform="translate(800.8033038753545 210.26578313286257) rotate(0 -20.42539594319055 -51.37927126117807)"><path d="M0 0 C-6.81 -17.13, -34.04 -85.63, -40.85 -102.76 M0 0 C-6.81 -17.13, -34.04 -85.63, -40.85 -102.76" stroke="#000000" stroke-width="1" fill="none"/></g><g transform="translate(800.8033038753545 210.26578313286257) rotate(0 -20.42539594319055 -51.37927126117807)"><path d="M-20.9 -80.35 C-28.29 -88.65, -35.68 -96.95, -40.85 -102.76 M-20.9 -80.35 C-28.21 -88.56, -35.51 -96.76, -40.85 -102.76" stroke="#000000" stroke-width="1" fill="none"/></g><g transform="translate(800.8033038753545 210.26578313286257) rotate(0 -20.42539594319055 -51.37927126117807)"><path d="M-39.97 -72.77 C-40.3 -83.88, -40.62 -94.98, -40.85 -102.76 M-39.97 -72.77 C-40.29 -83.75, -40.62 -94.73, -40.85 -102.76" stroke="#000000" stroke-width="1" fill="none"/></g></g><g stroke-linecap="round" transform="translate(802.2315643610195 216.13115947706845) rotate(0 1.10239621869664 1.154296875)"><path d="M2.2 1.15 C2.2 1.22, 2.2 1.29, 2.19 1.35 C2.18 1.42, 2.16 1.49, 2.14 1.55 C2.12 1.61, 2.09 1.67, 2.06 1.73 C2.03 1.79, 1.99 1.85, 1.95 1.9 C1.91 1.95, 1.86 2, 1.81 2.04 C1.76 2.08, 1.71 2.12, 1.65 2.15 C1.6 2.19, 1.54 2.22, 1.48 2.24 C1.42 2.26, 1.36 2.28, 1.29 2.29 C1.23 2.3, 1.17 2.31, 1.1 2.31 C1.04 2.31, 0.97 2.3, 0.91 2.29 C0.85 2.28, 0.79 2.26, 0.73 2.24 C0.67 2.22, 0.61 2.19, 0.55 2.15 C0.5 2.12, 0.44 2.08, 0.39 2.04 C0.34 2, 0.3 1.95, 0.26 1.9 C0.22 1.85, 0.18 1.79, 0.15 1.73 C0.12 1.67, 0.09 1.61, 0.07 1.55 C0.04 1.49, 0.03 1.42, 0.02 1.35 C0.01 1.29, 0 1.22, 0 1.15 C0 1.09, 0.01 1.02, 0.02 0.95 C0.03 0.89, 0.04 0.82, 0.07 0.76 C0.09 0.7, 0.12 0.64, 0.15 0.58 C0.18 0.52, 0.22 0.46, 0.26 0.41 C0.3 0.36, 0.34 0.31, 0.39 0.27 C0.44 0.23, 0.5 0.19, 0.55 0.15 C0.61 0.12, 0.67 0.09, 0.73 0.07 C0.79 0.05, 0.85 0.03, 0.91 0.02 C0.97 0.01, 1.04 0, 1.1 0 C1.17 0, 1.23 0.01, 1.29 0.02 C1.36 0.03, 1.42 0.05, 1.48 0.07 C1.54 0.09, 1.6 0.12, 1.65 0.15 C1.71 0.19, 1.76 0.23, 1.81 0.27 C1.86 0.31, 1.91 0.36, 1.95 0.41 C1.99 0.46, 2.03 0.52, 2.06 0.58 C2.09 0.64, 2.12 0.7, 2.14 0.76 C2.16 0.82, 2.18 0.89, 2.19 0.95 C2.2 1.02, 2.2 1.12, 2.2 1.15 C2.21 1.19, 2.21 1.12, 2.2 1.15" stroke="none" stroke-width="0" fill="#40c057"/><path d="M2.2 1.15 C2.2 1.22, 2.2 1.29, 2.19 1.35 C2.18 1.42, 2.16 1.49, 2.14 1.55 C2.12 1.61, 2.09 1.67, 2.06 1.73 C2.03 1.79, 1.99 1.85, 1.95 1.9 C1.91 1.95, 1.86 2, 1.81 2.04 C1.76 2.08, 1.71 2.12, 1.65 2.15 C1.6 2.19, 1.54 2.22, 1.48 2.24 C1.42 2.26, 1.36 2.28, 1.29 2.29 C1.23 2.3, 1.17 2.31, 1.1 2.31 C1.04 2.31, 0.97 2.3, 0.91 2.29 C0.85 2.28, 0.79 2.26, 0.73 2.24 C0.67 2.22, 0.61 2.19, 0.55 2.15 C0.5 2.12, 0.44 2.08, 0.39 2.04 C0.34 2, 0.3 1.95, 0.26 1.9 C0.22 1.85, 0.18 1.79, 0.15 1.73 C0.12 1.67, 0.09 1.61, 0.07 1.55 C0.04 1.49, 0.03 1.42, 0.02 1.35 C0.01 1.29, 0 1.22, 0 1.15 C0 1.09, 0.01 1.02, 0.02 0.95 C0.03 0.89, 0.04 0.82, 0.07 0.76 C0.09 0.7, 0.12 0.64, 0.15 0.58 C0.18 0.52, 0.22 0.46, 0.26 0.41 C0.3 0.36, 0.34 0.31, 0.39 0.27 C0.44 0.23, 0.5 0.19, 0.55 0.15 C0.61 0.12, 0.67 0.09, 0.73 0.07 C0.79 0.05, 0.85 0.03, 0.91 0.02 C0.97 0.01, 1.04 0, 1.1 0 C1.17 0, 1.23 0.01, 1.29 0.02 C1.36 0.03, 1.42 0.05, 1.48 0.07 C1.54 0.09, 1.6 0.12, 1.65 0.15 C1.71 0.19, 1.76 0.23, 1.81 0.27 C1.86 0.31, 1.91 0.36, 1.95 0.41 C1.99 0.46, 2.03 0.52, 2.06 0.58 C2.09 0.64, 2.12 0.7, 2.14 0.76 C2.16 0.82, 2.18 0.89, 2.19 0.95 C2.2 1.02, 2.2 1.12, 2.2 1.15 C2.21 1.19, 2.21 1.12, 2.2 1.15" stroke="#5c940d" stroke-width="2" fill="none"/></g><g stroke-linecap="round"><g transform="translate(796.5159376487668 267.7083217536284) rotate(0 3.3938467097203784 -24.24176221228845)"><path d="M0 0 C1.13 -8.08, 5.66 -40.4, 6.79 -48.48" stroke="#5c940d" stroke-width="1.5" fill="none" stroke-dasharray="8 9"/></g><g transform="translate(796.5159376487668 267.7083217536284) rotate(0 3.3938467097203784 -24.24176221228845)"><path d="M11.89 -24.54 C10.68 -30.24, 9.46 -35.93, 6.79 -48.48" stroke="#5c940d" stroke-width="1.5" fill="none"/></g><g transform="translate(796.5159376487668 267.7083217536284) rotate(0 3.3938467097203784 -24.24176221228845)"><path d="M-4.69 -26.86 C-1.96 -32.01, 0.77 -37.15, 6.79 -48.48" stroke="#5c940d" stroke-width="1.5" fill="none"/></g></g><g stroke-linecap="round" transform="translate(577.4188458884454 10) rotate(0 221.96553050809072 224.86278541816347)"><path d="M443.93 224.86 C443.93 229.77, 443.77 234.68, 443.46 239.57 C443.14 244.46, 442.66 249.35, 442.03 254.21 C441.4 259.07, 440.61 263.92, 439.67 268.73 C438.72 273.54, 437.62 278.33, 436.37 283.06 C435.12 287.8, 433.71 292.5, 432.15 297.14 C430.6 301.78, 428.89 306.38, 427.03 310.91 C425.18 315.44, 423.18 319.92, 421.04 324.32 C418.9 328.71, 416.61 333.05, 414.19 337.29 C411.77 341.54, 409.21 345.71, 406.52 349.79 C403.83 353.87, 401.01 357.86, 398.06 361.75 C395.12 365.64, 392.04 369.44, 388.85 373.13 C385.66 376.81, 382.34 380.4, 378.92 383.86 C375.5 387.33, 371.96 390.69, 368.32 393.92 C364.68 397.16, 360.93 400.27, 357.09 403.26 C353.25 406.24, 349.31 409.11, 345.28 411.83 C341.26 414.55, 337.14 417.15, 332.95 419.6 C328.76 422.05, 324.48 424.37, 320.14 426.54 C315.8 428.7, 311.38 430.73, 306.91 432.61 C302.44 434.48, 297.9 436.22, 293.31 437.79 C288.73 439.37, 284.09 440.79, 279.41 442.06 C274.74 443.33, 270.01 444.45, 265.27 445.4 C260.52 446.36, 255.74 447.16, 250.94 447.8 C246.14 448.44, 241.31 448.92, 236.48 449.24 C231.65 449.56, 226.8 449.73, 221.97 449.73 C217.13 449.73, 212.28 449.56, 207.45 449.24 C202.62 448.92, 197.79 448.44, 192.99 447.8 C188.2 447.16, 183.41 446.36, 178.66 445.4 C173.92 444.45, 169.19 443.33, 164.52 442.06 C159.84 440.79, 155.2 439.37, 150.62 437.79 C146.03 436.22, 141.49 434.48, 137.02 432.61 C132.55 430.73, 128.13 428.7, 123.79 426.54 C119.45 424.37, 115.17 422.05, 110.98 419.6 C106.79 417.15, 102.67 414.55, 98.65 411.83 C94.62 409.11, 90.68 406.24, 86.84 403.26 C83 400.27, 79.25 397.16, 75.61 393.92 C71.98 390.69, 68.43 387.33, 65.01 383.86 C61.59 380.4, 58.27 376.81, 55.08 373.13 C51.89 369.44, 48.81 365.64, 45.87 361.75 C42.92 357.86, 40.1 353.87, 37.41 349.79 C34.72 345.71, 32.16 341.54, 29.74 337.29 C27.32 333.05, 25.03 328.71, 22.89 324.32 C20.75 319.92, 18.75 315.44, 16.9 310.91 C15.04 306.38, 13.34 301.78, 11.78 297.14 C10.22 292.5, 8.82 287.8, 7.56 283.06 C6.31 278.33, 5.21 273.54, 4.27 268.73 C3.32 263.92, 2.53 259.07, 1.9 254.21 C1.27 249.35, 0.79 244.46, 0.48 239.57 C0.16 234.68, 0 229.77, 0 224.86 C0 219.96, 0.16 215.05, 0.48 210.16 C0.79 205.26, 1.27 200.37, 1.9 195.51 C2.53 190.65, 3.32 185.8, 4.27 180.99 C5.21 176.19, 6.31 171.4, 7.56 166.66 C8.82 161.93, 10.22 157.23, 11.78 152.58 C13.34 147.94, 15.04 143.34, 16.9 138.81 C18.75 134.28, 20.75 129.81, 22.89 125.41 C25.03 121.01, 27.32 116.68, 29.74 112.43 C32.16 108.19, 34.72 104.01, 37.41 99.94 C40.1 95.86, 42.92 91.86, 45.87 87.97 C48.81 84.09, 51.89 80.29, 55.08 76.6 C58.27 72.91, 61.59 69.33, 65.01 65.86 C68.43 62.39, 71.98 59.03, 75.61 55.8 C79.25 52.57, 83 49.45, 86.84 46.47 C90.68 43.48, 94.62 40.62, 98.65 37.9 C102.67 35.17, 106.79 32.58, 110.98 30.13 C115.17 27.67, 119.45 25.36, 123.79 23.19 C128.13 21.02, 132.55 18.99, 137.02 17.12 C141.49 15.24, 146.03 13.51, 150.62 11.93 C155.2 10.36, 159.84 8.93, 164.52 7.66 C169.19 6.39, 173.92 5.28, 178.66 4.32 C183.41 3.36, 188.2 2.56, 192.99 1.92 C197.79 1.28, 202.62 0.8, 207.45 0.48 C212.28 0.16, 217.13 0, 221.97 0 C226.8 0, 231.65 0.16, 236.48 0.48 C241.31 0.8, 246.14 1.28, 250.94 1.92 C255.74 2.56, 260.52 3.36, 265.27 4.32 C270.01 5.28, 274.74 6.39, 279.41 7.66 C284.09 8.93, 288.73 10.36, 293.31 11.93 C297.9 13.51, 302.44 15.24, 306.91 17.12 C311.38 18.99, 315.8 21.02, 320.14 23.19 C324.48 25.36, 328.76 27.67, 332.95 30.13 C337.14 32.58, 341.26 35.17, 345.28 37.9 C349.31 40.62, 353.25 43.48, 357.09 46.47 C360.93 49.45, 364.68 52.57, 368.32 55.8 C371.96 59.03, 375.5 62.39, 378.92 65.86 C382.34 69.33, 385.66 72.91, 388.85 76.6 C392.04 80.29, 395.12 84.09, 398.06 87.97 C401.01 91.86, 403.83 95.86, 406.52 99.94 C409.21 104.01, 411.77 108.19, 414.19 112.43 C416.61 116.68, 418.9 121.01, 421.04 125.41 C423.18 129.81, 425.18 134.28, 427.03 138.81 C428.89 143.34, 430.6 147.94, 432.15 152.58 C433.71 157.23, 435.12 161.93, 436.37 166.66 C437.62 171.4, 438.72 176.19, 439.67 180.99 C440.61 185.8, 441.4 190.65, 442.03 195.51 C442.66 200.37, 443.14 205.26, 443.46 210.16 C443.77 215.05, 443.93 219.96, 443.93 224.86" stroke="#5c940d" stroke-width="2.5" fill="none" stroke-dasharray="8 10"/></g><g transform="translate(301.18436775338256 372.18313922189776) rotate(0 42 11.5)"><text x="0" y="17" font-family="Helvetica, Segoe UI Emoji" font-size="16px" fill="#000000" text-anchor="start" style="white-space: pre;" direction="ltr"></text></g><g transform="translate(766.8416201189802 420.74216822214913) rotate(0 42 11.5)"><text x="0" y="17" font-family="Helvetica, Segoe UI Emoji" font-size="16px" fill="#000000" text-anchor="start" style="white-space: pre;" direction="ltr"></text></g></svg>