<svg version="1.1" xmlns="http://www.w3.org/2000/svg" viewBox="0 0 1304.0024365005893 509.49628266884866" width="2608.0048730011786" height="1018.9925653376973">
  <!-- svg-source:excalidraw -->
  
  <defs>
    <style>
      @font-face {
        font-family: "Virgil";
        src: url("https://unpkg.com/@zsviczian/excalidraw@0.12.0-obsidian-7/dist/excalidraw-assets/Virgil.woff2");
      }
      @font-face {
        font-family: "Cascadia";
        src: url("https://unpkg.com/@zsviczian/excalidraw@0.12.0-obsidian-7/dist/excalidraw-assets/Cascadia.woff2");
      }
    </style>
  </defs>
  <rect x="0" y="0" width="1304.0024365005893" height="509.49628266884866" fill="#ffffff"></rect><g stroke-opacity="0.6" fill-opacity="0.6" stroke-linecap="round" transform="translate(153.14708716215705 44.75876560797127) rotate(0 221.9655305080907 224.86278541816347)"><path d="M443.93 224.86 C443.93 229.77, 443.77 234.68, 443.46 239.57 C443.14 244.46, 442.66 249.35, 442.03 254.21 C441.4 259.07, 440.61 263.92, 439.67 268.73 C438.72 273.54, 437.62 278.33, 436.37 283.06 C435.12 287.8, 433.71 292.5, 432.15 297.14 C430.6 301.78, 428.89 306.38, 427.03 310.91 C425.18 315.44, 423.18 319.92, 421.04 324.32 C418.9 328.71, 416.61 333.05, 414.19 337.29 C411.77 341.54, 409.21 345.71, 406.52 349.79 C403.83 353.87, 401.01 357.86, 398.06 361.75 C395.12 365.64, 392.04 369.44, 388.85 373.13 C385.66 376.81, 382.34 380.4, 378.92 383.86 C375.5 387.33, 371.96 390.69, 368.32 393.92 C364.68 397.16, 360.93 400.27, 357.09 403.26 C353.25 406.24, 349.31 409.11, 345.28 411.83 C341.26 414.55, 337.14 417.15, 332.95 419.6 C328.76 422.05, 324.48 424.37, 320.14 426.54 C315.8 428.7, 311.38 430.73, 306.91 432.61 C302.44 434.48, 297.9 436.22, 293.31 437.79 C288.73 439.37, 284.09 440.79, 279.41 442.06 C274.74 443.33, 270.01 444.45, 265.27 445.4 C260.52 446.36, 255.74 447.16, 250.94 447.8 C246.14 448.44, 241.31 448.92, 236.48 449.24 C231.65 449.56, 226.8 449.73, 221.97 449.73 C217.13 449.73, 212.28 449.56, 207.45 449.24 C202.62 448.92, 197.79 448.44, 192.99 447.8 C188.2 447.16, 183.41 446.36, 178.66 445.4 C173.92 444.45, 169.19 443.33, 164.52 442.06 C159.84 440.79, 155.2 439.37, 150.62 437.79 C146.03 436.22, 141.49 434.48, 137.02 432.61 C132.55 430.73, 128.13 428.7, 123.79 426.54 C119.45 424.37, 115.17 422.05, 110.98 419.6 C106.79 417.15, 102.67 414.55, 98.65 411.83 C94.62 409.11, 90.68 406.24, 86.84 403.26 C83 400.27, 79.25 397.16, 75.61 393.92 C71.98 390.69, 68.43 387.33, 65.01 383.86 C61.59 380.4, 58.27 376.81, 55.08 373.13 C51.89 369.44, 48.81 365.64, 45.87 361.75 C42.92 357.86, 40.1 353.87, 37.41 349.79 C34.72 345.71, 32.16 341.54, 29.74 337.29 C27.32 333.05, 25.03 328.71, 22.89 324.32 C20.75 319.92, 18.75 315.44, 16.9 310.91 C15.04 306.38, 13.34 301.78, 11.78 297.14 C10.22 292.5, 8.82 287.8, 7.56 283.06 C6.31 278.33, 5.21 273.54, 4.27 268.73 C3.32 263.92, 2.53 259.07, 1.9 254.21 C1.27 249.35, 0.79 244.46, 0.48 239.57 C0.16 234.68, 0 229.77, 0 224.86 C0 219.96, 0.16 215.05, 0.48 210.16 C0.79 205.26, 1.27 200.37, 1.9 195.51 C2.53 190.65, 3.32 185.8, 4.27 180.99 C5.21 176.19, 6.31 171.4, 7.56 166.66 C8.82 161.93, 10.22 157.23, 11.78 152.58 C13.34 147.94, 15.04 143.34, 16.9 138.81 C18.75 134.28, 20.75 129.81, 22.89 125.41 C25.03 121.01, 27.32 116.68, 29.74 112.43 C32.16 108.19, 34.72 104.01, 37.41 99.94 C40.1 95.86, 42.92 91.86, 45.87 87.97 C48.81 84.09, 51.89 80.29, 55.08 76.6 C58.27 72.91, 61.59 69.33, 65.01 65.86 C68.43 62.39, 71.98 59.03, 75.61 55.8 C79.25 52.57, 83 49.45, 86.84 46.47 C90.68 43.48, 94.62 40.62, 98.65 37.9 C102.67 35.17, 106.79 32.58, 110.98 30.13 C115.17 27.67, 119.45 25.36, 123.79 23.19 C128.13 21.02, 132.55 18.99, 137.02 17.12 C141.49 15.24, 146.03 13.51, 150.62 11.93 C155.2 10.36, 159.84 8.93, 164.52 7.66 C169.19 6.39, 173.92 5.28, 178.66 4.32 C183.41 3.36, 188.2 2.56, 192.99 1.92 C197.79 1.28, 202.62 0.8, 207.45 0.48 C212.28 0.16, 217.13 0, 221.97 0 C226.8 0, 231.65 0.16, 236.48 0.48 C241.31 0.8, 246.14 1.28, 250.94 1.92 C255.74 2.56, 260.52 3.36, 265.27 4.32 C270.01 5.28, 274.74 6.39, 279.41 7.66 C284.09 8.93, 288.73 10.36, 293.31 11.93 C297.9 13.51, 302.44 15.24, 306.91 17.12 C311.38 18.99, 315.8 21.02, 320.14 23.19 C324.48 25.36, 328.76 27.67, 332.95 30.13 C337.14 32.58, 341.26 35.17, 345.28 37.9 C349.31 40.62, 353.25 43.48, 357.09 46.47 C360.93 49.45, 364.68 52.57, 368.32 55.8 C371.96 59.03, 375.5 62.39, 378.92 65.86 C382.34 69.33, 385.66 72.91, 388.85 76.6 C392.04 80.29, 395.12 84.09, 398.06 87.97 C401.01 91.86, 403.83 95.86, 406.52 99.94 C409.21 104.01, 411.77 108.19, 414.19 112.43 C416.61 116.68, 418.9 121.01, 421.04 125.41 C423.18 129.81, 425.18 134.28, 427.03 138.81 C428.89 143.34, 430.6 147.94, 432.15 152.58 C433.71 157.23, 435.12 161.93, 436.37 166.66 C437.62 171.4, 438.72 176.19, 439.67 180.99 C440.61 185.8, 441.4 190.65, 442.03 195.51 C442.66 200.37, 443.14 205.26, 443.46 210.16 C443.77 215.05, 443.93 219.96, 443.93 224.86" stroke="none" stroke-width="0" fill="#ced4da"></path><path d="M443.93 224.86 C443.93 229.77, 443.77 234.68, 443.46 239.57 C443.14 244.46, 442.66 249.35, 442.03 254.21 C441.4 259.07, 440.61 263.92, 439.67 268.73 C438.72 273.54, 437.62 278.33, 436.37 283.06 C435.12 287.8, 433.71 292.5, 432.15 297.14 C430.6 301.78, 428.89 306.38, 427.03 310.91 C425.18 315.44, 423.18 319.92, 421.04 324.32 C418.9 328.71, 416.61 333.05, 414.19 337.29 C411.77 341.54, 409.21 345.71, 406.52 349.79 C403.83 353.87, 401.01 357.86, 398.06 361.75 C395.12 365.64, 392.04 369.44, 388.85 373.13 C385.66 376.81, 382.34 380.4, 378.92 383.86 C375.5 387.33, 371.96 390.69, 368.32 393.92 C364.68 397.16, 360.93 400.27, 357.09 403.26 C353.25 406.24, 349.31 409.11, 345.28 411.83 C341.26 414.55, 337.14 417.15, 332.95 419.6 C328.76 422.05, 324.48 424.37, 320.14 426.54 C315.8 428.7, 311.38 430.73, 306.91 432.61 C302.44 434.48, 297.9 436.22, 293.31 437.79 C288.73 439.37, 284.09 440.79, 279.41 442.06 C274.74 443.33, 270.01 444.45, 265.27 445.4 C260.52 446.36, 255.74 447.16, 250.94 447.8 C246.14 448.44, 241.31 448.92, 236.48 449.24 C231.65 449.56, 226.8 449.73, 221.97 449.73 C217.13 449.73, 212.28 449.56, 207.45 449.24 C202.62 448.92, 197.79 448.44, 192.99 447.8 C188.2 447.16, 183.41 446.36, 178.66 445.4 C173.92 444.45, 169.19 443.33, 164.52 442.06 C159.84 440.79, 155.2 439.37, 150.62 437.79 C146.03 436.22, 141.49 434.48, 137.02 432.61 C132.55 430.73, 128.13 428.7, 123.79 426.54 C119.45 424.37, 115.17 422.05, 110.98 419.6 C106.79 417.15, 102.67 414.55, 98.65 411.83 C94.62 409.11, 90.68 406.24, 86.84 403.26 C83 400.27, 79.25 397.16, 75.61 393.92 C71.98 390.69, 68.43 387.33, 65.01 383.86 C61.59 380.4, 58.27 376.81, 55.08 373.13 C51.89 369.44, 48.81 365.64, 45.87 361.75 C42.92 357.86, 40.1 353.87, 37.41 349.79 C34.72 345.71, 32.16 341.54, 29.74 337.29 C27.32 333.05, 25.03 328.71, 22.89 324.32 C20.75 319.92, 18.75 315.44, 16.9 310.91 C15.04 306.38, 13.34 301.78, 11.78 297.14 C10.22 292.5, 8.82 287.8, 7.56 283.06 C6.31 278.33, 5.21 273.54, 4.27 268.73 C3.32 263.92, 2.53 259.07, 1.9 254.21 C1.27 249.35, 0.79 244.46, 0.48 239.57 C0.16 234.68, 0 229.77, 0 224.86 C0 219.96, 0.16 215.05, 0.48 210.16 C0.79 205.26, 1.27 200.37, 1.9 195.51 C2.53 190.65, 3.32 185.8, 4.27 180.99 C5.21 176.19, 6.31 171.4, 7.56 166.66 C8.82 161.93, 10.22 157.23, 11.78 152.58 C13.34 147.94, 15.04 143.34, 16.9 138.81 C18.75 134.28, 20.75 129.81, 22.89 125.41 C25.03 121.01, 27.32 116.68, 29.74 112.43 C32.16 108.19, 34.72 104.01, 37.41 99.94 C40.1 95.86, 42.92 91.86, 45.87 87.97 C48.81 84.09, 51.89 80.29, 55.08 76.6 C58.27 72.91, 61.59 69.33, 65.01 65.86 C68.43 62.39, 71.98 59.03, 75.61 55.8 C79.25 52.57, 83 49.45, 86.84 46.47 C90.68 43.48, 94.62 40.62, 98.65 37.9 C102.67 35.17, 106.79 32.58, 110.98 30.13 C115.17 27.67, 119.45 25.36, 123.79 23.19 C128.13 21.02, 132.55 18.99, 137.02 17.12 C141.49 15.24, 146.03 13.51, 150.62 11.93 C155.2 10.36, 159.84 8.93, 164.52 7.66 C169.19 6.39, 173.92 5.28, 178.66 4.32 C183.41 3.36, 188.2 2.56, 192.99 1.92 C197.79 1.28, 202.62 0.8, 207.45 0.48 C212.28 0.16, 217.13 0, 221.97 0 C226.8 0, 231.65 0.16, 236.48 0.48 C241.31 0.8, 246.14 1.28, 250.94 1.92 C255.74 2.56, 260.52 3.36, 265.27 4.32 C270.01 5.28, 274.74 6.39, 279.41 7.66 C284.09 8.93, 288.73 10.36, 293.31 11.93 C297.9 13.51, 302.44 15.24, 306.91 17.12 C311.38 18.99, 315.8 21.02, 320.14 23.19 C324.48 25.36, 328.76 27.67, 332.95 30.13 C337.14 32.58, 341.26 35.17, 345.28 37.9 C349.31 40.62, 353.25 43.48, 357.09 46.47 C360.93 49.45, 364.68 52.57, 368.32 55.8 C371.96 59.03, 375.5 62.39, 378.92 65.86 C382.34 69.33, 385.66 72.91, 388.85 76.6 C392.04 80.29, 395.12 84.09, 398.06 87.97 C401.01 91.86, 403.83 95.86, 406.52 99.94 C409.21 104.01, 411.77 108.19, 414.19 112.43 C416.61 116.68, 418.9 121.01, 421.04 125.41 C423.18 129.81, 425.18 134.28, 427.03 138.81 C428.89 143.34, 430.6 147.94, 432.15 152.58 C433.71 157.23, 435.12 161.93, 436.37 166.66 C437.62 171.4, 438.72 176.19, 439.67 180.99 C440.61 185.8, 441.4 190.65, 442.03 195.51 C442.66 200.37, 443.14 205.26, 443.46 210.16 C443.77 215.05, 443.93 219.96, 443.93 224.86" stroke="#ced4da" stroke-width="0.5" fill="none"></path></g><g stroke-linecap="round" transform="translate(305.1803835272134 254.38972528236803) rotate(0 8.146484375 8.24609375)"><path d="M0 0 L16.29 0 L16.29 16.49 L0 16.49" stroke="none" stroke-width="0" fill="#d9480f"></path><path d="M0 0 C5.91 0, 11.81 0, 16.29 0 M0 0 C4 0, 7.99 0, 16.29 0 M16.29 0 C16.29 3.59, 16.29 7.18, 16.29 16.49 M16.29 0 C16.29 6.18, 16.29 12.35, 16.29 16.49 M16.29 16.49 C12.71 16.49, 9.12 16.49, 0 16.49 M16.29 16.49 C10.01 16.49, 3.72 16.49, 0 16.49 M0 16.49 C0 10.56, 0 4.64, 0 0 M0 16.49 C0 10.86, 0 5.24, 0 0" stroke="#d9480f" stroke-width="2" fill="none"></path></g><g stroke-linecap="round" transform="translate(377.33999172823985 208.93624988018797) rotate(0 8.044921875 8.640625)"><path d="M0 0 L16.09 0 L16.09 17.28 L0 17.28" stroke="none" stroke-width="0" fill="#d9480f"></path><path d="M0 0 C4.75 0, 9.49 0, 16.09 0 M0 0 C4.23 0, 8.46 0, 16.09 0 M16.09 0 C16.09 3.84, 16.09 7.68, 16.09 17.28 M16.09 0 C16.09 4.78, 16.09 9.56, 16.09 17.28 M16.09 17.28 C12.81 17.28, 9.53 17.28, 0 17.28 M16.09 17.28 C10.25 17.28, 4.41 17.28, 0 17.28 M0 17.28 C0 11.48, 0 5.68, 0 0 M0 17.28 C0 10.62, 0 3.95, 0 0" stroke="#d9480f" stroke-width="2" fill="none"></path></g><g stroke-linecap="round" transform="translate(279.20271673533557 366.7418073615847) rotate(0 7.83984375 7.630859375)"><path d="M0 0 C5.41 0, 10.83 0, 15.68 0 M0 0 C3.92 0, 7.83 0, 15.68 0 M15.68 0 C15.68 5.82, 15.68 11.65, 15.68 15.26 M15.68 0 C15.68 5.66, 15.68 11.31, 15.68 15.26 M15.68 15.26 C11.11 15.26, 6.54 15.26, 0 15.26 M15.68 15.26 C11.03 15.26, 6.39 15.26, 0 15.26 M0 15.26 C0 10.86, 0 6.46, 0 0 M0 15.26 C0 10.57, 0 5.88, 0 0" stroke="#000000" stroke-width="2" fill="none"></path></g><g stroke-linecap="round" transform="translate(444.6325549301148 444.6059595909763) rotate(0 9.28125 14.259765625)"><path d="M10 0 L18.56 15 L10 28.52 L0 15" stroke="none" stroke-width="0" fill="#364fc7" fill-rule="evenodd"></path><path d="M10 0 C11.84 3.22, 13.67 6.43, 18.56 15 M10 0 C12.23 3.9, 14.45 7.8, 18.56 15 M18.56 15 C15.3 20.15, 12.04 25.3, 10 28.52 M18.56 15 C15.43 19.95, 12.29 24.9, 10 28.52 M10 28.52 C6.9 24.32, 3.79 20.13, 0 15 M10 28.52 C6.81 24.21, 3.63 19.9, 0 15 M0 15 C2.75 10.87, 5.5 6.74, 10 0 M0 15 C2.36 11.46, 4.72 7.92, 10 0" stroke="#364fc7" stroke-width="2" fill="none"></path></g><g stroke-linecap="round" transform="translate(330.3846219961232 77.74215901174688) rotate(0 9.28125 14.259765625)"><path d="M10 0 L18.56 15 L10 28.52 L0 15" stroke="none" stroke-width="0" fill="#364fc7" fill-rule="evenodd"></path><path d="M10 0 C13.37 5.9, 16.74 11.81, 18.56 15 M10 0 C13.31 5.8, 16.62 11.6, 18.56 15 M18.56 15 C16.73 17.89, 14.9 20.79, 10 28.52 M18.56 15 C15.78 19.39, 13 23.78, 10 28.52 M10 28.52 C7.56 25.22, 5.12 21.92, 0 15 M10 28.52 C6.93 24.37, 3.86 20.22, 0 15 M0 15 C3.44 9.84, 6.88 4.67, 10 0 M0 15 C2.6 11.1, 5.2 7.2, 10 0" stroke="#364fc7" stroke-width="2" fill="none"></path></g><g stroke-linecap="round" transform="translate(377.6580594961232 268.5209956425012) rotate(0 1.10239621869664 1.154296875)"><path d="M2.2 1.15 C2.2 1.22, 2.2 1.29, 2.19 1.35 C2.18 1.42, 2.16 1.49, 2.14 1.55 C2.12 1.61, 2.09 1.67, 2.06 1.73 C2.03 1.79, 1.99 1.85, 1.95 1.9 C1.91 1.95, 1.86 2, 1.81 2.04 C1.76 2.08, 1.71 2.12, 1.65 2.15 C1.6 2.19, 1.54 2.22, 1.48 2.24 C1.42 2.26, 1.36 2.28, 1.29 2.29 C1.23 2.3, 1.17 2.31, 1.1 2.31 C1.04 2.31, 0.97 2.3, 0.91 2.29 C0.85 2.28, 0.79 2.26, 0.73 2.24 C0.67 2.22, 0.61 2.19, 0.55 2.15 C0.5 2.12, 0.44 2.08, 0.39 2.04 C0.34 2, 0.3 1.95, 0.26 1.9 C0.22 1.85, 0.18 1.79, 0.15 1.73 C0.12 1.67, 0.09 1.61, 0.07 1.55 C0.04 1.49, 0.03 1.42, 0.02 1.35 C0.01 1.29, 0 1.22, 0 1.15 C0 1.09, 0.01 1.02, 0.02 0.95 C0.03 0.89, 0.04 0.82, 0.07 0.76 C0.09 0.7, 0.12 0.64, 0.15 0.58 C0.18 0.52, 0.22 0.46, 0.26 0.41 C0.3 0.36, 0.34 0.31, 0.39 0.27 C0.44 0.23, 0.5 0.19, 0.55 0.15 C0.61 0.12, 0.67 0.09, 0.73 0.07 C0.79 0.05, 0.85 0.03, 0.91 0.02 C0.97 0.01, 1.04 0, 1.1 0 C1.17 0, 1.23 0.01, 1.29 0.02 C1.36 0.03, 1.42 0.05, 1.48 0.07 C1.54 0.09, 1.6 0.12, 1.65 0.15 C1.71 0.19, 1.76 0.23, 1.81 0.27 C1.86 0.31, 1.91 0.36, 1.95 0.41 C1.99 0.46, 2.03 0.52, 2.06 0.58 C2.09 0.64, 2.12 0.7, 2.14 0.76 C2.16 0.82, 2.18 0.89, 2.19 0.95 C2.2 1.02, 2.2 1.12, 2.2 1.15 C2.21 1.19, 2.21 1.12, 2.2 1.15" stroke="none" stroke-width="0" fill="#40c057"></path><path d="M2.2 1.15 C2.2 1.22, 2.2 1.29, 2.19 1.35 C2.18 1.42, 2.16 1.49, 2.14 1.55 C2.12 1.61, 2.09 1.67, 2.06 1.73 C2.03 1.79, 1.99 1.85, 1.95 1.9 C1.91 1.95, 1.86 2, 1.81 2.04 C1.76 2.08, 1.71 2.12, 1.65 2.15 C1.6 2.19, 1.54 2.22, 1.48 2.24 C1.42 2.26, 1.36 2.28, 1.29 2.29 C1.23 2.3, 1.17 2.31, 1.1 2.31 C1.04 2.31, 0.97 2.3, 0.91 2.29 C0.85 2.28, 0.79 2.26, 0.73 2.24 C0.67 2.22, 0.61 2.19, 0.55 2.15 C0.5 2.12, 0.44 2.08, 0.39 2.04 C0.34 2, 0.3 1.95, 0.26 1.9 C0.22 1.85, 0.18 1.79, 0.15 1.73 C0.12 1.67, 0.09 1.61, 0.07 1.55 C0.04 1.49, 0.03 1.42, 0.02 1.35 C0.01 1.29, 0 1.22, 0 1.15 C0 1.09, 0.01 1.02, 0.02 0.95 C0.03 0.89, 0.04 0.82, 0.07 0.76 C0.09 0.7, 0.12 0.64, 0.15 0.58 C0.18 0.52, 0.22 0.46, 0.26 0.41 C0.3 0.36, 0.34 0.31, 0.39 0.27 C0.44 0.23, 0.5 0.19, 0.55 0.15 C0.61 0.12, 0.67 0.09, 0.73 0.07 C0.79 0.05, 0.85 0.03, 0.91 0.02 C0.97 0.01, 1.04 0, 1.1 0 C1.17 0, 1.23 0.01, 1.29 0.02 C1.36 0.03, 1.42 0.05, 1.48 0.07 C1.54 0.09, 1.6 0.12, 1.65 0.15 C1.71 0.19, 1.76 0.23, 1.81 0.27 C1.86 0.31, 1.91 0.36, 1.95 0.41 C1.99 0.46, 2.03 0.52, 2.06 0.58 C2.09 0.64, 2.12 0.7, 2.14 0.76 C2.16 0.82, 2.18 0.89, 2.19 0.95 C2.2 1.02, 2.2 1.12, 2.2 1.15 C2.21 1.19, 2.21 1.12, 2.2 1.15" stroke="#5c940d" stroke-width="2" fill="none"></path></g><g stroke-linecap="round"><g transform="translate(378.7019998729229 219.65840292671345) rotate(0 -26.65437403354747 16.861635777433463)"><path d="M0 0 C-8.88 5.62, -44.42 28.1, -53.31 33.72 M0 0 C-8.88 5.62, -44.42 28.1, -53.31 33.72" stroke="#000000" stroke-width="1" fill="none"></path></g><g transform="translate(378.7019998729229 219.65840292671345) rotate(0 -26.65437403354747 16.861635777433463)"><path d="M-34.97 9.98 C-39.36 15.67, -43.76 21.36, -53.31 33.72 M-34.97 9.98 C-39.62 16, -44.27 22.02, -53.31 33.72" stroke="#000000" stroke-width="1" fill="none"></path></g><g transform="translate(378.7019998729229 219.65840292671345) rotate(0 -26.65437403354747 16.861635777433463)"><path d="M-24 27.32 C-31.02 28.86, -38.04 30.39, -53.31 33.72 M-24 27.32 C-31.43 28.95, -38.86 30.57, -53.31 33.72" stroke="#000000" stroke-width="1" fill="none"></path></g></g><g stroke-linecap="round"><g transform="translate(382.86786346089684 222.33366047283886) rotate(0 -42.29499345807588 72.4251200159265)"><path d="M0 0 C-14.1 24.14, -70.49 120.71, -84.59 144.85 M0 0 C-14.1 24.14, -70.49 120.71, -84.59 144.85" stroke="#000000" stroke-width="1" fill="none"></path></g><g transform="translate(382.86786346089684 222.33366047283886) rotate(0 -42.29499345807588 72.4251200159265)"><path d="M-79.23 115.33 C-80.49 122.25, -81.75 129.17, -84.59 144.85 M-79.23 115.33 C-81.25 126.46, -83.27 137.59, -84.59 144.85" stroke="#000000" stroke-width="1" fill="none"></path></g><g transform="translate(382.86786346089684 222.33366047283886) rotate(0 -42.29499345807588 72.4251200159265)"><path d="M-61.51 125.68 C-66.92 130.18, -72.33 134.67, -84.59 144.85 M-61.51 125.68 C-70.22 132.91, -78.92 140.14, -84.59 144.85" stroke="#000000" stroke-width="1" fill="none"></path></g></g><g stroke-linecap="round"><g transform="translate(390.21358658837846 222.41079462393014) rotate(1.0554946922298438 28.908481688867482 112.70811434370069)"><path d="M0 0 C9.64 37.57, 48.18 187.85, 57.82 225.42 M0 0 C9.64 37.57, 48.18 187.85, 57.82 225.42" stroke="#000000" stroke-width="4" fill="none"></path></g><g transform="translate(390.21358658837846 222.41079462393014) rotate(1.0554946922298438 28.908481688867482 112.70811434370069)"><path d="M40.87 200.66 C47.38 210.17, 53.9 219.69, 57.82 225.42 M40.87 200.66 C44.58 206.07, 48.28 211.49, 57.82 225.42" stroke="#000000" stroke-width="4" fill="none"></path></g><g transform="translate(390.21358658837846 222.41079462393014) rotate(1.0554946922298438 28.908481688867482 112.70811434370069)"><path d="M60.75 195.56 C59.62 207.03, 58.5 218.51, 57.82 225.42 M60.75 195.56 C60.11 202.09, 59.47 208.62, 57.82 225.42" stroke="#000000" stroke-width="4" fill="none"></path></g></g><g stroke-linecap="round"><g transform="translate(382.9729764752374 210.93244979952925) rotate(0 -20.42539594319055 -51.37927126117807)"><path d="M0 0 C-6.81 -17.13, -34.04 -85.63, -40.85 -102.76 M0 0 C-6.81 -17.13, -34.04 -85.63, -40.85 -102.76" stroke="#000000" stroke-width="1" fill="none"></path></g><g transform="translate(382.9729764752374 210.93244979952925) rotate(0 -20.42539594319055 -51.37927126117807)"><path d="M-20.9 -80.35 C-26.6 -86.75, -32.29 -93.15, -40.85 -102.76 M-20.9 -80.35 C-27.31 -87.55, -33.73 -94.76, -40.85 -102.76" stroke="#000000" stroke-width="1" fill="none"></path></g><g transform="translate(382.9729764752374 210.93244979952925) rotate(0 -20.42539594319055 -51.37927126117807)"><path d="M-39.97 -72.77 C-40.22 -81.33, -40.47 -89.89, -40.85 -102.76 M-39.97 -72.77 C-40.25 -82.41, -40.54 -92.05, -40.85 -102.76" stroke="#000000" stroke-width="1" fill="none"></path></g></g><g stroke-linecap="round" transform="translate(384.40123696090234 216.7978261437351) rotate(0 1.10239621869664 1.154296875)"><path d="M2.2 1.15 C2.2 1.22, 2.2 1.29, 2.19 1.35 C2.18 1.42, 2.16 1.49, 2.14 1.55 C2.12 1.61, 2.09 1.67, 2.06 1.73 C2.03 1.79, 1.99 1.85, 1.95 1.9 C1.91 1.95, 1.86 2, 1.81 2.04 C1.76 2.08, 1.71 2.12, 1.65 2.15 C1.6 2.19, 1.54 2.22, 1.48 2.24 C1.42 2.26, 1.36 2.28, 1.29 2.29 C1.23 2.3, 1.17 2.31, 1.1 2.31 C1.04 2.31, 0.97 2.3, 0.91 2.29 C0.85 2.28, 0.79 2.26, 0.73 2.24 C0.67 2.22, 0.61 2.19, 0.55 2.15 C0.5 2.12, 0.44 2.08, 0.39 2.04 C0.34 2, 0.3 1.95, 0.26 1.9 C0.22 1.85, 0.18 1.79, 0.15 1.73 C0.12 1.67, 0.09 1.61, 0.07 1.55 C0.04 1.49, 0.03 1.42, 0.02 1.35 C0.01 1.29, 0 1.22, 0 1.15 C0 1.09, 0.01 1.02, 0.02 0.95 C0.03 0.89, 0.04 0.82, 0.07 0.76 C0.09 0.7, 0.12 0.64, 0.15 0.58 C0.18 0.52, 0.22 0.46, 0.26 0.41 C0.3 0.36, 0.34 0.31, 0.39 0.27 C0.44 0.23, 0.5 0.19, 0.55 0.15 C0.61 0.12, 0.67 0.09, 0.73 0.07 C0.79 0.05, 0.85 0.03, 0.91 0.02 C0.97 0.01, 1.04 0, 1.1 0 C1.17 0, 1.23 0.01, 1.29 0.02 C1.36 0.03, 1.42 0.05, 1.48 0.07 C1.54 0.09, 1.6 0.12, 1.65 0.15 C1.71 0.19, 1.76 0.23, 1.81 0.27 C1.86 0.31, 1.91 0.36, 1.95 0.41 C1.99 0.46, 2.03 0.52, 2.06 0.58 C2.09 0.64, 2.12 0.7, 2.14 0.76 C2.16 0.82, 2.18 0.89, 2.19 0.95 C2.2 1.02, 2.2 1.12, 2.2 1.15 C2.21 1.19, 2.21 1.12, 2.2 1.15" stroke="none" stroke-width="0" fill="#40c057"></path><path d="M2.2 1.15 C2.2 1.22, 2.2 1.29, 2.19 1.35 C2.18 1.42, 2.16 1.49, 2.14 1.55 C2.12 1.61, 2.09 1.67, 2.06 1.73 C2.03 1.79, 1.99 1.85, 1.95 1.9 C1.91 1.95, 1.86 2, 1.81 2.04 C1.76 2.08, 1.71 2.12, 1.65 2.15 C1.6 2.19, 1.54 2.22, 1.48 2.24 C1.42 2.26, 1.36 2.28, 1.29 2.29 C1.23 2.3, 1.17 2.31, 1.1 2.31 C1.04 2.31, 0.97 2.3, 0.91 2.29 C0.85 2.28, 0.79 2.26, 0.73 2.24 C0.67 2.22, 0.61 2.19, 0.55 2.15 C0.5 2.12, 0.44 2.08, 0.39 2.04 C0.34 2, 0.3 1.95, 0.26 1.9 C0.22 1.85, 0.18 1.79, 0.15 1.73 C0.12 1.67, 0.09 1.61, 0.07 1.55 C0.04 1.49, 0.03 1.42, 0.02 1.35 C0.01 1.29, 0 1.22, 0 1.15 C0 1.09, 0.01 1.02, 0.02 0.95 C0.03 0.89, 0.04 0.82, 0.07 0.76 C0.09 0.7, 0.12 0.64, 0.15 0.58 C0.18 0.52, 0.22 0.46, 0.26 0.41 C0.3 0.36, 0.34 0.31, 0.39 0.27 C0.44 0.23, 0.5 0.19, 0.55 0.15 C0.61 0.12, 0.67 0.09, 0.73 0.07 C0.79 0.05, 0.85 0.03, 0.91 0.02 C0.97 0.01, 1.04 0, 1.1 0 C1.17 0, 1.23 0.01, 1.29 0.02 C1.36 0.03, 1.42 0.05, 1.48 0.07 C1.54 0.09, 1.6 0.12, 1.65 0.15 C1.71 0.19, 1.76 0.23, 1.81 0.27 C1.86 0.31, 1.91 0.36, 1.95 0.41 C1.99 0.46, 2.03 0.52, 2.06 0.58 C2.09 0.64, 2.12 0.7, 2.14 0.76 C2.16 0.82, 2.18 0.89, 2.19 0.95 C2.2 1.02, 2.2 1.12, 2.2 1.15 C2.21 1.19, 2.21 1.12, 2.2 1.15" stroke="#5c940d" stroke-width="2" fill="none"></path></g><g stroke-linecap="round"><g transform="translate(378.6856102486497 268.3749884202951) rotate(0 3.3938467097203784 -24.24176221228845)"><path d="M0 0 C1.13 -8.08, 5.66 -40.4, 6.79 -48.48" stroke="#5c940d" stroke-width="1.5" fill="none" stroke-dasharray="8 9"></path></g><g transform="translate(378.6856102486497 268.3749884202951) rotate(0 3.3938467097203784 -24.24176221228845)"><path d="M11.89 -24.54 C10.64 -30.41, 9.39 -36.28, 6.79 -48.48" stroke="#5c940d" stroke-width="1.5" fill="none"></path></g><g transform="translate(378.6856102486497 268.3749884202951) rotate(0 3.3938467097203784 -24.24176221228845)"><path d="M-4.69 -26.86 C-1.88 -32.17, 0.94 -37.47, 6.79 -48.48" stroke="#5c940d" stroke-width="1.5" fill="none"></path></g></g><g stroke-linecap="round" transform="translate(159.5885184883282 10) rotate(0 221.9655305080907 224.86278541816347)"><path d="M443.93 224.86 C443.93 229.77, 443.77 234.68, 443.46 239.57 C443.14 244.46, 442.66 249.35, 442.03 254.21 C441.4 259.07, 440.61 263.92, 439.67 268.73 C438.72 273.54, 437.62 278.33, 436.37 283.06 C435.12 287.8, 433.71 292.5, 432.15 297.14 C430.6 301.78, 428.89 306.38, 427.03 310.91 C425.18 315.44, 423.18 319.92, 421.04 324.32 C418.9 328.71, 416.61 333.05, 414.19 337.29 C411.77 341.54, 409.21 345.71, 406.52 349.79 C403.83 353.87, 401.01 357.86, 398.06 361.75 C395.12 365.64, 392.04 369.44, 388.85 373.13 C385.66 376.81, 382.34 380.4, 378.92 383.86 C375.5 387.33, 371.96 390.69, 368.32 393.92 C364.68 397.16, 360.93 400.27, 357.09 403.26 C353.25 406.24, 349.31 409.11, 345.28 411.83 C341.26 414.55, 337.14 417.15, 332.95 419.6 C328.76 422.05, 324.48 424.37, 320.14 426.54 C315.8 428.7, 311.38 430.73, 306.91 432.61 C302.44 434.48, 297.9 436.22, 293.31 437.79 C288.73 439.37, 284.09 440.79, 279.41 442.06 C274.74 443.33, 270.01 444.45, 265.27 445.4 C260.52 446.36, 255.74 447.16, 250.94 447.8 C246.14 448.44, 241.31 448.92, 236.48 449.24 C231.65 449.56, 226.8 449.73, 221.97 449.73 C217.13 449.73, 212.28 449.56, 207.45 449.24 C202.62 448.92, 197.79 448.44, 192.99 447.8 C188.2 447.16, 183.41 446.36, 178.66 445.4 C173.92 444.45, 169.19 443.33, 164.52 442.06 C159.84 440.79, 155.2 439.37, 150.62 437.79 C146.03 436.22, 141.49 434.48, 137.02 432.61 C132.55 430.73, 128.13 428.7, 123.79 426.54 C119.45 424.37, 115.17 422.05, 110.98 419.6 C106.79 417.15, 102.67 414.55, 98.65 411.83 C94.62 409.11, 90.68 406.24, 86.84 403.26 C83 400.27, 79.25 397.16, 75.61 393.92 C71.98 390.69, 68.43 387.33, 65.01 383.86 C61.59 380.4, 58.27 376.81, 55.08 373.13 C51.89 369.44, 48.81 365.64, 45.87 361.75 C42.92 357.86, 40.1 353.87, 37.41 349.79 C34.72 345.71, 32.16 341.54, 29.74 337.29 C27.32 333.05, 25.03 328.71, 22.89 324.32 C20.75 319.92, 18.75 315.44, 16.9 310.91 C15.04 306.38, 13.34 301.78, 11.78 297.14 C10.22 292.5, 8.82 287.8, 7.56 283.06 C6.31 278.33, 5.21 273.54, 4.27 268.73 C3.32 263.92, 2.53 259.07, 1.9 254.21 C1.27 249.35, 0.79 244.46, 0.48 239.57 C0.16 234.68, 0 229.77, 0 224.86 C0 219.96, 0.16 215.05, 0.48 210.16 C0.79 205.26, 1.27 200.37, 1.9 195.51 C2.53 190.65, 3.32 185.8, 4.27 180.99 C5.21 176.19, 6.31 171.4, 7.56 166.66 C8.82 161.93, 10.22 157.23, 11.78 152.58 C13.34 147.94, 15.04 143.34, 16.9 138.81 C18.75 134.28, 20.75 129.81, 22.89 125.41 C25.03 121.01, 27.32 116.68, 29.74 112.43 C32.16 108.19, 34.72 104.01, 37.41 99.94 C40.1 95.86, 42.92 91.86, 45.87 87.97 C48.81 84.09, 51.89 80.29, 55.08 76.6 C58.27 72.91, 61.59 69.33, 65.01 65.86 C68.43 62.39, 71.98 59.03, 75.61 55.8 C79.25 52.57, 83 49.45, 86.84 46.47 C90.68 43.48, 94.62 40.62, 98.65 37.9 C102.67 35.17, 106.79 32.58, 110.98 30.13 C115.17 27.67, 119.45 25.36, 123.79 23.19 C128.13 21.02, 132.55 18.99, 137.02 17.12 C141.49 15.24, 146.03 13.51, 150.62 11.93 C155.2 10.36, 159.84 8.93, 164.52 7.66 C169.19 6.39, 173.92 5.28, 178.66 4.32 C183.41 3.36, 188.2 2.56, 192.99 1.92 C197.79 1.28, 202.62 0.8, 207.45 0.48 C212.28 0.16, 217.13 0, 221.97 0 C226.8 0, 231.65 0.16, 236.48 0.48 C241.31 0.8, 246.14 1.28, 250.94 1.92 C255.74 2.56, 260.52 3.36, 265.27 4.32 C270.01 5.28, 274.74 6.39, 279.41 7.66 C284.09 8.93, 288.73 10.36, 293.31 11.93 C297.9 13.51, 302.44 15.24, 306.91 17.12 C311.38 18.99, 315.8 21.02, 320.14 23.19 C324.48 25.36, 328.76 27.67, 332.95 30.13 C337.14 32.58, 341.26 35.17, 345.28 37.9 C349.31 40.62, 353.25 43.48, 357.09 46.47 C360.93 49.45, 364.68 52.57, 368.32 55.8 C371.96 59.03, 375.5 62.39, 378.92 65.86 C382.34 69.33, 385.66 72.91, 388.85 76.6 C392.04 80.29, 395.12 84.09, 398.06 87.97 C401.01 91.86, 403.83 95.86, 406.52 99.94 C409.21 104.01, 411.77 108.19, 414.19 112.43 C416.61 116.68, 418.9 121.01, 421.04 125.41 C423.18 129.81, 425.18 134.28, 427.03 138.81 C428.89 143.34, 430.6 147.94, 432.15 152.58 C433.71 157.23, 435.12 161.93, 436.37 166.66 C437.62 171.4, 438.72 176.19, 439.67 180.99 C440.61 185.8, 441.4 190.65, 442.03 195.51 C442.66 200.37, 443.14 205.26, 443.46 210.16 C443.77 215.05, 443.93 219.96, 443.93 224.86" stroke="#5c940d" stroke-width="2.5" fill="none" stroke-dasharray="8 10"></path></g><g transform="translate(428.38387454344513 300.4806816106947) rotate(0 55 11.5)"><text x="0" y="17" font-family="Helvetica, Segoe UI Emoji" font-size="16px" fill="#000000" text-anchor="start" style="white-space: pre;" direction="ltr">距离&gt;覆盖半径</text></g><g stroke-linecap="round"><g transform="translate(10 387.24216822214913) rotate(0 405.83333333333337 -130.00000000000006)"><path d="M0 0 C135.28 -43.33, 676.39 -216.67, 811.67 -260" stroke="#000000" stroke-width="2.5" fill="none" stroke-dasharray="1.5 8"></path></g></g><g stroke-opacity="0.6" fill-opacity="0.6" stroke-linecap="round" transform="translate(820.7648754899992 49.7707118325217) rotate(0 221.96553050809072 224.86278541816347)"><path d="M443.93 224.86 C443.93 229.77, 443.77 234.68, 443.46 239.57 C443.14 244.46, 442.66 249.35, 442.03 254.21 C441.4 259.07, 440.61 263.92, 439.67 268.73 C438.72 273.54, 437.62 278.33, 436.37 283.06 C435.12 287.8, 433.71 292.5, 432.15 297.14 C430.6 301.78, 428.89 306.38, 427.03 310.91 C425.18 315.44, 423.18 319.92, 421.04 324.32 C418.9 328.71, 416.61 333.05, 414.19 337.29 C411.77 341.54, 409.21 345.71, 406.52 349.79 C403.83 353.87, 401.01 357.86, 398.06 361.75 C395.12 365.64, 392.04 369.44, 388.85 373.13 C385.66 376.81, 382.34 380.4, 378.92 383.86 C375.5 387.33, 371.96 390.69, 368.32 393.92 C364.68 397.16, 360.93 400.27, 357.09 403.26 C353.25 406.24, 349.31 409.11, 345.28 411.83 C341.26 414.55, 337.14 417.15, 332.95 419.6 C328.76 422.05, 324.48 424.37, 320.14 426.54 C315.8 428.7, 311.38 430.73, 306.91 432.61 C302.44 434.48, 297.9 436.22, 293.31 437.79 C288.73 439.37, 284.09 440.79, 279.41 442.06 C274.74 443.33, 270.01 444.45, 265.27 445.4 C260.52 446.36, 255.74 447.16, 250.94 447.8 C246.14 448.44, 241.31 448.92, 236.48 449.24 C231.65 449.56, 226.8 449.73, 221.97 449.73 C217.13 449.73, 212.28 449.56, 207.45 449.24 C202.62 448.92, 197.79 448.44, 192.99 447.8 C188.2 447.16, 183.41 446.36, 178.66 445.4 C173.92 444.45, 169.19 443.33, 164.52 442.06 C159.84 440.79, 155.2 439.37, 150.62 437.79 C146.03 436.22, 141.49 434.48, 137.02 432.61 C132.55 430.73, 128.13 428.7, 123.79 426.54 C119.45 424.37, 115.17 422.05, 110.98 419.6 C106.79 417.15, 102.67 414.55, 98.65 411.83 C94.62 409.11, 90.68 406.24, 86.84 403.26 C83 400.27, 79.25 397.16, 75.61 393.92 C71.98 390.69, 68.43 387.33, 65.01 383.86 C61.59 380.4, 58.27 376.81, 55.08 373.13 C51.89 369.44, 48.81 365.64, 45.87 361.75 C42.92 357.86, 40.1 353.87, 37.41 349.79 C34.72 345.71, 32.16 341.54, 29.74 337.29 C27.32 333.05, 25.03 328.71, 22.89 324.32 C20.75 319.92, 18.75 315.44, 16.9 310.91 C15.04 306.38, 13.34 301.78, 11.78 297.14 C10.22 292.5, 8.82 287.8, 7.56 283.06 C6.31 278.33, 5.21 273.54, 4.27 268.73 C3.32 263.92, 2.53 259.07, 1.9 254.21 C1.27 249.35, 0.79 244.46, 0.48 239.57 C0.16 234.68, 0 229.77, 0 224.86 C0 219.96, 0.16 215.05, 0.48 210.16 C0.79 205.26, 1.27 200.37, 1.9 195.51 C2.53 190.65, 3.32 185.8, 4.27 180.99 C5.21 176.19, 6.31 171.4, 7.56 166.66 C8.82 161.93, 10.22 157.23, 11.78 152.58 C13.34 147.94, 15.04 143.34, 16.9 138.81 C18.75 134.28, 20.75 129.81, 22.89 125.41 C25.03 121.01, 27.32 116.68, 29.74 112.43 C32.16 108.19, 34.72 104.01, 37.41 99.94 C40.1 95.86, 42.92 91.86, 45.87 87.97 C48.81 84.09, 51.89 80.29, 55.08 76.6 C58.27 72.91, 61.59 69.33, 65.01 65.86 C68.43 62.39, 71.98 59.03, 75.61 55.8 C79.25 52.57, 83 49.45, 86.84 46.47 C90.68 43.48, 94.62 40.62, 98.65 37.9 C102.67 35.17, 106.79 32.58, 110.98 30.13 C115.17 27.67, 119.45 25.36, 123.79 23.19 C128.13 21.02, 132.55 18.99, 137.02 17.12 C141.49 15.24, 146.03 13.51, 150.62 11.93 C155.2 10.36, 159.84 8.93, 164.52 7.66 C169.19 6.39, 173.92 5.28, 178.66 4.32 C183.41 3.36, 188.2 2.56, 192.99 1.92 C197.79 1.28, 202.62 0.8, 207.45 0.48 C212.28 0.16, 217.13 0, 221.97 0 C226.8 0, 231.65 0.16, 236.48 0.48 C241.31 0.8, 246.14 1.28, 250.94 1.92 C255.74 2.56, 260.52 3.36, 265.27 4.32 C270.01 5.28, 274.74 6.39, 279.41 7.66 C284.09 8.93, 288.73 10.36, 293.31 11.93 C297.9 13.51, 302.44 15.24, 306.91 17.12 C311.38 18.99, 315.8 21.02, 320.14 23.19 C324.48 25.36, 328.76 27.67, 332.95 30.13 C337.14 32.58, 341.26 35.17, 345.28 37.9 C349.31 40.62, 353.25 43.48, 357.09 46.47 C360.93 49.45, 364.68 52.57, 368.32 55.8 C371.96 59.03, 375.5 62.39, 378.92 65.86 C382.34 69.33, 385.66 72.91, 388.85 76.6 C392.04 80.29, 395.12 84.09, 398.06 87.97 C401.01 91.86, 403.83 95.86, 406.52 99.94 C409.21 104.01, 411.77 108.19, 414.19 112.43 C416.61 116.68, 418.9 121.01, 421.04 125.41 C423.18 129.81, 425.18 134.28, 427.03 138.81 C428.89 143.34, 430.6 147.94, 432.15 152.58 C433.71 157.23, 435.12 161.93, 436.37 166.66 C437.62 171.4, 438.72 176.19, 439.67 180.99 C440.61 185.8, 441.4 190.65, 442.03 195.51 C442.66 200.37, 443.14 205.26, 443.46 210.16 C443.77 215.05, 443.93 219.96, 443.93 224.86" stroke="none" stroke-width="0" fill="#ced4da"></path><path d="M443.93 224.86 C443.93 229.77, 443.77 234.68, 443.46 239.57 C443.14 244.46, 442.66 249.35, 442.03 254.21 C441.4 259.07, 440.61 263.92, 439.67 268.73 C438.72 273.54, 437.62 278.33, 436.37 283.06 C435.12 287.8, 433.71 292.5, 432.15 297.14 C430.6 301.78, 428.89 306.38, 427.03 310.91 C425.18 315.44, 423.18 319.92, 421.04 324.32 C418.9 328.71, 416.61 333.05, 414.19 337.29 C411.77 341.54, 409.21 345.71, 406.52 349.79 C403.83 353.87, 401.01 357.86, 398.06 361.75 C395.12 365.64, 392.04 369.44, 388.85 373.13 C385.66 376.81, 382.34 380.4, 378.92 383.86 C375.5 387.33, 371.96 390.69, 368.32 393.92 C364.68 397.16, 360.93 400.27, 357.09 403.26 C353.25 406.24, 349.31 409.11, 345.28 411.83 C341.26 414.55, 337.14 417.15, 332.95 419.6 C328.76 422.05, 324.48 424.37, 320.14 426.54 C315.8 428.7, 311.38 430.73, 306.91 432.61 C302.44 434.48, 297.9 436.22, 293.31 437.79 C288.73 439.37, 284.09 440.79, 279.41 442.06 C274.74 443.33, 270.01 444.45, 265.27 445.4 C260.52 446.36, 255.74 447.16, 250.94 447.8 C246.14 448.44, 241.31 448.92, 236.48 449.24 C231.65 449.56, 226.8 449.73, 221.97 449.73 C217.13 449.73, 212.28 449.56, 207.45 449.24 C202.62 448.92, 197.79 448.44, 192.99 447.8 C188.2 447.16, 183.41 446.36, 178.66 445.4 C173.92 444.45, 169.19 443.33, 164.52 442.06 C159.84 440.79, 155.2 439.37, 150.62 437.79 C146.03 436.22, 141.49 434.48, 137.02 432.61 C132.55 430.73, 128.13 428.7, 123.79 426.54 C119.45 424.37, 115.17 422.05, 110.98 419.6 C106.79 417.15, 102.67 414.55, 98.65 411.83 C94.62 409.11, 90.68 406.24, 86.84 403.26 C83 400.27, 79.25 397.16, 75.61 393.92 C71.98 390.69, 68.43 387.33, 65.01 383.86 C61.59 380.4, 58.27 376.81, 55.08 373.13 C51.89 369.44, 48.81 365.64, 45.87 361.75 C42.92 357.86, 40.1 353.87, 37.41 349.79 C34.72 345.71, 32.16 341.54, 29.74 337.29 C27.32 333.05, 25.03 328.71, 22.89 324.32 C20.75 319.92, 18.75 315.44, 16.9 310.91 C15.04 306.38, 13.34 301.78, 11.78 297.14 C10.22 292.5, 8.82 287.8, 7.56 283.06 C6.31 278.33, 5.21 273.54, 4.27 268.73 C3.32 263.92, 2.53 259.07, 1.9 254.21 C1.27 249.35, 0.79 244.46, 0.48 239.57 C0.16 234.68, 0 229.77, 0 224.86 C0 219.96, 0.16 215.05, 0.48 210.16 C0.79 205.26, 1.27 200.37, 1.9 195.51 C2.53 190.65, 3.32 185.8, 4.27 180.99 C5.21 176.19, 6.31 171.4, 7.56 166.66 C8.82 161.93, 10.22 157.23, 11.78 152.58 C13.34 147.94, 15.04 143.34, 16.9 138.81 C18.75 134.28, 20.75 129.81, 22.89 125.41 C25.03 121.01, 27.32 116.68, 29.74 112.43 C32.16 108.19, 34.72 104.01, 37.41 99.94 C40.1 95.86, 42.92 91.86, 45.87 87.97 C48.81 84.09, 51.89 80.29, 55.08 76.6 C58.27 72.91, 61.59 69.33, 65.01 65.86 C68.43 62.39, 71.98 59.03, 75.61 55.8 C79.25 52.57, 83 49.45, 86.84 46.47 C90.68 43.48, 94.62 40.62, 98.65 37.9 C102.67 35.17, 106.79 32.58, 110.98 30.13 C115.17 27.67, 119.45 25.36, 123.79 23.19 C128.13 21.02, 132.55 18.99, 137.02 17.12 C141.49 15.24, 146.03 13.51, 150.62 11.93 C155.2 10.36, 159.84 8.93, 164.52 7.66 C169.19 6.39, 173.92 5.28, 178.66 4.32 C183.41 3.36, 188.2 2.56, 192.99 1.92 C197.79 1.28, 202.62 0.8, 207.45 0.48 C212.28 0.16, 217.13 0, 221.97 0 C226.8 0, 231.65 0.16, 236.48 0.48 C241.31 0.8, 246.14 1.28, 250.94 1.92 C255.74 2.56, 260.52 3.36, 265.27 4.32 C270.01 5.28, 274.74 6.39, 279.41 7.66 C284.09 8.93, 288.73 10.36, 293.31 11.93 C297.9 13.51, 302.44 15.24, 306.91 17.12 C311.38 18.99, 315.8 21.02, 320.14 23.19 C324.48 25.36, 328.76 27.67, 332.95 30.13 C337.14 32.58, 341.26 35.17, 345.28 37.9 C349.31 40.62, 353.25 43.48, 357.09 46.47 C360.93 49.45, 364.68 52.57, 368.32 55.8 C371.96 59.03, 375.5 62.39, 378.92 65.86 C382.34 69.33, 385.66 72.91, 388.85 76.6 C392.04 80.29, 395.12 84.09, 398.06 87.97 C401.01 91.86, 403.83 95.86, 406.52 99.94 C409.21 104.01, 411.77 108.19, 414.19 112.43 C416.61 116.68, 418.9 121.01, 421.04 125.41 C423.18 129.81, 425.18 134.28, 427.03 138.81 C428.89 143.34, 430.6 147.94, 432.15 152.58 C433.71 157.23, 435.12 161.93, 436.37 166.66 C437.62 171.4, 438.72 176.19, 439.67 180.99 C440.61 185.8, 441.4 190.65, 442.03 195.51 C442.66 200.37, 443.14 205.26, 443.46 210.16 C443.77 215.05, 443.93 219.96, 443.93 224.86" stroke="#ced4da" stroke-width="0.5" fill="none"></path></g><g stroke-linecap="round" transform="translate(973.2666161788432 259.4016715069185) rotate(0 8.146484375 8.24609375)"><path d="M0 0 L16.29 0 L16.29 16.49 L0 16.49" stroke="none" stroke-width="0" fill="#d9480f"></path><path d="M0 0 C5 0, 10.01 0, 16.29 0 M0 0 C6.1 0, 12.21 0, 16.29 0 M16.29 0 C16.29 3.78, 16.29 7.56, 16.29 16.49 M16.29 0 C16.29 4.34, 16.29 8.67, 16.29 16.49 M16.29 16.49 C9.94 16.49, 3.59 16.49, 0 16.49 M16.29 16.49 C10.09 16.49, 3.89 16.49, 0 16.49 M0 16.49 C0 11.97, 0 7.45, 0 0 M0 16.49 C0 12.02, 0 7.54, 0 0" stroke="#d9480f" stroke-width="2" fill="none"></path></g><g stroke-linecap="round" transform="translate(1045.4262243798696 213.9481961047384) rotate(0 8.044921875 8.640625)"><path d="M0 0 L16.09 0 L16.09 17.28 L0 17.28" stroke="none" stroke-width="0" fill="#d9480f"></path><path d="M0 0 C3.33 0, 6.65 0, 16.09 0 M0 0 C3.97 0, 7.93 0, 16.09 0 M16.09 0 C16.09 3.59, 16.09 7.18, 16.09 17.28 M16.09 0 C16.09 5.53, 16.09 11.07, 16.09 17.28 M16.09 17.28 C11.84 17.28, 7.59 17.28, 0 17.28 M16.09 17.28 C12.43 17.28, 8.76 17.28, 0 17.28 M0 17.28 C0 11.5, 0 5.71, 0 0 M0 17.28 C0 11.09, 0 4.9, 0 0" stroke="#d9480f" stroke-width="2" fill="none"></path></g><g stroke-linecap="round" transform="translate(947.2889493869652 371.75375358613513) rotate(0 7.83984375 7.630859375)"><path d="M0 0 C5.82 0, 11.64 0, 15.68 0 M0 0 C5.26 0, 10.53 0, 15.68 0 M15.68 0 C15.68 4.95, 15.68 9.91, 15.68 15.26 M15.68 0 C15.68 3.28, 15.68 6.56, 15.68 15.26 M15.68 15.26 C10.06 15.26, 4.44 15.26, 0 15.26 M15.68 15.26 C9.82 15.26, 3.97 15.26, 0 15.26 M0 15.26 C0 11.62, 0 7.98, 0 0 M0 15.26 C0 11.33, 0 7.4, 0 0" stroke="#000000" stroke-width="2" fill="none"></path></g><g stroke-linecap="round" transform="translate(1112.7187875817444 449.61790581552674) rotate(0 9.28125 14.259765625)"><path d="M10 0 L18.56 15 L10 28.52 L0 15" stroke="none" stroke-width="0" fill="#364fc7" fill-rule="evenodd"></path><path d="M10 0 C12.45 4.29, 14.89 8.57, 18.56 15 M10 0 C13.23 5.66, 16.47 11.33, 18.56 15 M18.56 15 C16.15 18.81, 13.74 22.61, 10 28.52 M18.56 15 C15.82 19.34, 13.07 23.67, 10 28.52 M10 28.52 C6.57 23.88, 3.14 19.25, 0 15 M10 28.52 C7.73 25.45, 5.46 22.38, 0 15 M0 15 C2.22 11.67, 4.44 8.34, 10 0 M0 15 C2.35 11.47, 4.7 7.94, 10 0" stroke="#364fc7" stroke-width="2" fill="none"></path></g><g stroke-linecap="round" transform="translate(998.470854647753 82.7541052362973) rotate(0 9.28125 14.259765625)"><path d="M10 0 L18.56 15 L10 28.52 L0 15" stroke="none" stroke-width="0" fill="#364fc7" fill-rule="evenodd"></path><path d="M10 0 C13.4 5.96, 16.81 11.93, 18.56 15 M10 0 C11.97 3.45, 13.94 6.9, 18.56 15 M18.56 15 C15.86 19.26, 13.16 23.52, 10 28.52 M18.56 15 C16.32 18.54, 14.07 22.09, 10 28.52 M10 28.52 C7.41 25.01, 4.81 21.5, 0 15 M10 28.52 C7.31 24.89, 4.63 21.26, 0 15 M0 15 C3.04 10.43, 6.09 5.87, 10 0 M0 15 C3.19 10.21, 6.38 5.42, 10 0" stroke="#364fc7" stroke-width="2" fill="none"></path></g><g stroke-linecap="round" transform="translate(1068.824286718183 269.28049645735035) rotate(0 3.210395675739619 3.262296332043036)"><path d="M6.42 3.26 C6.42 3.45, 6.4 3.64, 6.37 3.83 C6.34 4.01, 6.29 4.2, 6.23 4.38 C6.16 4.56, 6.08 4.73, 5.99 4.89 C5.9 5.06, 5.79 5.21, 5.67 5.36 C5.55 5.5, 5.42 5.64, 5.27 5.76 C5.13 5.88, 4.98 5.99, 4.82 6.09 C4.65 6.18, 4.48 6.26, 4.31 6.33 C4.13 6.39, 3.95 6.44, 3.77 6.48 C3.58 6.51, 3.4 6.52, 3.21 6.52 C3.02 6.52, 2.84 6.51, 2.65 6.48 C2.47 6.44, 2.29 6.39, 2.11 6.33 C1.94 6.26, 1.77 6.18, 1.61 6.09 C1.44 5.99, 1.29 5.88, 1.15 5.76 C1 5.64, 0.87 5.5, 0.75 5.36 C0.63 5.21, 0.52 5.06, 0.43 4.89 C0.34 4.73, 0.26 4.56, 0.19 4.38 C0.13 4.2, 0.08 4.01, 0.05 3.83 C0.02 3.64, 0 3.45, 0 3.26 C0 3.07, 0.02 2.88, 0.05 2.7 C0.08 2.51, 0.13 2.32, 0.19 2.15 C0.26 1.97, 0.34 1.79, 0.43 1.63 C0.52 1.47, 0.63 1.31, 0.75 1.17 C0.87 1.02, 1 0.88, 1.15 0.76 C1.29 0.64, 1.44 0.53, 1.61 0.44 C1.77 0.34, 1.94 0.26, 2.11 0.2 C2.29 0.13, 2.47 0.08, 2.65 0.05 C2.84 0.02, 3.02 0, 3.21 0 C3.4 0, 3.58 0.02, 3.77 0.05 C3.95 0.08, 4.13 0.13, 4.31 0.2 C4.48 0.26, 4.65 0.34, 4.82 0.44 C4.98 0.53, 5.13 0.64, 5.27 0.76 C5.42 0.88, 5.55 1.02, 5.67 1.17 C5.79 1.31, 5.9 1.47, 5.99 1.63 C6.08 1.79, 6.16 1.97, 6.23 2.15 C6.29 2.32, 6.34 2.51, 6.37 2.7 C6.4 2.88, 6.41 3.17, 6.42 3.26 C6.43 3.36, 6.43 3.17, 6.42 3.26" stroke="none" stroke-width="0" fill="#364fc7"></path><path d="M6.42 3.26 C6.42 3.45, 6.4 3.64, 6.37 3.83 C6.34 4.01, 6.29 4.2, 6.23 4.38 C6.16 4.56, 6.08 4.73, 5.99 4.89 C5.9 5.06, 5.79 5.21, 5.67 5.36 C5.55 5.5, 5.42 5.64, 5.27 5.76 C5.13 5.88, 4.98 5.99, 4.82 6.09 C4.65 6.18, 4.48 6.26, 4.31 6.33 C4.13 6.39, 3.95 6.44, 3.77 6.48 C3.58 6.51, 3.4 6.52, 3.21 6.52 C3.02 6.52, 2.84 6.51, 2.65 6.48 C2.47 6.44, 2.29 6.39, 2.11 6.33 C1.94 6.26, 1.77 6.18, 1.61 6.09 C1.44 5.99, 1.29 5.88, 1.15 5.76 C1 5.64, 0.87 5.5, 0.75 5.36 C0.63 5.21, 0.52 5.06, 0.43 4.89 C0.34 4.73, 0.26 4.56, 0.19 4.38 C0.13 4.2, 0.08 4.01, 0.05 3.83 C0.02 3.64, 0 3.45, 0 3.26 C0 3.07, 0.02 2.88, 0.05 2.7 C0.08 2.51, 0.13 2.32, 0.19 2.15 C0.26 1.97, 0.34 1.79, 0.43 1.63 C0.52 1.47, 0.63 1.31, 0.75 1.17 C0.87 1.02, 1 0.88, 1.15 0.76 C1.29 0.64, 1.44 0.53, 1.61 0.44 C1.77 0.34, 1.94 0.26, 2.11 0.2 C2.29 0.13, 2.47 0.08, 2.65 0.05 C2.84 0.02, 3.02 0, 3.21 0 C3.4 0, 3.58 0.02, 3.77 0.05 C3.95 0.08, 4.13 0.13, 4.31 0.2 C4.48 0.26, 4.65 0.34, 4.82 0.44 C4.98 0.53, 5.13 0.64, 5.27 0.76 C5.42 0.88, 5.55 1.02, 5.67 1.17 C5.79 1.31, 5.9 1.47, 5.99 1.63 C6.08 1.79, 6.16 1.97, 6.23 2.15 C6.29 2.32, 6.34 2.51, 6.37 2.7 C6.4 2.88, 6.41 3.17, 6.42 3.26 C6.43 3.36, 6.43 3.17, 6.42 3.26" stroke="#364fc7" stroke-width="2" fill="none"></path></g><g stroke-linecap="round"><g transform="translate(1066.097633761328 273.3014337475871) rotate(0 -35.236330138781 -3.878091476880826)"><path d="M0 0 C-11.75 -1.29, -58.73 -6.46, -70.47 -7.76 M0 0 C-11.75 -1.29, -58.73 -6.46, -70.47 -7.76" stroke="#000000" stroke-width="1" fill="none"></path></g><g transform="translate(1066.097633761328 273.3014337475871) rotate(0 -35.236330138781 -3.878091476880826)"><path d="M-41.33 -14.87 C-51.7 -12.34, -62.08 -9.81, -70.47 -7.76 M-41.33 -14.87 C-48.04 -13.23, -54.75 -11.6, -70.47 -7.76" stroke="#000000" stroke-width="1" fill="none"></path></g><g transform="translate(1066.097633761328 273.3014337475871) rotate(0 -35.236330138781 -3.878091476880826)"><path d="M-43.57 5.53 C-53.15 0.8, -62.72 -3.93, -70.47 -7.76 M-43.57 5.53 C-49.77 2.47, -55.96 -0.59, -70.47 -7.76" stroke="#000000" stroke-width="1" fill="none"></path></g></g><g stroke-linecap="round"><g transform="translate(1066.6876823054547 277.40701731125137) rotate(0 -50.16178655453996 47.39441470899544)"><path d="M0 0 C-16.72 15.8, -83.6 78.99, -100.32 94.79 M0 0 C-16.72 15.8, -83.6 78.99, -100.32 94.79" stroke="#000000" stroke-width="1" fill="none"></path></g><g transform="translate(1066.6876823054547 277.40701731125137) rotate(0 -50.16178655453996 47.39441470899544)"><path d="M-86.88 67.97 C-91.06 76.32, -95.25 84.67, -100.32 94.79 M-86.88 67.97 C-91.55 77.29, -96.22 86.61, -100.32 94.79" stroke="#000000" stroke-width="1" fill="none"></path></g><g transform="translate(1066.6876823054547 277.40701731125137) rotate(0 -50.16178655453996 47.39441470899544)"><path d="M-72.79 82.89 C-81.36 86.59, -89.93 90.3, -100.32 94.79 M-72.79 82.89 C-82.36 87.02, -91.92 91.16, -100.32 94.79" stroke="#000000" stroke-width="1" fill="none"></path></g></g><g stroke-linecap="round"><g transform="translate(1073.390994851391 276.57373824008994) rotate(179.58180468477826 23.775997520948295 93.26651373911383)"><path d="M0 0 C7.93 31.09, 39.63 155.44, 47.55 186.53 M0 0 C7.93 31.09, 39.63 155.44, 47.55 186.53" stroke="#000000" stroke-width="4" fill="none"></path></g><g transform="translate(1073.390994851391 276.57373824008994) rotate(179.58180468477826 23.775997520948295 93.26651373911383)"><path d="M30.65 161.75 C35.29 168.55, 39.93 175.35, 47.55 186.53 M30.65 161.75 C37.18 171.33, 43.72 180.91, 47.55 186.53" stroke="#000000" stroke-width="4" fill="none"></path></g><g transform="translate(1073.390994851391 276.57373824008994) rotate(179.58180468477826 23.775997520948295 93.26651373911383)"><path d="M50.53 156.68 C49.71 164.87, 48.9 173.07, 47.55 186.53 M50.53 156.68 C49.38 168.22, 48.23 179.76, 47.55 186.53" stroke="#000000" stroke-width="4" fill="none"></path></g></g><g stroke-linecap="round"><g transform="translate(1067.5079583285647 270.2967846905585) rotate(0 -28.64977054403937 -78.5554655944175)"><path d="M0 0 C-9.55 -26.19, -47.75 -130.93, -57.3 -157.11 M0 0 C-9.55 -26.19, -47.75 -130.93, -57.3 -157.11" stroke="#000000" stroke-width="1" fill="none"></path></g><g transform="translate(1067.5079583285647 270.2967846905585) rotate(0 -28.64977054403937 -78.5554655944175)"><path d="M-38 -134.14 C-43.06 -140.17, -48.13 -146.19, -57.3 -157.11 M-38 -134.14 C-44.02 -141.31, -50.05 -148.48, -57.3 -157.11" stroke="#000000" stroke-width="1" fill="none"></path></g><g transform="translate(1067.5079583285647 270.2967846905585) rotate(0 -28.64977054403937 -78.5554655944175)"><path d="M-57.28 -127.11 C-57.29 -134.98, -57.29 -142.85, -57.3 -157.11 M-57.28 -127.11 C-57.29 -136.47, -57.29 -145.84, -57.3 -157.11" stroke="#000000" stroke-width="1" fill="none"></path></g></g><g stroke-linecap="round" transform="translate(850.0713754844078 35.636828106047375) rotate(0 221.9655305080907 224.86278541816347)"><path d="M443.93 224.86 C443.93 229.77, 443.77 234.68, 443.46 239.57 C443.14 244.46, 442.66 249.35, 442.03 254.21 C441.4 259.07, 440.61 263.92, 439.67 268.73 C438.72 273.54, 437.62 278.33, 436.37 283.06 C435.12 287.8, 433.71 292.5, 432.15 297.14 C430.6 301.78, 428.89 306.38, 427.03 310.91 C425.18 315.44, 423.18 319.92, 421.04 324.32 C418.9 328.71, 416.61 333.05, 414.19 337.29 C411.77 341.54, 409.21 345.71, 406.52 349.79 C403.83 353.87, 401.01 357.86, 398.06 361.75 C395.12 365.64, 392.04 369.44, 388.85 373.13 C385.66 376.81, 382.34 380.4, 378.92 383.86 C375.5 387.33, 371.96 390.69, 368.32 393.92 C364.68 397.16, 360.93 400.27, 357.09 403.26 C353.25 406.24, 349.31 409.11, 345.28 411.83 C341.26 414.55, 337.14 417.15, 332.95 419.6 C328.76 422.05, 324.48 424.37, 320.14 426.54 C315.8 428.7, 311.38 430.73, 306.91 432.61 C302.44 434.48, 297.9 436.22, 293.31 437.79 C288.73 439.37, 284.09 440.79, 279.41 442.06 C274.74 443.33, 270.01 444.45, 265.27 445.4 C260.52 446.36, 255.74 447.16, 250.94 447.8 C246.14 448.44, 241.31 448.92, 236.48 449.24 C231.65 449.56, 226.8 449.73, 221.97 449.73 C217.13 449.73, 212.28 449.56, 207.45 449.24 C202.62 448.92, 197.79 448.44, 192.99 447.8 C188.2 447.16, 183.41 446.36, 178.66 445.4 C173.92 444.45, 169.19 443.33, 164.52 442.06 C159.84 440.79, 155.2 439.37, 150.62 437.79 C146.03 436.22, 141.49 434.48, 137.02 432.61 C132.55 430.73, 128.13 428.7, 123.79 426.54 C119.45 424.37, 115.17 422.05, 110.98 419.6 C106.79 417.15, 102.67 414.55, 98.65 411.83 C94.62 409.11, 90.68 406.24, 86.84 403.26 C83 400.27, 79.25 397.16, 75.61 393.92 C71.98 390.69, 68.43 387.33, 65.01 383.86 C61.59 380.4, 58.27 376.81, 55.08 373.13 C51.89 369.44, 48.81 365.64, 45.87 361.75 C42.92 357.86, 40.1 353.87, 37.41 349.79 C34.72 345.71, 32.16 341.54, 29.74 337.29 C27.32 333.05, 25.03 328.71, 22.89 324.32 C20.75 319.92, 18.75 315.44, 16.9 310.91 C15.04 306.38, 13.34 301.78, 11.78 297.14 C10.22 292.5, 8.82 287.8, 7.56 283.06 C6.31 278.33, 5.21 273.54, 4.27 268.73 C3.32 263.92, 2.53 259.07, 1.9 254.21 C1.27 249.35, 0.79 244.46, 0.48 239.57 C0.16 234.68, 0 229.77, 0 224.86 C0 219.96, 0.16 215.05, 0.48 210.16 C0.79 205.26, 1.27 200.37, 1.9 195.51 C2.53 190.65, 3.32 185.8, 4.27 180.99 C5.21 176.19, 6.31 171.4, 7.56 166.66 C8.82 161.93, 10.22 157.23, 11.78 152.58 C13.34 147.94, 15.04 143.34, 16.9 138.81 C18.75 134.28, 20.75 129.81, 22.89 125.41 C25.03 121.01, 27.32 116.68, 29.74 112.43 C32.16 108.19, 34.72 104.01, 37.41 99.94 C40.1 95.86, 42.92 91.86, 45.87 87.97 C48.81 84.09, 51.89 80.29, 55.08 76.6 C58.27 72.91, 61.59 69.33, 65.01 65.86 C68.43 62.39, 71.98 59.03, 75.61 55.8 C79.25 52.57, 83 49.45, 86.84 46.47 C90.68 43.48, 94.62 40.62, 98.65 37.9 C102.67 35.17, 106.79 32.58, 110.98 30.13 C115.17 27.67, 119.45 25.36, 123.79 23.19 C128.13 21.02, 132.55 18.99, 137.02 17.12 C141.49 15.24, 146.03 13.51, 150.62 11.93 C155.2 10.36, 159.84 8.93, 164.52 7.66 C169.19 6.39, 173.92 5.28, 178.66 4.32 C183.41 3.36, 188.2 2.56, 192.99 1.92 C197.79 1.28, 202.62 0.8, 207.45 0.48 C212.28 0.16, 217.13 0, 221.97 0 C226.8 0, 231.65 0.16, 236.48 0.48 C241.31 0.8, 246.14 1.28, 250.94 1.92 C255.74 2.56, 260.52 3.36, 265.27 4.32 C270.01 5.28, 274.74 6.39, 279.41 7.66 C284.09 8.93, 288.73 10.36, 293.31 11.93 C297.9 13.51, 302.44 15.24, 306.91 17.12 C311.38 18.99, 315.8 21.02, 320.14 23.19 C324.48 25.36, 328.76 27.67, 332.95 30.13 C337.14 32.58, 341.26 35.17, 345.28 37.9 C349.31 40.62, 353.25 43.48, 357.09 46.47 C360.93 49.45, 364.68 52.57, 368.32 55.8 C371.96 59.03, 375.5 62.39, 378.92 65.86 C382.34 69.33, 385.66 72.91, 388.85 76.6 C392.04 80.29, 395.12 84.09, 398.06 87.97 C401.01 91.86, 403.83 95.86, 406.52 99.94 C409.21 104.01, 411.77 108.19, 414.19 112.43 C416.61 116.68, 418.9 121.01, 421.04 125.41 C423.18 129.81, 425.18 134.28, 427.03 138.81 C428.89 143.34, 430.6 147.94, 432.15 152.58 C433.71 157.23, 435.12 161.93, 436.37 166.66 C437.62 171.4, 438.72 176.19, 439.67 180.99 C440.61 185.8, 441.4 190.65, 442.03 195.51 C442.66 200.37, 443.14 205.26, 443.46 210.16 C443.77 215.05, 443.93 219.96, 443.93 224.86" stroke="#364fc7" stroke-width="2.5" fill="none" stroke-dasharray="8 10"></path></g><g transform="translate(1107.027758890582 332.400367857395) rotate(0 55 11.5)"><text x="0" y="17" font-family="Helvetica, Segoe UI Emoji" font-size="16px" fill="#000000" text-anchor="start" style="white-space: pre;" direction="ltr">距离=覆盖半径</text></g><g stroke-linecap="round"><g transform="translate(1071.471567682286 269.7964043903519) rotate(0 -6.794048583309859 -22.88521628062267)"><path d="M0 0 C-2.26 -7.63, -11.32 -38.14, -13.59 -45.77 M0 0 C-2.26 -7.63, -11.32 -38.14, -13.59 -45.77" stroke="#364fc7" stroke-width="1" fill="none"></path></g><g transform="translate(1071.471567682286 269.7964043903519) rotate(0 -6.794048583309859 -22.88521628062267)"><path d="M0.62 -26.59 C-4.59 -33.62, -9.8 -40.65, -13.59 -45.77 M0.62 -26.59 C-4.42 -33.4, -9.47 -40.21, -13.59 -45.77" stroke="#364fc7" stroke-width="1" fill="none"></path></g><g transform="translate(1071.471567682286 269.7964043903519) rotate(0 -6.794048583309859 -22.88521628062267)"><path d="M-15.03 -21.94 C-14.5 -30.68, -13.97 -39.41, -13.59 -45.77 M-15.03 -21.94 C-14.52 -30.4, -14.01 -38.86, -13.59 -45.77" stroke="#364fc7" stroke-width="1" fill="none"></path></g></g></svg>